<?xml version="1.0" encoding="utf-8"?>
<!-- Generator: Adobe Illustrator 27.5.0, SVG Export Plug-In . SVG Version: 6.00 Build 0)  -->
<svg version="1.1" id="Layer_1" xmlns="http://www.w3.org/2000/svg" xmlns:xlink="http://www.w3.org/1999/xlink" x="0px" y="0px"
	 viewBox="0 0 808 345" style="enable-background:new 0 0 808 345;" xml:space="preserve">
<g>
	<rect x="60.15" y="63.63" width="205.98" height="205.98"/>
	<path fill="white" d="M245.13,180.46c-0.29,15.16-3.69,29.34-12.56,41.78c-11.66,16.35-27.99,24.41-47.81,25.22
		c-19.82,0.81-38.35-4.43-55.84-13.49c-12.87-6.67-24.13-15.43-32.95-27.04c-17.07-22.47-17.83-46.25-4.09-70.26
		c14.59-25.49,37.05-40.93,65.81-46.22c21.21-3.91,39.84,3.13,55.71,17.31c17,15.19,26.2,34.68,30.02,56.87
		C244.31,169.85,244.57,175.18,245.13,180.46z"/>
	<path d="M224.46,168.68c0.01,32.13-23.84,55.91-56.46,56.37c-13.72,0.19-26.72-2.51-38.55-9.66
		c-19.67-11.9-27.85-31.02-21.64-53.11c7.2-25.6,23.77-43.31,48.77-52.37c19.9-7.21,41.38,0.54,54.7,18.66
		C219.66,139.97,224.45,154.56,224.46,168.68z"/>
	<path d="M319.84,269.58c-7.15,0-14.1,0-21.43,0c-5.68-31.19-11.37-62.42-17.11-93.92c6.18,0,12.06,0,18.35,0
		c3.4,22.66,6.81,45.42,10.23,68.19c0.16,0.02,0.32,0.04,0.47,0.06c3.62-22.67,7.23-45.34,10.88-68.23c6.13,0,12.19,0,18.4,0
		c3.63,22.8,7.26,45.54,10.88,68.29c0.15,0,0.3,0.01,0.45,0.01c3.41-22.72,6.82-45.45,10.25-68.34c6.03,0,11.91,0,18.27,0
		c-0.69,4-1.34,7.93-2.05,11.85c-4.84,26.57-9.7,53.14-14.49,79.71c-0.32,1.77-0.8,2.59-2.8,2.55c-6.29-0.12-12.59-0.05-19.09-0.05
		c-3.49-22.52-6.94-44.81-10.39-67.1c-0.15-0.01-0.31-0.01-0.46-0.02C326.77,224.82,323.33,247.04,319.84,269.58z"/>
	<path d="M673.53,161.11c-7.06,0-13.93,0.07-20.8-0.1c-0.79-0.02-1.95-1.25-2.27-2.16c-5.23-14.61-10.34-29.26-15.49-43.9
		c-2.4-6.81-4.8-13.63-7.7-20.36c0,22.03,0,44.07,0,66.31c-6.15,0-12.02,0-18.04,0c0-32.29,0-64.47,0-97.07
		c4.09,0,8.1-0.04,12.12,0.01c3.46,0.05,7.74-0.98,10.14,0.67c2.28,1.56,2.63,5.97,3.76,9.15c6.29,17.62,12.57,35.25,18.85,52.88
		c0.3,0.84,0.6,1.67,1.51,2.39c0-21.6,0-43.2,0-64.95c6.15,0,11.94,0,17.92,0C673.53,96.33,673.53,128.51,673.53,161.11z"/>
	<path d="M282,63.83c6.85,0,13.43-0.05,20.01,0.01c6.12,0.06,12.26-0.1,18.34,0.43c14.97,1.31,22.34,10.04,21.8,25.03
		c-0.35,9.77-4.28,17-13.68,20.33c2.68,1.25,5.59,2.16,8,3.81c6.42,4.39,8.43,11.01,8.48,18.43c0.06,8.23-1.29,15.97-7.71,21.91
		c-4.92,4.55-10.91,6.91-17.44,7.07c-12.51,0.32-25.04,0.09-37.81,0.09C282,128.71,282,96.47,282,63.83z M301.73,117.76
		c0,9.55,0,19,0,29.16c4.66-0.39,9.16-0.41,13.51-1.23c5.37-1.01,8.47-4.65,9.05-10.14c0.24-2.23,0.3-4.53,0.04-6.74
		c-0.75-6.37-4.18-10.12-10.58-10.95C309.89,117.35,305.91,117.76,301.73,117.76z M301.76,104.25c4.72-0.57,9.22-0.81,13.56-1.74
		c3.68-0.79,6.08-3.56,6.58-7.32c0.38-2.85,0.37-5.83-0.02-8.68c-0.54-3.92-3.14-6.58-6.98-7.23c-4.3-0.73-8.71-0.78-13.15-1.13
		C301.76,87.03,301.76,95.26,301.76,104.25z"/>
	<path d="M529.45,237.95c0-20.68,0-41.37,0-62.28c5.86,0,11.46,0,17.33,0c0,31.22,0,62.52,0,94.04c-6.77,0-13.45,0.08-20.12-0.11
		c-0.75-0.02-1.79-1.39-2.13-2.33c-6.38-17.89-12.67-35.81-18.99-53.72c-0.99-2.8-1.99-5.59-3.56-8.29c0,21.39,0,42.77,0,64.31
		c-5.95,0-11.55,0-17.35,0c0-31.32,0-62.55,0-94.09c7.01,0,13.96-0.05,20.91,0.1c0.59,0.01,1.4,1.32,1.7,2.16
		c6.96,19.38,13.87,38.78,20.79,58.17c0.25,0.69,0.52,1.37,0.78,2.06C529.01,237.96,529.23,237.96,529.45,237.95z"/>
	<path d="M545.55,112.96c0.39,0.27,0.51,0.42,0.67,0.46c8.68,2.3,12.16,6.21,12.93,15.16c0.56,6.47,0.74,12.96,1.09,19.45
		c0.25,4.55-0.17,9.3,3.87,13.09c-2.3,0-4.6,0-6.9,0c-3.67,0-7.35,0-11.02,0c-3.78,0-4.74-0.54-5.04-4.36
		c-0.59-7.59-0.8-15.22-1.2-22.82c-0.09-1.69-0.18-3.39-0.5-5.04c-1.16-5.99-4.22-8.65-10.24-8.85c-3.2-0.11-6.41-0.01-9.61,0.02
		c-0.36,0-0.71,0.15-1.34,0.29c0,13.46,0,26.89,0,40.55c-6.71,0-13.14,0-19.72,0c0-32.25,0-64.44,0-96.91
		c1.08-0.05,2.07-0.14,3.06-0.14c11.12-0.01,22.24-0.04,33.35,0.02c2.34,0.01,4.72,0.22,7.01,0.67c11.4,2.21,17.88,9.8,18.32,21.42
		c0.11,2.81,0.16,5.68-0.24,8.45C558.62,104.35,555.72,107.98,545.55,112.96z M518.3,106.25c2.89,0,5.51,0.03,8.13-0.01
		c9.59-0.13,13.78-4.11,14.36-13.59c0.48-7.92-3.13-13.07-10.36-13.95c-3.95-0.48-8.01-0.09-12.13-0.09
		C518.3,87.81,518.3,96.82,518.3,106.25z"/>
	<path d="M749.21,92.84c-5.97,0-11.78,0.06-17.6-0.1c-0.51-0.01-1.18-1.34-1.45-2.16c-0.97-2.92-1.29-6.16-2.76-8.77
		c-4.03-7.16-13.39-7.15-16.96,0.24c-2.11,4.37-3.28,9.46-3.74,14.33c-1.26,13.24-1.37,26.53,1.26,39.66
		c0.53,2.63,1.53,5.28,2.88,7.59c3.19,5.44,9.19,6.49,14.33,2.81c3.15-2.26,5.23-5.37,5.73-9.09c0.6-4.53,0.5-9.16,0.71-14.07
		c-4.58,0-8.68,0-12.98,0c0-4.96,0-9.6,0-14.41c10.55,0,20.97,0,31.57,0c0,17.36,0,34.64,0,52.08c-4.72,0-9.38,0-14.34,0
		c0-2.64,0-5.23,0-7.81c-0.34-0.24-0.69-0.48-1.03-0.72c-0.04,0.41,0.04,0.89-0.15,1.21c-7.38,12.67-32.21,11.12-39.63,1.69
		c-4.18-5.31-6.41-11.35-7.25-17.82c-2.17-16.69-2.68-33.43,0.45-50.07c1.36-7.23,4.1-13.94,9.93-18.87
		c8.09-6.84,17.7-7.15,27.55-6.07c8.4,0.92,15.41,4.21,19.57,12.04C748.27,80.14,749.15,86.23,749.21,92.84z"/>
	<path d="M441,140.66c-1.52,6.85-3.01,13.54-4.52,20.33c-6.81,0-13.47,0-20.49,0c1.23-4.77,2.4-9.38,3.61-13.97
		c7.12-26.91,14.28-53.81,21.36-80.73c0.49-1.86,1.21-2.55,3.22-2.51c6.5,0.15,13,0.08,19.51,0.03c1.47-0.01,2.37,0.17,2.83,1.9
		c8.22,31.29,16.52,62.57,24.8,93.84c0.09,0.36,0.1,0.74,0.17,1.34c-6.78,0-13.48,0-20.35,0c-1.35-6.08-2.63-12.14-4.09-18.15
		c-0.19-0.8-1.25-1.98-1.93-1.99C457.13,140.61,449.13,140.66,441,140.66z M454.07,81.78c-0.17,0.01-0.34,0.03-0.52,0.04
		c-3.02,14.08-6.05,28.16-9.09,42.31c6.4,0,12.45,0,18.73,0C460.12,109.84,457.1,95.81,454.07,81.78z"/>
	<path d="M377.24,144.97c12.04,0,23.8,0,35.74,0c0,5.37,0,10.5,0,15.89c-18.46,0-36.95,0-55.57,0c0-32.24,0-64.44,0-96.83
		c18.01,0,35.97,0,54.19,0c0,5.26,0,10.56,0,16.08c-11.43,0-22.8,0-34.35,0c0,7.6,0,14.98,0,22.63c10.77,0,21.47,0,32.35,0
		c0,5.49,0,10.71,0,16.24c-10.78,0-21.47,0-32.35,0C377.24,127.7,377.24,136.12,377.24,144.97z"/>
	<path d="M748.01,201.62c-6.09,0-12,0-18.11,0c-0.32-2.09-0.5-4.23-0.99-6.29c-1.32-5.49-4.98-8.07-10.54-7.59
		c-5.86,0.5-9.01,3.55-9.51,9.21c-0.6,6.78,1.52,10.63,7.77,13.53c4.95,2.3,9.99,4.37,15,6.55c0.78,0.34,1.54,0.7,2.32,1.03
		c16.43,6.93,20.43,19.21,14.92,37.28c-2.4,7.89-8.92,11.93-16.5,14.06c-8.57,2.41-17.31,2.55-25.99,0.52
		c-10.32-2.42-16.4-9.32-17.56-19.88c-0.34-3.14-0.05-6.35-0.05-9.66c6.13,0,12.29,0,18.48,0c0.24,2.84,0.32,5.56,0.73,8.23
		c0.87,5.65,4.8,8.66,11.28,8.87c5.73,0.18,10.36-3.18,11.5-8.37c1.44-6.51-0.74-11.87-6.65-15.01c-3.55-1.88-7.48-3.03-11.18-4.65
		c-3.96-1.73-8-3.34-11.73-5.48c-6.51-3.76-10.34-9.59-11.15-17.07c-0.41-3.81-0.47-7.76,0.06-11.55
		c1.64-11.67,8.24-18.39,19.89-20.85c6.75-1.43,13.5-1.22,20.16,0.43c10.85,2.7,17.12,10.36,17.84,21.58
		C748.1,198.09,748.01,199.69,748.01,201.62z"/>
	<path d="M619.7,240.37c6.57,0,12.74,0,19.03,0c0.24,2.65,0.36,5.26,0.74,7.84c0.94,6.26,5.51,9.63,12.35,9.25
		c6.42-0.36,10.54-4.52,10.8-10.76c0.25-5.88-2.04-10.27-7.38-12.83c-2.96-1.42-6.06-2.55-9.1-3.8c-3.22-1.32-6.49-2.51-9.65-3.96
		c-10.92-5.03-15.83-13.71-15.19-25.6c0.15-2.72,0.29-5.48,0.88-8.12c2.18-9.65,8.62-15.21,17.91-17.57
		c7.53-1.91,15.15-1.71,22.63,0.4c11.83,3.35,18.45,13.93,16.54,26.39c-5.95,0-11.92,0-17.71,0c-0.55-2.75-0.82-5.38-1.63-7.84
		c-1.48-4.5-5.21-6.54-10.27-6c-5.22,0.56-8.28,3.18-9.06,7.77c-1.28,7.53,1.06,12.05,8.05,15.2c5.23,2.36,10.55,4.5,15.78,6.88
		c2.65,1.2,5.26,2.54,7.71,4.1c5.88,3.75,9.83,9.01,10.08,16.1c0.18,5.21,0,10.62-1.21,15.65c-2.15,8.92-8.89,13.69-17.38,16.01
		c-8.5,2.33-17.15,2.44-25.73,0.46c-10.24-2.36-16.33-9.34-17.58-19.9C619.96,246.88,619.91,243.7,619.7,240.37z"/>
	<path d="M560.36,269.56c0-31.45,0-62.62,0-93.95c17.52,0,34.92,0,52.44,0c0,5.1,0,10.07,0,15.42c-11.05,0-22.1,0-33.33,0
		c0,7.5,0,14.61,0,22.02c10.37,0,20.69,0,31.25,0c0,5.4,0,10.52,0,15.88c-10.43,0-20.76,0-31.26,0c0,8.39,0,16.53,0,25.02
		c11.51,0,22.95,0,34.54,0c0,5.38,0,10.42,0,15.61C596.11,269.56,578.35,269.56,560.36,269.56z"/>
	<path d="M455.82,191.03c0,26.41,0,52.31,0,78.44c-6.31,0-12.47,0-19.03,0c0-25.98,0-52.01,0-78.31c-7.04,0-13.69,0-20.52,0
		c0-5.31,0-10.35,0-15.56c19.88,0,39.73,0,59.82,0c0,5.05,0,10.07,0,15.42C469.45,191.03,462.81,191.03,455.82,191.03z"/>
	<path d="M594.57,160.96c-6.6,0-12.96,0-19.48,0c0-32.33,0-64.51,0-96.91c6.46,0,12.88,0,19.48,0
		C594.57,96.34,594.57,128.51,594.57,160.96z"/>
	<path d="M388.1,175.63c6.25,0,12.43,0,18.77,0c0,31.3,0,62.52,0,93.91c-6.24,0-12.41,0-18.77,0
		C388.1,238.26,388.1,207.04,388.1,175.63z"/>
	<path fill="white" d="M168.73,203.29c-10.25-0.27-18.91-1.99-26.49-7.38c-10.14-7.21-13.64-18.68-9.29-30.32
		c3.13-8.37,8.04-15.47,15-21.12c11.91-9.66,25.03-9.86,36.94-0.24c10.01,8.08,16.38,18.51,18.06,31.37
		c1.16,8.89-2.82,15.69-9.97,20.73C185.35,201.69,176.6,203.09,168.73,203.29z"/>
</g>
</svg>
