<?xml version="1.0" encoding="utf-8"?>
<!-- Generator: Adobe Illustrator 27.5.0, SVG Export Plug-In . SVG Version: 6.00 Build 0)  -->
<svg version="1.1" id="Layer_1" xmlns="http://www.w3.org/2000/svg" xmlns:xlink="http://www.w3.org/1999/xlink" x="0px" y="0px"
	 viewBox="0 0 747.8 345" style="enable-background:new 0 0 747.8 345;" xml:space="preserve">
<style type="text/css">
	.st0{fill:#FFFFFF;}
</style>
<g>
	<rect y="63.6" width="206" height="206"/>
	<path class="st0" d="M185,180.5c-0.3,15.2-3.7,29.3-12.6,41.8c-11.7,16.4-28,24.4-47.8,25.2c-19.8,0.8-38.4-4.4-55.8-13.5
		c-12.9-6.7-24.1-15.4-32.9-27c-17.1-22.5-17.8-46.2-4.1-70.3c14.6-25.5,37.1-40.9,65.8-46.2c21.2-3.9,39.8,3.1,55.7,17.3
		c17,15.2,26.2,34.7,30,56.9C184.2,169.9,184.4,175.2,185,180.5z"/>
	<path d="M164.3,168.7c0,32.1-23.8,55.9-56.5,56.4c-13.7,0.2-26.7-2.5-38.6-9.7c-19.7-11.9-27.8-31-21.6-53.1
		c7.2-25.6,23.8-43.3,48.8-52.4c19.9-7.2,41.4,0.5,54.7,18.7C159.5,140,164.3,154.6,164.3,168.7z"/>
	<path d="M259.7,269.6c-7.1,0-14.1,0-21.4,0c-5.7-31.2-11.4-62.4-17.1-93.9c6.2,0,12.1,0,18.4,0c3.4,22.7,6.8,45.4,10.2,68.2
		c0.2,0,0.3,0,0.5,0.1c3.6-22.7,7.2-45.3,10.9-68.2c6.1,0,12.2,0,18.4,0c3.6,22.8,7.3,45.5,10.9,68.3c0.1,0,0.3,0,0.5,0
		c3.4-22.7,6.8-45.4,10.2-68.3c6,0,11.9,0,18.3,0c-0.7,4-1.3,7.9-2,11.9c-4.8,26.6-9.7,53.1-14.5,79.7c-0.3,1.8-0.8,2.6-2.8,2.5
		c-6.3-0.1-12.6,0-19.1,0c-3.5-22.5-6.9-44.8-10.4-67.1c-0.1,0-0.3,0-0.5,0C266.6,224.8,263.2,247,259.7,269.6z"/>
	<path d="M613.4,161.1c-7.1,0-13.9,0.1-20.8-0.1c-0.8,0-2-1.2-2.3-2.2c-5.2-14.6-10.3-29.3-15.5-43.9c-2.4-6.8-4.8-13.6-7.7-20.4
		c0,22,0,44.1,0,66.3c-6.2,0-12,0-18,0c0-32.3,0-64.5,0-97.1c4.1,0,8.1,0,12.1,0c3.5,0,7.7-1,10.1,0.7c2.3,1.6,2.6,6,3.8,9.2
		c6.3,17.6,12.6,35.2,18.8,52.9c0.3,0.8,0.6,1.7,1.5,2.4c0-21.6,0-43.2,0-64.9c6.2,0,11.9,0,17.9,0
		C613.4,96.3,613.4,128.5,613.4,161.1z"/>
	<path d="M221.9,63.8c6.9,0,13.4,0,20,0c6.1,0.1,12.3-0.1,18.3,0.4c15,1.3,22.3,10,21.8,25c-0.4,9.8-4.3,17-13.7,20.3
		c2.7,1.2,5.6,2.2,8,3.8c6.4,4.4,8.4,11,8.5,18.4c0.1,8.2-1.3,16-7.7,21.9c-4.9,4.6-10.9,6.9-17.4,7.1c-12.5,0.3-25,0.1-37.8,0.1
		C221.9,128.7,221.9,96.5,221.9,63.8z M241.6,117.8c0,9.6,0,19,0,29.2c4.7-0.4,9.2-0.4,13.5-1.2c5.4-1,8.5-4.6,9-10.1
		c0.2-2.2,0.3-4.5,0-6.7c-0.8-6.4-4.2-10.1-10.6-10.9C249.7,117.3,245.8,117.8,241.6,117.8z M241.6,104.2c4.7-0.6,9.2-0.8,13.6-1.7
		c3.7-0.8,6.1-3.6,6.6-7.3c0.4-2.8,0.4-5.8,0-8.7c-0.5-3.9-3.1-6.6-7-7.2c-4.3-0.7-8.7-0.8-13.1-1.1
		C241.6,87,241.6,95.3,241.6,104.2z"/>
	<path d="M469.3,237.9c0-20.7,0-41.4,0-62.3c5.9,0,11.5,0,17.3,0c0,31.2,0,62.5,0,94c-6.8,0-13.5,0.1-20.1-0.1
		c-0.8,0-1.8-1.4-2.1-2.3c-6.4-17.9-12.7-35.8-19-53.7c-1-2.8-2-5.6-3.6-8.3c0,21.4,0,42.8,0,64.3c-6,0-11.5,0-17.4,0
		c0-31.3,0-62.6,0-94.1c7,0,14-0.1,20.9,0.1c0.6,0,1.4,1.3,1.7,2.2c7,19.4,13.9,38.8,20.8,58.2c0.2,0.7,0.5,1.4,0.8,2.1
		C468.9,238,469.1,238,469.3,237.9z"/>
	<path d="M485.4,113c0.4,0.3,0.5,0.4,0.7,0.5c8.7,2.3,12.2,6.2,12.9,15.2c0.6,6.5,0.7,13,1.1,19.4c0.2,4.6-0.2,9.3,3.9,13.1
		c-2.3,0-4.6,0-6.9,0c-3.7,0-7.3,0-11,0c-3.8,0-4.7-0.5-5-4.4c-0.6-7.6-0.8-15.2-1.2-22.8c-0.1-1.7-0.2-3.4-0.5-5
		c-1.2-6-4.2-8.7-10.2-8.8c-3.2-0.1-6.4,0-9.6,0c-0.4,0-0.7,0.2-1.3,0.3c0,13.5,0,26.9,0,40.5c-6.7,0-13.1,0-19.7,0
		c0-32.2,0-64.4,0-96.9c1.1,0,2.1-0.1,3.1-0.1c11.1,0,22.2,0,33.4,0c2.3,0,4.7,0.2,7,0.7c11.4,2.2,17.9,9.8,18.3,21.4
		c0.1,2.8,0.2,5.7-0.2,8.4C498.5,104.3,495.6,108,485.4,113z M458.1,106.2c2.9,0,5.5,0,8.1,0c9.6-0.1,13.8-4.1,14.4-13.6
		c0.5-7.9-3.1-13.1-10.4-13.9c-4-0.5-8-0.1-12.1-0.1C458.1,87.8,458.1,96.8,458.1,106.2z"/>
	<path d="M689.1,92.8c-6,0-11.8,0.1-17.6-0.1c-0.5,0-1.2-1.3-1.5-2.2c-1-2.9-1.3-6.2-2.8-8.8c-4-7.2-13.4-7.2-17,0.2
		c-2.1,4.4-3.3,9.5-3.7,14.3c-1.3,13.2-1.4,26.5,1.3,39.7c0.5,2.6,1.5,5.3,2.9,7.6c3.2,5.4,9.2,6.5,14.3,2.8
		c3.2-2.3,5.2-5.4,5.7-9.1c0.6-4.5,0.5-9.2,0.7-14.1c-4.6,0-8.7,0-13,0c0-5,0-9.6,0-14.4c10.5,0,21,0,31.6,0c0,17.4,0,34.6,0,52.1
		c-4.7,0-9.4,0-14.3,0c0-2.6,0-5.2,0-7.8c-0.3-0.2-0.7-0.5-1-0.7c0,0.4,0,0.9-0.2,1.2c-7.4,12.7-32.2,11.1-39.6,1.7
		c-4.2-5.3-6.4-11.4-7.2-17.8c-2.2-16.7-2.7-33.4,0.5-50.1c1.4-7.2,4.1-13.9,9.9-18.9c8.1-6.8,17.7-7.2,27.5-6.1
		c8.4,0.9,15.4,4.2,19.6,12C688.1,80.1,689,86.2,689.1,92.8z"/>
	<path d="M380.9,140.7c-1.5,6.9-3,13.5-4.5,20.3c-6.8,0-13.5,0-20.5,0c1.2-4.8,2.4-9.4,3.6-14c7.1-26.9,14.3-53.8,21.4-80.7
		c0.5-1.9,1.2-2.5,3.2-2.5c6.5,0.2,13,0.1,19.5,0c1.5,0,2.4,0.2,2.8,1.9c8.2,31.3,16.5,62.6,24.8,93.8c0.1,0.4,0.1,0.7,0.2,1.3
		c-6.8,0-13.5,0-20.4,0c-1.4-6.1-2.6-12.1-4.1-18.1c-0.2-0.8-1.2-2-1.9-2C397,140.6,389,140.7,380.9,140.7z M393.9,81.8
		c-0.2,0-0.3,0-0.5,0c-3,14.1-6,28.2-9.1,42.3c6.4,0,12.5,0,18.7,0C400,109.8,397,95.8,393.9,81.8z"/>
	<path d="M317.1,145c12,0,23.8,0,35.7,0c0,5.4,0,10.5,0,15.9c-18.5,0-37,0-55.6,0c0-32.2,0-64.4,0-96.8c18,0,36,0,54.2,0
		c0,5.3,0,10.6,0,16.1c-11.4,0-22.8,0-34.4,0c0,7.6,0,15,0,22.6c10.8,0,21.5,0,32.4,0c0,5.5,0,10.7,0,16.2c-10.8,0-21.5,0-32.4,0
		C317.1,127.7,317.1,136.1,317.1,145z"/>
	<path d="M687.9,201.6c-6.1,0-12,0-18.1,0c-0.3-2.1-0.5-4.2-1-6.3c-1.3-5.5-5-8.1-10.5-7.6c-5.9,0.5-9,3.6-9.5,9.2
		c-0.6,6.8,1.5,10.6,7.8,13.5c5,2.3,10,4.4,15,6.6c0.8,0.3,1.5,0.7,2.3,1c16.4,6.9,20.4,19.2,14.9,37.3c-2.4,7.9-8.9,11.9-16.5,14.1
		c-8.6,2.4-17.3,2.5-26,0.5c-10.3-2.4-16.4-9.3-17.6-19.9c-0.3-3.1,0-6.4,0-9.7c6.1,0,12.3,0,18.5,0c0.2,2.8,0.3,5.6,0.7,8.2
		c0.9,5.6,4.8,8.7,11.3,8.9c5.7,0.2,10.4-3.2,11.5-8.4c1.4-6.5-0.7-11.9-6.7-15c-3.5-1.9-7.5-3-11.2-4.6c-4-1.7-8-3.3-11.7-5.5
		c-6.5-3.8-10.3-9.6-11.2-17.1c-0.4-3.8-0.5-7.8,0.1-11.6c1.6-11.7,8.2-18.4,19.9-20.9c6.8-1.4,13.5-1.2,20.2,0.4
		c10.8,2.7,17.1,10.4,17.8,21.6C687.9,198.1,687.9,199.7,687.9,201.6z"/>
	<path d="M559.5,240.4c6.6,0,12.7,0,19,0c0.2,2.6,0.4,5.3,0.7,7.8c0.9,6.3,5.5,9.6,12.3,9.2c6.4-0.4,10.5-4.5,10.8-10.8
		c0.2-5.9-2-10.3-7.4-12.8c-3-1.4-6.1-2.6-9.1-3.8c-3.2-1.3-6.5-2.5-9.7-4c-10.9-5-15.8-13.7-15.2-25.6c0.2-2.7,0.3-5.5,0.9-8.1
		c2.2-9.6,8.6-15.2,17.9-17.6c7.5-1.9,15.2-1.7,22.6,0.4c11.8,3.4,18.5,13.9,16.5,26.4c-6,0-11.9,0-17.7,0c-0.5-2.8-0.8-5.4-1.6-7.8
		c-1.5-4.5-5.2-6.5-10.3-6c-5.2,0.6-8.3,3.2-9.1,7.8c-1.3,7.5,1.1,12.1,8,15.2c5.2,2.4,10.5,4.5,15.8,6.9c2.7,1.2,5.3,2.5,7.7,4.1
		c5.9,3.8,9.8,9,10.1,16.1c0.2,5.2,0,10.6-1.2,15.6c-2.2,8.9-8.9,13.7-17.4,16c-8.5,2.3-17.2,2.4-25.7,0.5
		c-10.2-2.4-16.3-9.3-17.6-19.9C559.8,246.9,559.8,243.7,559.5,240.4z"/>
	<path d="M500.2,269.6c0-31.4,0-62.6,0-93.9c17.5,0,34.9,0,52.4,0c0,5.1,0,10.1,0,15.4c-11,0-22.1,0-33.3,0c0,7.5,0,14.6,0,22
		c10.4,0,20.7,0,31.2,0c0,5.4,0,10.5,0,15.9c-10.4,0-20.8,0-31.3,0c0,8.4,0,16.5,0,25c11.5,0,23,0,34.5,0c0,5.4,0,10.4,0,15.6
		C536,269.6,518.2,269.6,500.2,269.6z"/>
	<path d="M395.7,191c0,26.4,0,52.3,0,78.4c-6.3,0-12.5,0-19,0c0-26,0-52,0-78.3c-7,0-13.7,0-20.5,0c0-5.3,0-10.4,0-15.6
		c19.9,0,39.7,0,59.8,0c0,5.1,0,10.1,0,15.4C409.3,191,402.7,191,395.7,191z"/>
	<path d="M534.4,161c-6.6,0-13,0-19.5,0c0-32.3,0-64.5,0-96.9c6.5,0,12.9,0,19.5,0C534.4,96.3,534.4,128.5,534.4,161z"/>
	<path d="M328,175.6c6.2,0,12.4,0,18.8,0c0,31.3,0,62.5,0,93.9c-6.2,0-12.4,0-18.8,0C328,238.3,328,207,328,175.6z"/>
	<path class="st0" d="M108.6,203.3c-10.2-0.3-18.9-2-26.5-7.4c-10.1-7.2-13.6-18.7-9.3-30.3c3.1-8.4,8-15.5,15-21.1
		c11.9-9.7,25-9.9,36.9-0.2c10,8.1,16.4,18.5,18.1,31.4c1.2,8.9-2.8,15.7-10,20.7C125.2,201.7,116.5,203.1,108.6,203.3z"/>
</g>
</svg>
