<?xml version="1.0" encoding="utf-8"?>
<!-- Generator: Adobe Illustrator 27.5.0, SVG Export Plug-In . SVG Version: 6.00 Build 0)  -->
<svg version="1.1" id="Layer_1" xmlns="http://www.w3.org/2000/svg" xmlns:xlink="http://www.w3.org/1999/xlink" x="0px" y="0px"
	 viewBox="0 0 878 181" style="enable-background:new 0 0 878 181;" xml:space="preserve">
<g>
	<path d="M0.15,0v180.61h180.61V0H0.15z M151.33,139.08c-10.23,14.34-24.54,21.4-41.92,22.11c-17.38,0.71-33.63-3.88-48.96-11.83
		c-11.29-5.85-21.16-13.53-28.9-23.71c-14.97-19.7-15.64-40.55-3.58-61.6c12.8-22.35,32.49-35.89,57.7-40.53
		c18.6-3.43,34.94,2.74,48.85,15.18c14.91,13.32,22.98,30.41,26.32,49.87c0.79,4.58,1.02,9.25,1.5,13.88
		C162.09,115.73,159.11,128.17,151.33,139.08z"/>
	<path d="M84.7,40.58C62.78,48.52,48.26,64.05,41.94,86.5c-5.45,19.36,1.73,36.13,18.97,46.56c10.37,6.27,21.77,8.64,33.8,8.47
		c28.61-0.4,49.52-21.25,49.51-49.43c-0.01-12.38-4.21-25.17-11.56-35.17C120.99,41.05,102.15,34.26,84.7,40.58z M116.61,116.35
		c-6.68,4.7-14.35,5.93-21.26,6.1c-8.99-0.23-16.58-1.74-23.23-6.47c-8.89-6.32-11.96-16.38-8.15-26.59
		c2.74-7.34,7.05-13.57,13.15-18.52c10.45-8.47,21.95-8.64,32.39-0.21c8.78,7.09,14.36,16.23,15.83,27.5
		C126.37,105.97,122.89,111.93,116.61,116.35z"/>
</g>
<g>
	<path d="M195.62,28.44h23.48v1.74L212.43,31c-0.27,7.22-0.37,17.18-0.37,25.49v4.02c0,8.68,0.09,19.1,0.37,26.31h17.54l5.76-15.53
		h1.74l-1.1,17.82h-40.75v-1.74l6.76-0.82c0.27-7.31,0.27-17.54,0.27-26.04v-4.02c0-8.31,0-18.27-0.27-25.49l-6.76-0.82V28.44z"/>
	<path d="M242.4,87.37l5.76-0.82c0.18-4.75,0.18-11.7,0.18-16.72v-3.47c0-5.39,0-8.68-0.18-12.61l-6.12-1.55v-1.46l14.71-4.39
		l0.91,0.82l-0.37,11.79v10.87c0,5.03,0.09,12.06,0.27,16.81l5.3,0.73v1.74H242.4V87.37z M247.15,32.55c0-3.29,2.47-5.48,5.57-5.48
		s5.57,2.19,5.57,5.48s-2.47,5.48-5.57,5.48S247.15,35.84,247.15,32.55z"/>
	<path d="M267.89,87.37l5.76-0.82c0.18-4.75,0.18-11.7,0.18-16.72V50h-6.3v-1.74l6.49-1.1v-0.18c0.55-10.96,3.38-17.36,7.95-21.84
		c3.2-3.01,7.31-4.39,11.6-4.39c3.75,0,7.77,1.64,8.68,4.93c-0.18,2.47-2.28,3.93-4.84,3.93c-2.56,0-4.39-1.1-6.76-4.02l-2.1-2.19
		c-0.64,0.46-1.37,1.1-2.01,2.1c-2.92,4.48-4.11,11.06-3.75,22.02h10.42V50h-10.42v19.83c0,4.93,0.09,11.88,0.27,16.63l7.77,0.91
		v1.74h-22.93V87.37z"/>
	<path d="M298.32,69.1c0-14.25,8.95-22.75,19.1-22.75c9.32,0,15.9,6.3,15.9,15.81c0,2.01-0.18,3.11-0.55,4.39h-25.13v0.73
		c0,11.06,5.66,17.54,13.34,17.54c4.93,0,8.5-2.19,11.24-5.57l1.28,0.91c-3.29,7.04-9.05,10.14-15.9,10.14
		C306.82,90.29,298.32,82.53,298.32,69.1z M307.73,64.44h11.97c4.2,0,5.57-1.37,5.57-5.39c0-6.85-3.11-10.51-7.77-10.51
		S308.37,52.74,307.73,64.44z"/>
	<path d="M358.99,68.46c0-13.8,8.77-22.11,19.92-22.11c11.51,0,19.92,7.95,19.92,21.84c0,13.8-8.95,22.11-19.92,22.11
		C367.31,90.29,358.99,82.25,358.99,68.46z M389.14,68.18c0-13.8-3.84-19.74-10.23-19.74s-10.23,6.12-10.23,20.01
		c0,13.89,3.84,19.74,10.23,19.74S389.14,82.07,389.14,68.18z"/>
	<path d="M405.13,87.37l5.76-0.82c0.18-4.75,0.18-11.7,0.18-16.72V50h-6.3v-1.74l6.49-1.1v-0.18c0.55-10.96,3.38-17.36,7.95-21.84
		c3.2-3.01,7.31-4.39,11.6-4.39c3.75,0,7.77,1.64,8.68,4.93c-0.18,2.47-2.28,3.93-4.84,3.93c-2.56,0-4.39-1.1-6.76-4.02l-2.1-2.19
		c-0.64,0.46-1.37,1.1-2.01,2.1c-2.92,4.48-4.11,11.06-3.75,22.02h10.42V50h-10.42v19.83c0,4.93,0.09,11.88,0.27,16.63l7.77,0.91
		v1.74h-22.93V87.37z"/>
	<path d="M453.47,28.44h23.48v1.74L470.28,31c-0.27,7.22-0.37,17.18-0.37,25.49v4.02c0,8.68,0.09,19.1,0.37,26.31h17.54l5.76-15.53
		h1.74l-1.1,17.82h-40.75v-1.74l6.76-0.82c0.27-7.31,0.27-17.54,0.27-26.04v-4.02c0-8.31,0-18.27-0.27-25.49l-6.76-0.82V28.44z"/>
	<path d="M523.64,83.81c-3.65,4.75-7.49,6.49-12.24,6.49c-6.12,0-10.78-3.65-10.78-10.32c0-5.67,3.11-10.14,14.53-13.8
		c2.01-0.73,4.93-1.55,8.41-2.38v-3.2c0-8.95-2.1-11.79-7.68-11.79c-1.28,0-2.38,0.18-3.56,0.55l-1,5.76
		c-0.46,3.93-2.56,5.57-5.03,5.57s-3.65-1.37-4.11-3.84c1.01-6.21,7.58-10.51,16.81-10.51c9.32,0,13.52,4.66,13.52,15.26v20.38
		c0,2.92,0.91,3.93,2.47,3.93c1.37,0,2.19-0.64,3.65-2.28l1.1,0.91c-1.37,3.29-3.93,5.57-8.04,5.57
		C526.93,90.11,524.28,87.83,523.64,83.81z M515.79,85c2.74,0,4.75-0.55,7.77-3.02V65.62c-2.83,0.91-4.93,1.65-6.12,2.19
		c-6.21,2.74-8.04,6.03-8.04,10.05C509.39,82.89,512.13,85,515.79,85z"/>
	<path d="M591.81,47.53h13.34v1.74l-4.48,0.64l-13.25,39.47h-3.84l-10.51-31.07l-10.6,31.07h-3.84l-13.71-39.47l-4.11-0.64v-1.74
		h20.01v1.64l-5.76,0.91l8.77,28.23l9.32-28.42l-6.03-0.73v-1.64h18.27v1.64l-6.03,0.91l9.41,28.23L597.93,50l-6.12-0.82V47.53z"/>
	<path d="M650.1,83.81c-3.65,4.75-7.49,6.49-12.24,6.49c-6.12,0-10.78-3.65-10.78-10.32c0-5.67,3.11-10.14,14.53-13.8
		c2.01-0.73,4.93-1.55,8.41-2.38v-3.2c0-8.95-2.1-11.79-7.68-11.79c-1.28,0-2.38,0.18-3.56,0.55l-1,5.76
		c-0.46,3.93-2.56,5.57-5.03,5.57s-3.65-1.37-4.11-3.84c1.01-6.21,7.58-10.51,16.81-10.51c9.32,0,13.52,4.66,13.52,15.26v20.38
		c0,2.92,0.91,3.93,2.47,3.93c1.37,0,2.19-0.64,3.65-2.28l1.1,0.91c-1.37,3.29-3.93,5.57-8.04,5.57
		C653.39,90.11,650.74,87.83,650.1,83.81z M642.25,85c2.74,0,4.75-0.55,7.77-3.02V65.62c-2.83,0.91-4.93,1.65-6.12,2.19
		c-6.21,2.74-8.04,6.03-8.04,10.05C635.85,82.89,638.59,85,642.25,85z"/>
	<path d="M670.85,86.82l0.55-11.33h1.46l4.11,11.79c2.01,0.73,4.02,1.1,6.85,1.1c5.57,0,8.68-3.2,8.68-7.58
		c0-4.66-3.93-6.58-8.41-8.5l-2.56-1.1c-5.21-2.19-10.42-5.03-10.42-12.24c0-7.13,4.93-12.61,14.71-12.61c4.57,0,8.04,1.1,11.6,3.2
		l-0.37,10.6h-1.55l-3.93-10.69c-1.64-0.82-3.47-1.1-5.76-1.1c-5.12,0-8.04,2.83-8.04,6.85c0,4.57,3.84,6.58,8.31,8.5l2.56,1.1
		c5.39,2.28,10.87,5.03,10.87,12.43c0,7.95-5.57,13.07-15.72,13.07C678.7,90.29,674.96,89.11,670.85,86.82z"/>
	<path d="M722.38,87.37l5.94-0.82l18.73-58.57h4.48l19.1,58.48l5.85,0.91v1.74h-23.48v-1.74l7.31-0.91l-5.57-18.27h-17.82
		l-5.66,18.37l7.67,0.82v1.74h-16.54V87.37z M754.09,65.9l-8.13-26.59l-8.31,26.59H754.09z"/>
	<path d="M780.31,87.37l5.76-0.82c0.18-4.75,0.18-11.7,0.18-16.72v-3.47c0-5.39,0-8.68-0.18-12.61l-6.12-1.55v-1.46l14.35-4.39
		l0.91,0.82v11.79c3.02-8.41,7.4-12.61,12.7-12.61c3.2,0,5.57,1.46,6.3,4.84c-0.27,3.56-2.74,5.39-5.57,5.39
		c-2.38,0-4.2-1-5.94-3.56l-0.82-1.1c-2.56,2.19-5.21,6.12-6.67,11.06v6.85c0,5.03,0.09,11.97,0.27,16.72l6.4,0.82v1.74h-21.56
		V87.37z"/>
	<path d="M821.89,80.06V69.65L822.07,50h-6.21v-1.74l6.67-1.19l5.76-13.43h3.02l-0.37,13.89h10.6V50h-10.6v29.7
		c0,4.57,2.01,6.21,5.03,6.21c2.38,0,4.2-1,5.85-2.83l1.19,0.91c-2.01,4.02-5.02,6.3-10.51,6.3
		C825.91,90.29,821.89,87.01,821.89,80.06z"/>
</g>
<g>
	<path d="M197.53,153.9l4.8-0.46l19.92-37.24h2.05l5.21,37.24l5.68,0.46l-0.35,1.62h-14.94l0.35-1.62l5.98-0.41l-1.58-12.18h-13.82
		l-6.27,12.12l5.21,0.46l-0.35,1.62h-12.18L197.53,153.9z M224.42,139.52l-2.58-19.37l-10.08,19.37H224.42z"/>
	<path d="M244.16,155.52l5.33-25.06l-6.62-0.23l0.18-1.16l8.85-1.68l0.76,0.58l-1.29,6.21c4.16-4.06,9.26-6.79,12.48-6.79
		c2.52,0,3.81,1.39,3.81,3.83c0,1.8-0.53,3.54-1,5.68l-2.87,12.06c-0.35,1.28-0.7,2.61-0.7,3.48c0,0.93,0.53,1.33,1.46,1.33
		c1.82,0,4.1-1.8,6.44-4.7l0.94,0.7c-2.4,3.48-5.45,6.5-9.02,6.5c-1.58,0-2.64-0.99-2.64-2.44c0-1.45,0.29-2.32,0.76-4.35
		l2.87-11.95c0.41-1.91,0.88-3.77,0.88-5.16c0-1.86-0.82-2.55-2.34-2.55c-2.69,0-6.15,1.68-11.42,6.15l-1.64,7.48
		c-0.94,4-1.7,8-2.46,12.06l-2.28,0.35L244.16,155.52z"/>
	<path d="M290.43,153.9l4.8-0.46l19.92-37.24h2.05l5.21,37.24l5.68,0.46l-0.35,1.62h-14.94l0.35-1.62l5.98-0.41l-1.58-12.18h-13.82
		l-6.27,12.12l5.21,0.46l-0.35,1.62h-12.18L290.43,153.9z M317.32,139.52l-2.58-19.37l-10.08,19.37H317.32z"/>
	<path d="M342.39,130.47l-6.62-0.23l0.18-1.16l8.61-1.68l0.76,0.58l-1.58,8.58c2.52-4.7,5.86-9.16,9.31-9.16
		c1.82,0,3.1,0.46,3.69,1.45c-0.06,1.28-0.82,2.2-2.17,2.2c-1.17,0-2.4-0.64-3.57-1.51c-2.75,1.91-5.33,5.45-7.85,9.98l-0.88,3.94
		c-0.88,4-1.7,8-2.46,12.06l-2.28,0.35l-0.47-0.35L342.39,130.47z"/>
	<path d="M360.02,145.95c0-9.74,7.5-18.56,14.94-18.56c3.05,0,5.27,1.86,5.8,3.71c-0.06,0.87-0.88,1.39-1.58,1.39
		c-0.82,0-1.41-0.46-2.34-1.39l-2.34-2.32c-6.56,0.99-11.77,9.05-11.77,16.59c0,5.68,2.69,8.47,6.97,8.47
		c3.28,0,5.92-2.03,8.03-4.76l0.88,0.7c-2.46,3.89-5.97,6.5-10.08,6.5C363.89,156.28,360.02,153.09,360.02,145.95z"/>
	<path d="M386.56,155.52l5.98-29.12c0.76-3.71,1.46-7.37,2.05-11.02l-6.44-0.23l0.18-1.16l9.02-1.68l0.59,0.52l-4.39,21.34
		c4.22-4.06,9.26-6.79,12.42-6.79c2.58,0,3.81,1.39,3.81,3.83c0,1.8-0.47,3.54-1,5.68l-2.87,12.06c-0.29,1.28-0.7,2.61-0.7,3.48
		c0,0.93,0.59,1.33,1.52,1.33c1.76,0,4.1-1.8,6.38-4.7l0.94,0.7c-2.4,3.48-5.45,6.5-8.96,6.5c-1.58,0-2.69-0.99-2.69-2.44
		c0-1.45,0.35-2.32,0.82-4.35l2.81-11.95c0.47-1.91,0.94-3.77,0.94-5.16c0-1.86-0.88-2.55-2.34-2.55c-2.75,0-6.21,1.68-11.42,6.09
		l-1.58,7.54c-0.82,4-1.58,8.06-2.34,12.06l-2.28,0.35L386.56,155.52z"/>
	<path d="M423.58,149.49l4.04-19.02l-6.62-0.23l0.18-1.16l8.9-1.68l0.76,0.58l-4.57,21c-0.23,1.22-0.59,2.55-0.59,3.42
		c0,0.99,0.59,1.39,1.52,1.39c1.76,0,3.98-1.74,6.39-4.7l0.94,0.7c-2.52,3.48-5.33,6.5-8.9,6.5c-1.46,0-2.75-0.99-2.75-2.61
		C422.88,152.39,423.11,151.52,423.58,149.49z M429.15,115.97c0-1.57,1.23-2.67,2.4-2.67c1.29,0,2.23,0.87,2.23,2.2
		c0,1.57-1.23,2.67-2.46,2.67C430.08,118.17,429.15,117.36,429.15,115.97z"/>
	<path d="M446.78,133.14c-0.41-2.67-1-3.25-2.05-3.25c-1.23,0-2.46,0.75-4.51,4.35l-1-0.58c2.05-4.41,4.16-6.26,6.68-6.26
		c2.11,0,3.1,1.28,3.63,4.87c0.82,5.86,0.94,12.41,1,20.36c4.57-5.45,7.97-10.5,10.54-15.72c0.35-0.64,0.59-1.33,0.88-2.15
		l-0.23-1.62c-0.12-0.81-0.35-2.15-0.35-2.84c0-1.97,1-2.9,2.17-2.9c0.7,0,1.17,0.23,1.41,0.46c0.23,0.41,0.29,0.81,0.29,1.74
		c0,1.33-0.18,3.48-2.52,8.06c-2.69,5.1-7.15,11.6-13.3,18.21l-0.94,0.12l-0.29-0.23C447.95,145.95,447.71,139.4,446.78,133.14z"/>
	<path d="M471.26,145.9c0-9.16,7.09-18.5,15.11-18.5c3.16,0,5.45,1.57,5.45,4.76c0,4.87-5.68,10.03-18.04,13.4
		c0.12,5.68,2.75,8.29,6.85,8.29c3.51,0,6.15-1.97,8.32-4.76l0.88,0.7c-2.46,3.83-5.86,6.5-10.08,6.5
		C475.19,156.28,471.26,153.32,471.26,145.9z M473.84,144.1c10.43-2.96,15.58-7.37,15.58-11.66c0-2.2-1.52-3.42-3.75-3.42
		C480.4,129.02,474.31,136.5,473.84,144.1z"/>
	<path d="M517.42,135.63c0-2.96,2.46-5.1,5.15-5.1c2.46,0,4.16,1.8,4.16,4.06c0,3.13-2.4,5.16-5.1,5.16
		C519.06,139.75,517.42,137.83,517.42,135.63z"/>
	<path d="M552.57,154.02l8.61-0.52l6.85-33.29l-8.67,1.45l0.29-1.62l11.07-2.96l0.64,0.7l-1.99,8.35l-3.51,17.11
		c-0.7,3.36-1.35,6.84-2.05,10.27l8.9,0.52l-0.29,1.51h-20.21L552.57,154.02z"/>
	<path d="M607.57,136.44c-3.1,2.15-6.03,3.25-9.14,3.25c-6.09,0-9.96-4.06-9.96-9.98c0-7.08,5.68-12.7,12.54-12.7
		c6.44,0,10.02,4.81,10.02,12.58c0,13.51-8.49,22.74-25.19,26.68l-0.35-1.45C598.08,151.41,605.29,145.49,607.57,136.44z
		 M599.43,137.89c2.81,0,5.56-1.04,8.44-2.96c0.29-1.62,0.47-3.36,0.47-5.22c0-7.02-2.64-11.08-7.67-11.08
		c-5.15,0-9.43,4.7-9.43,10.67C591.23,134.64,594.33,137.89,599.43,137.89z"/>
	<path d="M640.73,136.44c-3.1,2.15-6.03,3.25-9.14,3.25c-6.09,0-9.96-4.06-9.96-9.98c0-7.08,5.68-12.7,12.54-12.7
		c6.44,0,10.02,4.81,10.02,12.58c0,13.51-8.49,22.74-25.19,26.68l-0.35-1.45C631.24,151.41,638.44,145.49,640.73,136.44z
		 M632.59,137.89c2.81,0,5.56-1.04,8.44-2.96c0.29-1.62,0.47-3.36,0.47-5.22c0-7.02-2.64-11.08-7.67-11.08
		c-5.15,0-9.43,4.7-9.43,10.67C624.38,134.64,627.49,137.89,632.59,137.89z"/>
	<path d="M673.88,136.44c-3.1,2.15-6.03,3.25-9.14,3.25c-6.09,0-9.96-4.06-9.96-9.98c0-7.08,5.68-12.7,12.54-12.7
		c6.44,0,10.02,4.81,10.02,12.58c0,13.51-8.49,22.74-25.19,26.68l-0.35-1.45C664.39,151.41,671.6,145.49,673.88,136.44z
		 M665.74,137.89c2.81,0,5.56-1.04,8.44-2.96c0.29-1.62,0.47-3.36,0.47-5.22c0-7.02-2.64-11.08-7.67-11.08
		c-5.15,0-9.43,4.7-9.43,10.67C657.54,134.64,660.64,137.89,665.74,137.89z"/>
	<path d="M683.96,139.69h25.19v2.38h-25.19V139.69z"/>
	<path d="M717.23,153.26l7.79-7.13c12.83-11.6,15.82-15.02,15.82-20.3c0-4.35-2.64-7.19-7.85-7.19c-2.64,0-5.27,0.93-6.91,3.02
		l-0.12,4.12c-0.12,2.15-0.88,2.9-2.05,2.9c-0.76,0-1.46-0.58-1.7-1.39c0.88-7.13,5.51-10.27,11.48-10.27c6.5,0,9.96,3.6,9.96,8.58
		c0,6.44-4.51,10.27-17.1,21.4l-6.56,5.8h20.09l-0.59,2.73h-22.73L717.23,153.26z"/>
	<path d="M751.38,143.81c0-14.5,7.32-26.74,16.52-26.74c5.39,0,9.37,4.06,9.37,12.35c0,14.73-7.5,26.74-16.46,26.74
		C755.36,156.16,751.38,151.93,751.38,143.81z M774.46,129.6c0-7.83-3.22-10.85-6.91-10.85c-7.03,0-13.36,11.48-13.36,24.82
		c0,7.83,2.99,10.96,6.97,10.96C768.31,154.54,774.46,143.29,774.46,129.6z"/>
	<path d="M783.54,153.26l7.79-7.13c12.83-11.6,15.82-15.02,15.82-20.3c0-4.35-2.64-7.19-7.85-7.19c-2.64,0-5.27,0.93-6.91,3.02
		l-0.12,4.12c-0.12,2.15-0.88,2.9-2.05,2.9c-0.76,0-1.46-0.58-1.7-1.39c0.88-7.13,5.51-10.27,11.48-10.27c6.5,0,9.96,3.6,9.96,8.58
		c0,6.44-4.51,10.27-17.1,21.4l-6.56,5.8h20.09l-0.59,2.73h-22.73L783.54,153.26z"/>
	<path d="M817.87,146.36c0.29-0.75,0.88-1.1,1.64-1.1c1.11,0.06,1.58,0.87,1.58,2.15l-0.18,4.47c1.87,2.03,4.39,2.78,7.15,2.78
		c5.45,0,9.9-3.19,9.9-9.8c0-5.1-3.16-7.66-8.67-7.66h-2.23l0.35-1.68h2.23c4.98,0,10.49-3.42,10.49-9.8c0-4.35-2.4-7.08-7.03-7.08
		c-2.46,0-4.92,0.81-6.68,2.38l-0.59,3.94c-0.12,1.33-0.76,2.09-1.82,2.09c-0.82,0-1.64-0.64-1.64-1.62
		c1.41-5.74,5.33-8.41,11.13-8.41c6.38,0,9.37,3.77,9.37,8.64c0,5.28-4.28,9.45-9.9,10.67c5.15,0.81,7.85,4.06,7.85,8.7
		c0,7.71-6.44,11.25-12.95,11.25C822.14,156.28,817.63,153.49,817.87,146.36z"/>
</g>
</svg>
