<?xml version="1.0" encoding="utf-8"?>
<!-- Generator: Adobe Illustrator 27.5.0, SVG Export Plug-In . SVG Version: 6.00 Build 0)  -->
<svg version="1.1" id="Layer_1" xmlns="http://www.w3.org/2000/svg" xmlns:xlink="http://www.w3.org/1999/xlink" x="0px" y="0px"
	 viewBox="0 0 962 206" style="enable-background:new 0 0 962 206;" xml:space="preserve">
<style type="text/css">
	.st0{font-family:'GeorgiaPro-Regular';}
	.st1{font-size:80.6363px;}
	.st2{letter-spacing:4;}
	.st3{font-family:'GeorgiaPro-CondLightItalic';}
	.st4{font-size:43.9433px;}
	.st5{letter-spacing:1.98;}
</style>
<g>
	<path d="M0.15-0.37v205.98h205.98V-0.37H0.15z M172.56,158.24c-11.66,16.35-27.99,24.41-47.81,25.22
		c-19.82,0.81-38.35-4.43-55.84-13.49c-12.87-6.67-24.13-15.43-32.95-27.04c-17.07-22.47-17.83-46.25-4.09-70.26
		c14.59-25.49,37.05-40.93,65.81-46.22c21.21-3.91,39.84,3.13,55.71,17.31c17,15.19,26.2,34.68,30.02,56.87
		c0.9,5.22,1.16,10.55,1.72,15.83C184.83,131.62,181.43,145.8,172.56,158.24z"/>
	<path d="M96.58,45.91c-25,9.06-41.56,26.77-48.77,52.37c-6.21,22.08,1.97,41.21,21.64,53.11c11.83,7.16,24.83,9.85,38.55,9.66
		c32.62-0.45,56.48-24.24,56.46-56.37c-0.01-14.12-4.8-28.71-13.18-40.11C137.96,46.45,116.48,38.7,96.58,45.91z M132.97,132.33
		c-7.62,5.37-16.37,6.76-24.24,6.96c-10.25-0.27-18.91-1.99-26.49-7.38c-10.14-7.21-13.64-18.68-9.29-30.32
		c3.13-8.37,8.04-15.47,15-21.12c11.91-9.66,25.03-9.86,36.94-0.24c10.01,8.08,16.38,18.51,18.06,31.37
		C144.1,120.49,140.13,127.29,132.97,132.33z"/>
</g>
<text transform="matrix(1 0 0 1 224.5103 106.2988)" class="st0 st1 st2">Life of Law as Art</text>
<text transform="matrix(1.01 0 0 1 224.3057 162.8057)" class="st3 st4 st5">A Law Student Archive • 1999–2023</text>
</svg>
