<?xml version="1.0" encoding="utf-8"?>
<!-- Generator: Adobe Illustrator 27.5.0, SVG Export Plug-In . SVG Version: 6.00 Build 0)  -->
<svg version="1.1" id="Layer_1" xmlns="http://www.w3.org/2000/svg" xmlns:xlink="http://www.w3.org/1999/xlink" x="0px" y="0px"
	 viewBox="0 0 931 181" style="enable-background:new 0 0 931 181;" xml:space="preserve">
<style type="text/css">
	.st0{font-family:'GeorgiaPro-Regular';}
	.st1{font-size:80.6363px;}
	.st2{letter-spacing:4;}
	.st3{font-family:'GeorgiaPro-CondItalic';}
	.st4{font-size:42.0182px;}
	.st5{letter-spacing:1.98;}
</style>
<g>
	<path d="M0.15,0v180.61h180.61V0H0.15z M151.33,139.08c-10.23,14.34-24.54,21.4-41.92,22.11c-17.38,0.71-33.63-3.88-48.96-11.83
		c-11.29-5.85-21.16-13.53-28.9-23.71c-14.97-19.7-15.64-40.55-3.58-61.6c12.8-22.35,32.49-35.89,57.7-40.53
		c18.6-3.43,34.94,2.74,48.85,15.18c14.91,13.32,22.98,30.41,26.32,49.87c0.79,4.58,1.02,9.25,1.5,13.88
		C162.09,115.73,159.11,128.17,151.33,139.08z"/>
	<path d="M84.7,40.58C62.78,48.52,48.26,64.05,41.94,86.5c-5.45,19.36,1.73,36.13,18.97,46.56c10.37,6.27,21.77,8.64,33.8,8.47
		c28.61-0.4,49.52-21.25,49.51-49.43c-0.01-12.38-4.21-25.17-11.56-35.17C120.99,41.05,102.15,34.26,84.7,40.58z M116.61,116.35
		c-6.68,4.7-14.35,5.93-21.26,6.1c-8.99-0.23-16.58-1.74-23.23-6.47c-8.89-6.32-11.96-16.38-8.15-26.59
		c2.74-7.34,7.05-13.57,13.15-18.52c10.45-8.47,21.95-8.64,32.39-0.21c8.78,7.09,14.36,16.23,15.83,27.5
		C126.37,105.97,122.89,111.93,116.61,116.35z"/>
</g>
<text transform="matrix(1 0 0 1 204.5103 91.2988)" class="st0 st1 st2">Life of Law as Art</text>
<text transform="matrix(1.01 0 0 1 204.1538 147.2822)" class="st3 st4 st5">A Law Student Archive • 1999–2023</text>
</svg>
