<?xml version="1.0" encoding="utf-8"?>
<!-- Generator: Adobe Illustrator 27.5.0, SVG Export Plug-In . SVG Version: 6.00 Build 0)  -->
<svg version="1.1" id="Layer_1" xmlns="http://www.w3.org/2000/svg" xmlns:xlink="http://www.w3.org/1999/xlink" x="0px" y="0px"
	 viewBox="0 0 931 181" style="enable-background:new 0 0 931 181;" xml:space="preserve">
<g>
	<path d="M0.15,0v180.61h180.61V0H0.15z M151.33,139.08c-10.23,14.34-24.54,21.4-41.92,22.11c-17.38,0.71-33.63-3.88-48.96-11.83
		c-11.29-5.85-21.16-13.53-28.9-23.71c-14.97-19.7-15.64-40.55-3.58-61.6c12.8-22.35,32.49-35.89,57.7-40.53
		c18.6-3.43,34.94,2.74,48.85,15.18c14.91,13.32,22.98,30.41,26.32,49.87c0.79,4.58,1.02,9.25,1.5,13.88
		C162.09,115.73,159.11,128.17,151.33,139.08z"/>
	<path d="M84.7,40.58C62.78,48.52,48.26,64.05,41.94,86.5c-5.45,19.36,1.73,36.13,18.97,46.56c10.37,6.27,21.77,8.64,33.8,8.47
		c28.61-0.4,49.52-21.25,49.51-49.43c-0.01-12.38-4.21-25.17-11.56-35.17C120.99,41.05,102.15,34.26,84.7,40.58z M116.61,116.35
		c-6.68,4.7-14.35,5.93-21.26,6.1c-8.99-0.23-16.58-1.74-23.23-6.47c-8.89-6.32-11.96-16.38-8.15-26.59
		c2.74-7.34,7.05-13.57,13.15-18.52c10.45-8.47,21.95-8.64,32.39-0.21c8.78,7.09,14.36,16.23,15.83,27.5
		C126.37,105.97,122.89,111.93,116.61,116.35z"/>
</g>
<g>
	<path d="M252.01,91.3h-43.63v-2.82c1.29-0.08,4.27-0.4,5.24-0.73c1.69-0.73,2.26-2.26,2.26-4.03v-40c0-1.77-0.48-3.15-2.26-4.03
		c-1.29-0.65-3.95-1.37-5.24-1.45v-2.82h23.55v2.82c-1.29,0.08-4.03,0.56-5.4,0.97c-1.77,0.73-2.26,2.34-2.26,4.11v37.5
		c0,6.77,0.81,7.42,9.11,7.42c3.95,0,8.71-0.4,10.32-2.1c2.1-2.26,5.65-8.63,6.69-11.45h2.82L252.01,91.3z"/>
	<path d="M260.96,91.3v-2.58c1.45-0.16,2.42-0.16,3.55-0.48c1.53-0.48,2.18-1.77,2.18-3.55V60.74c0-1.69-0.89-3.15-2.18-4.11
		c-0.97-0.64-3.31-1.13-4.76-1.21v-2.58l13.71-0.81l0.56,0.56V84.2c0,1.77,0.73,3.06,2.18,3.63c1.21,0.48,2.1,0.73,3.55,0.89v2.58
		H260.96z M269.66,42.27c-2.66,0-4.92-2.42-4.92-5.24c0-2.9,2.26-5.4,4.92-5.4c2.98,0,5.16,2.34,5.16,5.08
		C274.83,39.69,272.57,42.27,269.66,42.27z"/>
	<path d="M314.42,39.2c-3.31,0-4.84-3.15-6.45-5.56c-3.47,0.16-5.48,4.84-5.48,15v4.03h10v3.71h-10v27.9c0,1.77,0.73,2.98,2.18,3.55
		c1.21,0.48,3.79,0.73,5.24,0.89v2.58h-20.48v-2.58c1.45-0.16,2.42-0.16,3.55-0.48c1.53-0.48,2.18-1.77,2.18-3.55V56.38h-7.66v-3.71
		h7.66v-2.5c0-11.93,6.85-19.84,16.05-19.84c4.68,0,7.1,2.1,7.1,4.68C318.29,36.95,317.32,39.2,314.42,39.2z"/>
	<path d="M338.93,92.35c-12.66,0-18.55-9.44-18.55-20.81c0-10.32,6.69-20.16,17.74-20.16c11.53,0,15.81,7.82,15.81,16.69v2.58
		h-25.72c0,9.92,3.79,17.34,12.98,17.34c5.65,0,8.15-2.74,10.97-7.5l2.74,1.69C351.83,88.15,346.11,92.35,338.93,92.35z
		 M338.04,54.36c-5.32,0-9.52,4.68-9.84,12.98h17.98C346.19,60.9,344.66,54.36,338.04,54.36z"/>
	<path d="M406.99,92.51c-9.92,0-18.63-7.9-18.63-20.48c0-12.18,7.66-20.64,19.19-20.64c11.53,0,18.71,8.63,18.71,20.08
		S419.41,92.51,406.99,92.51z M407.47,54.36c-8.55,0-10.97,9.19-10.97,17.02c0,9.76,3.23,18.14,10.97,18.14
		c7.34,0,10.65-8.23,10.65-17.98C418.12,62.99,415.45,54.36,407.47,54.36z"/>
	<path d="M461.82,39.2c-3.31,0-4.84-3.15-6.45-5.56c-3.47,0.16-5.48,4.84-5.48,15v4.03h10v3.71h-10v27.9c0,1.77,0.73,2.98,2.18,3.55
		c1.21,0.48,3.79,0.73,5.24,0.89v2.58h-20.48v-2.58c1.45-0.16,2.42-0.16,3.55-0.48c1.53-0.48,2.18-1.77,2.18-3.55V56.38h-7.66v-3.71
		h7.66v-2.5c0-11.93,6.85-19.84,16.05-19.84c4.68,0,7.1,2.1,7.1,4.68C465.69,36.95,464.72,39.2,461.82,39.2z"/>
	<path d="M536.73,91.3H493.1v-2.82c1.29-0.08,4.27-0.4,5.24-0.73c1.69-0.73,2.26-2.26,2.26-4.03v-40c0-1.77-0.48-3.15-2.26-4.03
		c-1.29-0.65-3.95-1.37-5.24-1.45v-2.82h23.55v2.82c-1.29,0.08-4.03,0.56-5.4,0.97c-1.77,0.73-2.26,2.34-2.26,4.11v37.5
		c0,6.77,0.81,7.42,9.11,7.42c3.95,0,8.71-0.4,10.32-2.1c2.1-2.26,5.65-8.63,6.69-11.45h2.82L536.73,91.3z"/>
	<path d="M576,92.11c-4.11,0-6.61-2.02-7.26-5.65h-0.24c-3.15,3.55-7.42,5.81-12.58,5.81c-5.89,0-10-3.87-10-9.68
		c0-6.45,3.95-9.19,8.15-10.81c4.68-1.85,10.97-3.47,14.52-5.32v-3.87c0-1.53-0.56-8.31-7.42-8.31c-2.66,0-4.84,0.97-5.56,1.85
		c0,1.29,0.73,3.14,0.73,5.16c0,1.85-1.77,3.63-4.68,3.63c-2.74,0-3.79-2.18-3.79-4.52c0-5,7.58-9.03,13.79-9.03
		c8.23,0,14.35,2.1,14.35,12.82c0,7.5-0.24,12.5-0.24,19.43c0,2.02,0.65,3.15,2.18,4.03c0.89,0.48,2.98,0.4,4.44,0.4v2.5
		C580.27,91.38,578.02,92.11,576,92.11z M553.82,81.62c0,4.35,2.58,6.29,6.05,6.29c4.35,0,6.61-2.42,8.55-4.52l0.24-13.63
		C560.27,72.27,553.82,74.85,553.82,81.62z"/>
	<path d="M642.61,60.01c-3.15,9.35-4.44,12.98-7.66,22.66c-1.13,3.31-1.69,5.08-2.74,8.87h-3.39l-10.4-28.55l-10.56,28.55h-3.23
		L593.9,59.28c-0.81-2.42-3.63-3.95-5.81-4.19v-2.58h17.26v2.74c-1.85,0.08-4.27,0.4-4.27,1.69c0,0.16,0.16,0.81,0.48,1.77
		l6.94,22.5l9.92-27.98h3.79l10.08,27.58c2.74-8.23,4.35-12.98,6.37-19.52c0.32-1.13,0.73-2.58,0.73-3.55
		c0-1.94-4.03-2.74-5.24-2.74v-2.5h14.76v2.5C646.72,55.25,643.74,56.78,642.61,60.01z"/>
	<path d="M710.02,92.11c-4.11,0-6.61-2.02-7.26-5.65h-0.24c-3.15,3.55-7.42,5.81-12.58,5.81c-5.89,0-10-3.87-10-9.68
		c0-6.45,3.95-9.19,8.15-10.81c4.68-1.85,10.97-3.47,14.52-5.32v-3.87c0-1.53-0.56-8.31-7.42-8.31c-2.66,0-4.84,0.97-5.56,1.85
		c0,1.29,0.73,3.14,0.73,5.16c0,1.85-1.77,3.63-4.68,3.63c-2.74,0-3.79-2.18-3.79-4.52c0-5,7.58-9.03,13.79-9.03
		c8.23,0,14.35,2.1,14.35,12.82c0,7.5-0.24,12.5-0.24,19.43c0,2.02,0.65,3.15,2.18,4.03c0.89,0.48,2.98,0.4,4.44,0.4v2.5
		C714.29,91.38,712.03,92.11,710.02,92.11z M687.84,81.62c0,4.35,2.58,6.29,6.05,6.29c4.35,0,6.61-2.42,8.55-4.52l0.24-13.63
		C694.29,72.27,687.84,74.85,687.84,81.62z"/>
	<path d="M739.61,92.35c-4.52,0-8.71-2.1-10.32-3.47l-0.81,2.5h-2.9l-0.4-13.47h2.66c0.97,4.19,5.16,11.37,12.34,11.37
		c5.08,0,7.9-2.42,7.9-6.61c0-4.44-3.55-6.13-10-8.06c-5.4-1.61-11.94-4.52-11.94-11.85c0-6.37,5.08-11.37,13.06-11.37
		c3.23,0,6.61,0.89,8.55,2.02l0.89-2.1h2.82l0.65,12.5h-2.74c-0.97-4.76-4.27-9.44-10.24-9.44c-4.27,0-6.94,2.5-6.94,5.56
		c0,4.68,3.23,5.81,9.84,7.98c7.18,2.34,12.1,5.16,12.1,12.18C754.12,87.67,747.67,92.35,739.61,92.35z"/>
	<path d="M818.87,91.3v-2.82c2.58-0.16,7.18-0.81,7.18-2.26c0-0.48-0.16-1.29-0.32-1.69l-4.68-12.58h-19.6
		c-1.13,2.98-2.26,6.05-2.98,8.63c-0.56,1.85-0.89,3.31-0.89,4.44c0,2.58,5.48,3.31,8.06,3.47v2.82H784.6v-2.82
		c1.37-0.08,3.71-0.56,5.08-1.45c1.69-1.13,2.9-2.42,4.11-5.4c5.73-14.11,12.26-31.37,18.39-47.01h3.15l18.63,48.22
		c0.73,1.94,1.69,3.15,3.39,4.36c1.29,0.73,3.47,1.21,4.84,1.29v2.82H818.87z M811.21,46.78l-8.31,21.69h16.77L811.21,46.78z"/>
	<path d="M873.71,62.59c-2.98,0-4.52-1.77-4.52-3.63c0-1.13,0.24-2.1,0.4-2.98c-4.11,0.08-7.58,3.95-8.55,5.73v22.58
		c0,1.77,0.73,2.98,2.18,3.55c1.37,0.56,3.71,0.73,5.24,0.89v2.58h-20.48v-2.58c1.45-0.16,2.42-0.16,3.55-0.48
		c1.53-0.48,2.18-1.77,2.18-3.55V60.74c0-1.61-0.89-3.39-2.18-4.35c-0.97-0.56-2.5-0.89-3.95-0.97v-2.58l12.9-0.81l0.56,0.56v5.4
		h0.16c3.47-4.44,7.66-6.45,10.89-6.45c3.31,0,5.65,2.26,5.65,5.97C877.74,60.09,876.45,62.59,873.71,62.59z"/>
	<path d="M899.43,92.11c-6.45,0-8.87-3.39-8.87-9.35V56.38h-7.02v-3.71h7.18v-12.1h7.18v12.1h11.13v3.71h-11.05v21.69
		c0,6.21,0.56,9.27,6.29,9.27c1.37,0,4.44-0.24,5.65-0.65v2.9C906.93,90.9,903.22,92.11,899.43,92.11z"/>
</g>
<g>
	<path d="M228.6,147.28h-11.16l0.3-1.34c1.87-0.21,3.69-0.46,3.69-1.55c0-0.25-0.68-7.23-0.68-7.23h-8.95
		c-0.98,1.56-1.87,3.28-2.59,4.62c-0.55,1.09-1.06,2.14-1.06,2.56c0,1.18,2.38,1.51,3.44,1.6l-0.25,1.34h-10.48l0.3-1.34
		c0.68-0.04,1.91-0.34,2.63-0.76c0.98-0.59,1.74-1.3,2.63-2.86c4.46-7.31,9.72-16.43,14.56-24.58h1.65l3.06,25.21
		c0.13,1.01,0.47,1.68,1.15,2.27c0.51,0.42,1.44,0.67,2.08,0.71L228.6,147.28z M219.3,124.04l-6.54,11.43h7.85L219.3,124.04z"/>
	<path d="M264.03,147.28h-20.79l0.3-1.34c0.64-0.04,2.08-0.21,2.63-0.42c0.85-0.38,1.27-1.18,1.49-2.1l4.88-21.05
		c0.04-0.25,0.13-0.59,0.13-0.92c0-0.46-0.21-0.84-0.72-1.18s-1.66-0.67-2.29-0.76l0.3-1.34h11.63l-0.3,1.34
		c-0.64,0.04-2.04,0.29-2.72,0.55c-0.93,0.34-1.36,1.18-1.57,2.1l-4.58,19.79c-0.21,0.92-0.34,1.6-0.34,2.14
		c0,1.51,0.93,1.68,3.82,1.68c1.74,0,3.99-0.21,4.92-1.09c1.19-1.18,3.61-4.54,4.46-6.05h1.44L264.03,147.28z"/>
	<path d="M290.13,146.23c-1.99,0.97-3.31,1.39-4.75,1.39c-1.91,0-3.06-1.3-3.14-3.03h-0.13c-1.06,0.97-3.18,3.28-5.69,3.28
		c-3.48,0-5.6-3.07-5.6-7.98c0-6.77,4.58-13.32,10.69-13.32c2.46,0,4.12,1.01,4.54,1.3l3.78-0.97l0.21,0.29l-3.1,13.24
		c-0.21,0.84-0.51,2.19-0.51,2.9c0,1.39,0.68,1.98,1.95,1.98c0.55,0,1.49-0.17,2.04-0.38L290.13,146.23z M281.9,128.04
		c-3.95,0-6.79,5.88-6.79,11.89c0,3.11,0.47,5.63,3.01,5.63c1.74,0,3.39-1.64,4.46-2.9l2.63-11.05
		C285.21,130.39,284.23,128.04,281.9,128.04z"/>
	<path d="M312.66,147.91c-2.42,0-4.67-1.51-5.3-4.03c-1.44,1.68-3.4,3.99-5.94,3.99c-3.69,0-4.71-2.86-4.71-5
		c0-1.01,0.17-1.93,0.38-2.77l1.61-6.09c0.3-1.05,0.51-2.23,0.51-3.07c0-1.13-0.25-1.81-1.44-1.81c-0.81,0-1.87,0.29-2.33,0.46
		l0.34-1.34c1.95-0.92,3.56-1.43,4.54-1.43c2.16,0,3.06,1.09,3.06,2.94c0,0.55-0.08,1.34-0.34,2.27l-1.91,7.56
		c-0.25,1.05-0.42,2.23-0.42,2.94c0,1.68,0.47,2.94,2.12,2.94c0.93,0,2.67-0.55,4.24-2.77l3.65-15.55l3.61-0.25l0.25,0.29
		l-2.93,12.48c-0.21,1.01-0.47,2.27-0.47,3.07c0,2.18,1.4,2.77,3.01,2.77c3.18,0,6.92-4.92,6.92-10.8c0-3.28-2.21-3.03-2.21-5.76
		c0-1.55,1.27-2.39,2.46-2.39c1.99,0,2.63,1.93,2.63,3.82C323.99,138.88,319.37,147.91,312.66,147.91z"/>
	<path d="M359.94,127.83h-1.65c-0.17-4.62-0.81-8.62-5.47-8.62c-2.84,0-4.96,2.52-4.96,5.63c0,2.02,0.68,3.49,2.16,4.37
		c1.66,0.97,3.31,1.43,4.84,2.27c2.33,1.26,4.41,3.03,4.41,6.39c0,5.92-4.92,10-10.82,10c-3.1,0-5.39-0.97-6.87-2.06l-1.19,1.47
		h-1.66l1.99-9.96h1.7c0.25,4.62,1.61,8.87,6.54,8.87c3.99,0,6.03-2.77,6.03-6.3c0-2.1-0.85-3.91-2.63-4.79
		c-1.99-0.92-3.23-1.3-5.09-2.31c-2.21-1.18-3.69-3.4-3.69-6.22c0-5.25,4.54-9.04,9.55-9.04c3.06,0,4.71,0.92,6.15,2.02l1.1-1.39
		h1.65L359.94,127.83z"/>
	<path d="M377.84,129.09h-4.88l-2.63,11.3c-0.25,1.09-0.47,2.06-0.47,2.98c0,1.3,0.59,1.98,2.29,1.98c0.55,0,1.95-0.25,2.55-0.5
		l-0.3,1.51c-1.57,0.67-3.48,1.34-5.3,1.34c-2.38,0-3.44-1.09-3.44-3.07c0-0.55,0.08-1.18,0.21-1.81l3.23-13.74h-3.23l0.38-1.85
		h3.35l1.44-6.01h3.73l-1.4,6.01h4.88L377.84,129.09z"/>
	<path d="M399.66,146.23c-1.44,0.71-3.48,1.39-4.84,1.39c-2.16,0-3.18-1.47-3.18-3.19h-0.13c-2.12,2.06-3.73,3.36-6.32,3.36
		c-2.25,0-3.56-1.64-3.56-4.12c0-0.59,0.08-1.64,0.47-3.19l1.61-6.47c0.25-1.05,0.47-2.23,0.47-3.19c0-0.97-0.21-1.68-1.32-1.68
		c-0.81,0-1.99,0.29-2.46,0.46l0.34-1.34c1.95-0.92,3.56-1.43,4.54-1.43c2.16,0,3.06,1.09,3.06,2.77c0,0.71-0.13,1.51-0.34,2.44
		l-1.82,7.61c-0.25,1.13-0.47,2.19-0.47,3.15c0,1.43,0.59,2.56,1.87,2.56c1.15,0,2.72-0.55,4.46-2.77l3.61-15.42l3.61-0.25
		l0.25,0.29l-3.06,13.2c-0.25,1.09-0.55,2.35-0.55,2.9c0,1.55,0.59,2.02,1.99,2.02c0.51,0,1.44-0.17,1.99-0.38L399.66,146.23z"/>
	<path d="M421.17,140.43c-0.21,0.88-0.51,2.19-0.51,2.86c0,1.43,0.59,2.02,2.16,2.02c0.34,0,1.27-0.17,1.82-0.38l-0.3,1.3
		c-2.08,1.01-3.35,1.39-4.58,1.39c-2.08,0-3.27-1.05-3.27-3.15h-0.08c-1.1,1.13-3.27,3.4-5.73,3.4c-3.52,0-5.64-3.07-5.64-7.98
		c0-6.93,4.75-13.32,10.57-13.32c2.46,0,4.2,1.01,4.67,1.3l1.61-6.98c0.17-0.71,0.21-1.13,0.21-1.55c0-1.97-1.32-1.85-3.65-2.1
		l0.3-1.26l7.94-0.46l0.21,0.29L421.17,140.43z M416,128.04c-3.69,0-6.66,5.67-6.66,11.89c0,3.11,0.47,5.63,3.06,5.63
		c1.74,0,3.39-1.68,4.46-3.03l2.59-11.14C419.35,130.05,418.37,128.04,416,128.04z"/>
	<path d="M440.99,137.07c-2.33,0.97-4.58,1.47-7.21,1.85c0,4.33,1.36,6.64,4.07,6.64c2.42,0,4.2-1.77,5.81-4.03l1.15,0.84
		c-1.95,3.28-5.13,5.5-8.4,5.5c-4.67,0-6.75-3.24-6.75-7.82c0-6.68,4.2-13.49,10.74-13.49c3.61,0,5.3,1.76,5.3,4.29
		C445.7,134.59,443.07,136.19,440.99,137.07z M439.89,128.04c-2.72,0-5.39,3.99-5.98,9.46c1.91-0.34,3.61-0.63,5.18-1.6
		c1.87-1.13,2.8-2.94,2.8-5.42C441.88,128.75,441.08,128.04,439.89,128.04z"/>
	<path d="M469.46,146.23c-1.66,0.76-3.35,1.39-4.67,1.39c-2.21,0-3.27-1.26-3.27-2.94c0-0.55,0.13-1.47,0.47-2.69l1.91-7.23
		c0.3-1.18,0.51-2.23,0.51-3.19c0-1.43-0.72-2.56-1.91-2.56c-1.23,0-3.06,0.97-4.84,3.24l-3.48,15.04h-3.86l3.06-13.28
		c0.17-0.76,0.51-2.44,0.51-3.28c0-1.18-0.38-1.6-1.4-1.6c-0.89,0-1.95,0.25-2.38,0.42l0.3-1.34c1.95-0.92,3.56-1.39,4.75-1.39
		c2.08,0,2.8,1.22,2.89,3.32h0.13c2.46-2.4,4.16-3.57,6.62-3.57c2.29,0,3.65,1.68,3.65,4.12c0,0.63-0.13,1.72-0.51,3.19l-1.74,6.6
		c-0.21,0.88-0.51,2.23-0.51,3.11c0,1.26,0.64,1.72,1.87,1.72c0.89,0,1.7-0.21,2.16-0.42L469.46,146.23z"/>
	<path d="M487.46,129.09h-4.88l-2.63,11.3c-0.25,1.09-0.47,2.06-0.47,2.98c0,1.3,0.59,1.98,2.29,1.98c0.55,0,1.95-0.25,2.55-0.5
		l-0.3,1.51c-1.57,0.67-3.48,1.34-5.3,1.34c-2.38,0-3.44-1.09-3.44-3.07c0-0.55,0.08-1.18,0.21-1.81l3.23-13.74h-3.23l0.38-1.85
		h3.35l1.44-6.01h3.73l-1.4,6.01h4.88L487.46,129.09z"/>
	<path d="M524.67,147.28h-11.16l0.3-1.34c1.87-0.21,3.69-0.46,3.69-1.55c0-0.25-0.68-7.23-0.68-7.23h-8.95
		c-0.98,1.56-1.87,3.28-2.59,4.62c-0.55,1.09-1.06,2.14-1.06,2.56c0,1.18,2.38,1.51,3.44,1.6l-0.25,1.34h-10.48l0.3-1.34
		c0.68-0.04,1.91-0.34,2.63-0.76c0.98-0.59,1.74-1.3,2.63-2.86c4.46-7.31,9.72-16.43,14.56-24.58h1.65l3.06,25.21
		c0.13,1.01,0.47,1.68,1.15,2.27c0.51,0.42,1.44,0.67,2.08,0.71L524.67,147.28z M515.38,124.04l-6.54,11.43h7.85L515.38,124.04z"/>
	<path d="M543.18,133.46c-1.49,0-2.21-0.84-2.21-1.77c0-0.88,0.51-2.06,0.93-2.98c-1.02,0-2.97,1.55-4.5,3.87l-3.35,14.71h-3.86
		l3.01-13.28c0.17-0.8,0.51-2.23,0.51-2.94c0-1.39-0.38-1.93-1.57-1.93c-0.72,0-1.78,0.25-2.21,0.42l0.3-1.34
		c1.95-0.92,3.56-1.39,4.75-1.39c2.08,0,2.8,1.22,2.8,3.57h0.08c1.44-1.81,3.39-3.82,5.26-3.82c1.66,0,2.8,0.84,2.8,3.36
		C545.94,131.57,545.13,133.46,543.18,133.46z"/>
	<path d="M562.4,134.51c-1.49,0-2.25-0.88-2.25-1.81c0-0.88,0.51-2.23,1.19-3.61c-0.3-0.5-1.02-1.05-2.21-1.05
		c-2.93,0-5.64,4.58-5.64,11.22c0,3.66,1.44,6.3,4.16,6.3c2.29,0,3.99-1.6,5.6-3.99l1.15,0.8c-1.87,3.07-4.46,5.5-8.15,5.5
		c-4.67,0-7-3.32-7-8.07c0-7.1,4.37-13.24,10.4-13.24c3.56,0,5.43,1.85,5.43,4.37C565.07,132.62,564.31,134.51,562.4,134.51z"/>
	<path d="M587.27,146.23c-1.53,0.71-3.44,1.39-4.79,1.39c-2.12,0-3.14-1.26-3.14-2.94c0-0.55,0.08-1.34,0.42-2.61l1.95-7.31
		c0.3-1.18,0.51-2.23,0.51-3.19c0-1.43-0.72-2.56-1.95-2.56c-1.15,0-2.97,0.92-4.8,3.24l-3.48,15.04h-3.86l6.15-26.39
		c0.17-0.8,0.25-1.09,0.25-1.51c0-1.97-1.4-1.93-3.39-2.14l0.25-1.26l7.72-0.46l0.21,0.29l-3.35,14.2h0.08
		c2.5-2.27,4.07-3.45,6.53-3.45c2.29,0,3.65,1.68,3.65,4.12c0,0.63-0.13,1.72-0.51,3.19l-1.74,6.6c-0.25,1.05-0.51,2.1-0.51,3.11
		c0,1.26,0.59,1.72,1.78,1.72c0.68,0,1.7-0.21,2.25-0.42L587.27,146.23z"/>
	<path d="M601.32,146.36c-2.04,0.88-3.61,1.34-4.75,1.34c-2.16,0-3.18-1.3-3.18-2.94c0-0.55,0.13-1.39,0.34-2.27l2.21-8.74
		c0.21-0.97,0.47-2.19,0.47-3.28c0-1.18-0.34-1.55-1.4-1.55c-0.89,0-2.12,0.25-2.55,0.38l0.3-1.3c1.99-0.92,3.73-1.43,4.71-1.43
		c2.16,0,3.1,1.18,3.1,2.98c0,0.55-0.08,1.34-0.3,2.27l-2.25,8.7c-0.25,1.09-0.51,2.1-0.51,3.15c0,1.26,0.64,1.72,1.87,1.72
		c0.68,0,1.7-0.13,2.25-0.34L601.32,146.36z M600.81,121.73c-1.4,0-2.59-1.26-2.59-2.73c0-1.51,1.19-2.82,2.59-2.82
		c1.57,0,2.67,1.22,2.67,2.65C603.48,120.39,602.33,121.73,600.81,121.73z"/>
	<path d="M612.73,147.91c-3.01,0-5.39-1.85-5.39-5.5c0-0.63,0.17-1.55,0.34-2.1l1.74-6.3c0.3-1.09,0.55-2.18,0.55-3.19
		c0-1.26-0.42-1.68-1.53-1.68c-0.85,0-1.91,0.34-2.38,0.5l0.3-1.34c1.95-0.92,3.61-1.47,4.62-1.47c2.12,0,3.1,1.05,3.1,2.94
		c0,0.55-0.08,1.34-0.34,2.27l-1.99,7.65c-0.25,1.09-0.42,2.06-0.42,2.65c0,2.65,1.74,3.19,3.01,3.19c3.18,0,7.04-4.92,7.04-10.8
		c0-3.28-2.21-3.03-2.21-5.76c0-1.55,1.27-2.39,2.46-2.39c1.99,0,2.59,1.93,2.59,3.82C624.23,138.88,619.44,147.91,612.73,147.91z"
		/>
	<path d="M640.31,137.07c-2.33,0.97-4.58,1.47-7.21,1.85c0,4.33,1.36,6.64,4.07,6.64c2.42,0,4.2-1.77,5.81-4.03l1.15,0.84
		c-1.95,3.28-5.13,5.5-8.4,5.5c-4.67,0-6.75-3.24-6.75-7.82c0-6.68,4.2-13.49,10.74-13.49c3.61,0,5.3,1.76,5.3,4.29
		C645.03,134.59,642.39,136.19,640.31,137.07z M639.21,128.04c-2.72,0-5.39,3.99-5.98,9.46c1.91-0.34,3.61-0.63,5.18-1.6
		c1.87-1.13,2.8-2.94,2.8-5.42C641.21,128.75,640.4,128.04,639.21,128.04z"/>
	<path d="M666.92,140.39c-2.55,0-4.63-2.4-4.63-5.38c0-3.03,2.08-5.42,4.63-5.42c2.59,0,4.63,2.4,4.63,5.42
		C671.55,138,669.51,140.39,666.92,140.39z"/>
	<path d="M688.65,147.28l0.3-1.34c1.4-0.04,3.4-0.25,4.33-0.42c0.85-0.17,1.53-0.88,1.78-1.98l5.35-22.27h-5.86l0.38-1.6h2.08
		c3.18,0,5.35-0.84,6.96-2.06h1.7c-0.51,1.81-1.15,4.37-1.61,6.26l-4.54,19.25c-0.08,0.34-0.13,0.76-0.13,0.88
		c0,0.67,0.3,1.05,0.85,1.34c0.81,0.42,2.72,0.55,4.41,0.63l-0.34,1.3H688.65z"/>
	<path d="M715,148.12v-1.98l1.65-0.25c6.03-0.92,9.51-5.63,11.37-11.51c-2.5,2.1-4.37,2.69-6.66,2.69c-3.73,0-6.28-3.03-6.28-7.4
		c0-6.09,4.63-11.85,10.65-11.85c4.71,0,7.85,3.4,7.85,9.04C733.59,137.62,726.16,146.95,715,148.12z M725.36,119.34
		c-4.12,0-5.86,6.26-5.86,10c0,3.28,1.27,5.46,3.73,5.46c1.87,0,3.61-0.71,5.22-2.44c0.34-0.97,0.85-3.03,0.85-6.3
		C729.3,121.86,727.86,119.34,725.36,119.34z"/>
	<path d="M739.32,148.12v-1.98l1.65-0.25c6.03-0.92,9.51-5.63,11.37-11.51c-2.5,2.1-4.37,2.69-6.66,2.69c-3.73,0-6.28-3.03-6.28-7.4
		c0-6.09,4.63-11.85,10.65-11.85c4.71,0,7.85,3.4,7.85,9.04C757.91,137.62,750.48,146.95,739.32,148.12z M749.67,119.34
		c-4.12,0-5.86,6.26-5.86,10c0,3.28,1.27,5.46,3.73,5.46c1.87,0,3.61-0.71,5.22-2.44c0.34-0.97,0.85-3.03,0.85-6.3
		C753.62,121.86,752.18,119.34,749.67,119.34z"/>
	<path d="M763.64,148.12v-1.98l1.65-0.25c6.03-0.92,9.51-5.63,11.37-11.51c-2.5,2.1-4.37,2.69-6.66,2.69c-3.73,0-6.28-3.03-6.28-7.4
		c0-6.09,4.63-11.85,10.65-11.85c4.71,0,7.85,3.4,7.85,9.04C782.22,137.62,774.8,146.95,763.64,148.12z M773.99,119.34
		c-4.12,0-5.86,6.26-5.86,10c0,3.28,1.27,5.46,3.73,5.46c1.87,0,3.61-0.71,5.22-2.44c0.34-0.97,0.85-3.03,0.85-6.3
		C777.94,121.86,776.49,119.34,773.99,119.34z"/>
	<path d="M808.53,137.03h-21.34l0.59-2.48h21.34L808.53,137.03z"/>
	<path d="M830.68,147.28h-18.42l0.68-2.77c2.12-3.66,4.96-5.97,9.08-9.16c3.99-3.07,7.17-6.22,7.17-11.22
		c0-3.24-1.27-4.92-3.48-4.92c-1.61,0-3.06,0.84-3.65,1.85c0.04,0.59,0.08,1.47,0.08,1.93c0,2.69-1.32,3.53-3.06,3.53
		c-1.44,0-2.04-0.76-2.04-1.77c0-3.61,4.75-7.14,9.46-7.14c3.99,0,7.13,2.61,7.13,6.89c0,2.48-0.85,4.71-2.42,6.51
		c-1.44,1.85-3.86,3.61-7.17,5.63c-4.54,2.77-6.83,4.75-8.23,7.06h15.62L830.68,147.28z"/>
	<path d="M846.13,147.96c-4.58,0-7.6-3.49-7.6-9.75c0-1.81,0.25-3.82,0.72-6.01c1.7-8.24,6.15-14.58,12.35-14.58
		c4.54,0,7.26,3.78,7.26,9.58c0,1.89-0.25,4.16-0.72,6.3C856.19,143.33,851.73,147.96,846.13,147.96z M854.45,125.47
		c0-3.7-0.64-6.3-2.97-6.3c-3.61,0-5.9,5.55-7.6,13.49c-0.55,2.48-0.93,5.08-0.93,7.1c0,3.87,0.55,6.64,3.14,6.64
		c3.82,0,5.69-5.42,7.43-13.53C854.11,130.35,854.45,127.49,854.45,125.47z"/>
	<path d="M879.32,147.28H860.9l0.68-2.77c2.12-3.66,4.96-5.97,9.08-9.16c3.99-3.07,7.17-6.22,7.17-11.22c0-3.24-1.27-4.92-3.48-4.92
		c-1.61,0-3.06,0.84-3.65,1.85c0.04,0.59,0.08,1.47,0.08,1.93c0,2.69-1.32,3.53-3.06,3.53c-1.44,0-2.04-0.76-2.04-1.77
		c0-3.61,4.75-7.14,9.46-7.14c3.99,0,7.13,2.61,7.13,6.89c0,2.48-0.85,4.71-2.42,6.51c-1.44,1.85-3.86,3.61-7.17,5.63
		c-4.54,2.77-6.83,4.75-8.23,7.06h15.62L879.32,147.28z"/>
	<path d="M899.01,131.44l-0.13,0.34c2.67,0.25,6.15,1.68,6.15,5.59c0,6.26-5.64,10.5-11.58,10.5c-4.8,0-7.51-2.39-7.51-5.08
		c0-1.81,1.1-3.4,2.84-3.4c1.53,0,2.21,0.88,2.21,1.76c0,1.3-0.85,2.48-1.23,3.36c0.25,0.46,1.32,1.76,3.95,1.76
		c3.27,0,6.92-3.24,6.92-9.25c0-2.23-1.19-3.91-4.33-3.91h-2.55l0.55-2.27h1.65c3.9,0,6.28-3.28,6.28-7.73
		c0-2.19-0.76-3.82-3.01-3.82c-1.74,0-2.89,0.92-3.52,1.68c0,0.38,0.04,1.18,0.04,1.81c0,2.61-1.15,3.82-3.31,3.82
		c-1.4,0-1.82-0.8-1.82-1.81c0-3.03,3.69-7.1,9.25-7.1c5.56,0,6.79,3.45,6.79,5.76C906.65,126.4,904.74,129.93,899.01,131.44z"/>
</g>
</svg>
