<?xml version="1.0" encoding="utf-8"?>
<!-- Generator: Adobe Illustrator 27.5.0, SVG Export Plug-In . SVG Version: 6.00 Build 0)  -->
<svg version="1.1" id="Layer_1" xmlns="http://www.w3.org/2000/svg" xmlns:xlink="http://www.w3.org/1999/xlink" x="0px" y="0px"
	 viewBox="0 0 878 181" style="enable-background:new 0 0 878 181;" xml:space="preserve">
<g>
	<path d="M0.15,0v180.61h180.61V0H0.15z M151.33,139.08c-10.23,14.34-24.54,21.4-41.92,22.11c-17.38,0.71-33.63-3.88-48.96-11.83
		c-11.29-5.85-21.16-13.53-28.9-23.71c-14.97-19.7-15.64-40.55-3.58-61.6c12.8-22.35,32.49-35.89,57.7-40.53
		c18.6-3.43,34.94,2.74,48.85,15.18c14.91,13.32,22.98,30.41,26.32,49.87c0.79,4.58,1.02,9.25,1.5,13.88
		C162.09,115.73,159.11,128.17,151.33,139.08z"/>
	<path d="M84.7,40.58C62.78,48.52,48.26,64.05,41.94,86.5c-5.45,19.36,1.73,36.13,18.97,46.56c10.37,6.27,21.77,8.64,33.8,8.47
		c28.61-0.4,49.52-21.25,49.51-49.43c-0.01-12.38-4.21-25.17-11.56-35.17C120.99,41.05,102.15,34.26,84.7,40.58z M116.61,116.35
		c-6.68,4.7-14.35,5.93-21.26,6.1c-8.99-0.23-16.58-1.74-23.23-6.47c-8.89-6.32-11.96-16.38-8.15-26.59
		c2.74-7.34,7.05-13.57,13.15-18.52c10.45-8.47,21.95-8.64,32.39-0.21c8.78,7.09,14.36,16.23,15.83,27.5
		C126.37,105.97,122.89,111.93,116.61,116.35z"/>
</g>
<g>
	<path d="M207.62,34.44h23.48v1.74L224.43,37c-0.27,7.22-0.37,17.18-0.37,25.49v4.02c0,8.68,0.09,19.1,0.37,26.31h17.54l5.76-15.53
		h1.74l-1.1,17.82h-40.75v-1.74l6.76-0.82c0.27-7.31,0.27-17.54,0.27-26.04v-4.02c0-8.31,0-18.27-0.27-25.49l-6.76-0.82V34.44z"/>
	<path d="M254.4,93.37l5.76-0.82c0.18-4.75,0.18-11.7,0.18-16.72v-3.47c0-5.39,0-8.68-0.18-12.61l-6.12-1.55v-1.46l14.71-4.39
		l0.91,0.82l-0.37,11.79v10.87c0,5.03,0.09,12.06,0.27,16.81l5.3,0.73v1.74H254.4V93.37z M259.15,38.55c0-3.29,2.47-5.48,5.57-5.48
		s5.57,2.19,5.57,5.48s-2.47,5.48-5.57,5.48S259.15,41.84,259.15,38.55z"/>
	<path d="M279.89,93.37l5.76-0.82c0.18-4.75,0.18-11.7,0.18-16.72V56h-6.3v-1.74l6.49-1.1v-0.18c0.55-10.96,3.38-17.36,7.95-21.84
		c3.2-3.01,7.31-4.39,11.6-4.39c3.75,0,7.77,1.64,8.68,4.93c-0.18,2.47-2.28,3.93-4.84,3.93c-2.56,0-4.39-1.1-6.76-4.02l-2.1-2.19
		c-0.64,0.46-1.37,1.1-2.01,2.1c-2.92,4.48-4.11,11.06-3.75,22.02h10.42V56h-10.42v19.83c0,4.93,0.09,11.88,0.27,16.63l7.77,0.91
		v1.74h-22.93V93.37z"/>
	<path d="M310.32,75.1c0-14.25,8.95-22.75,19.1-22.75c9.32,0,15.9,6.3,15.9,15.81c0,2.01-0.18,3.11-0.55,4.39h-25.13v0.73
		c0,11.06,5.66,17.54,13.34,17.54c4.93,0,8.5-2.19,11.24-5.57l1.28,0.91c-3.29,7.04-9.05,10.14-15.9,10.14
		C318.82,96.29,310.32,88.53,310.32,75.1z M319.73,70.44h11.97c4.2,0,5.57-1.37,5.57-5.39c0-6.85-3.11-10.51-7.77-10.51
		S320.37,58.74,319.73,70.44z"/>
	<path d="M370.99,74.46c0-13.8,8.77-22.11,19.92-22.11c11.51,0,19.92,7.95,19.92,21.84c0,13.8-8.95,22.11-19.92,22.11
		C379.3,96.29,370.99,88.25,370.99,74.46z M401.14,74.18c0-13.8-3.84-19.74-10.23-19.74s-10.23,6.12-10.23,20.01
		c0,13.89,3.84,19.74,10.23,19.74S401.14,88.07,401.14,74.18z"/>
	<path d="M417.13,93.37l5.76-0.82c0.18-4.75,0.18-11.7,0.18-16.72V56h-6.3v-1.74l6.49-1.1v-0.18c0.55-10.96,3.38-17.36,7.95-21.84
		c3.2-3.01,7.31-4.39,11.6-4.39c3.75,0,7.77,1.64,8.68,4.93c-0.18,2.47-2.28,3.93-4.84,3.93c-2.56,0-4.39-1.1-6.76-4.02l-2.1-2.19
		c-0.64,0.46-1.37,1.1-2.01,2.1c-2.92,4.48-4.11,11.06-3.75,22.02h10.42V56h-10.42v19.83c0,4.93,0.09,11.88,0.27,16.63l7.77,0.91
		v1.74h-22.93V93.37z"/>
	<path d="M465.47,34.44h23.48v1.74L482.28,37c-0.27,7.22-0.37,17.18-0.37,25.49v4.02c0,8.68,0.09,19.1,0.37,26.31h17.54l5.76-15.53
		h1.74l-1.1,17.82h-40.75v-1.74l6.76-0.82c0.27-7.31,0.27-17.54,0.27-26.04v-4.02c0-8.31,0-18.27-0.27-25.49l-6.76-0.82V34.44z"/>
	<path d="M535.64,89.81c-3.65,4.75-7.49,6.49-12.24,6.49c-6.12,0-10.78-3.65-10.78-10.32c0-5.67,3.11-10.14,14.53-13.8
		c2.01-0.73,4.93-1.55,8.41-2.38v-3.2c0-8.95-2.1-11.79-7.68-11.79c-1.28,0-2.38,0.18-3.56,0.55l-1,5.76
		c-0.46,3.93-2.56,5.57-5.03,5.57s-3.65-1.37-4.11-3.84c1.01-6.21,7.58-10.51,16.81-10.51c9.32,0,13.52,4.66,13.52,15.26v20.38
		c0,2.92,0.91,3.93,2.47,3.93c1.37,0,2.19-0.64,3.65-2.28l1.1,0.91c-1.37,3.29-3.93,5.57-8.04,5.57
		C538.93,96.11,536.28,93.83,535.64,89.81z M527.78,91c2.74,0,4.75-0.55,7.77-3.02V71.62c-2.83,0.91-4.93,1.65-6.12,2.19
		c-6.21,2.74-8.04,6.03-8.04,10.05C521.39,88.89,524.13,91,527.78,91z"/>
	<path d="M603.81,53.53h13.34v1.74l-4.48,0.64l-13.25,39.47h-3.84l-10.51-31.07l-10.6,31.07h-3.84l-13.71-39.47l-4.11-0.64v-1.74
		h20.01v1.64l-5.76,0.91l8.77,28.23l9.32-28.42l-6.03-0.73v-1.64h18.27v1.64l-6.03,0.91l9.41,28.23L609.93,56l-6.12-0.82V53.53z"/>
	<path d="M662.1,89.81c-3.65,4.75-7.49,6.49-12.24,6.49c-6.12,0-10.78-3.65-10.78-10.32c0-5.67,3.11-10.14,14.53-13.8
		c2.01-0.73,4.93-1.55,8.41-2.38v-3.2c0-8.95-2.1-11.79-7.68-11.79c-1.28,0-2.38,0.18-3.56,0.55l-1,5.76
		c-0.46,3.93-2.56,5.57-5.03,5.57s-3.65-1.37-4.11-3.84c1.01-6.21,7.58-10.51,16.81-10.51c9.32,0,13.52,4.66,13.52,15.26v20.38
		c0,2.92,0.91,3.93,2.47,3.93c1.37,0,2.19-0.64,3.65-2.28l1.1,0.91c-1.37,3.29-3.93,5.57-8.04,5.57
		C665.39,96.11,662.74,93.83,662.1,89.81z M654.25,91c2.74,0,4.75-0.55,7.77-3.02V71.62c-2.83,0.91-4.93,1.65-6.12,2.19
		c-6.21,2.74-8.04,6.03-8.04,10.05C647.85,88.89,650.59,91,654.25,91z"/>
	<path d="M682.85,92.82l0.55-11.33h1.46l4.11,11.79c2.01,0.73,4.02,1.1,6.85,1.1c5.57,0,8.68-3.2,8.68-7.58
		c0-4.66-3.93-6.58-8.41-8.5l-2.56-1.1c-5.21-2.19-10.42-5.03-10.42-12.24c0-7.13,4.93-12.61,14.71-12.61c4.57,0,8.04,1.1,11.6,3.2
		l-0.37,10.6h-1.55l-3.93-10.69c-1.64-0.82-3.47-1.1-5.76-1.1c-5.12,0-8.04,2.83-8.04,6.85c0,4.57,3.84,6.58,8.31,8.5l2.56,1.1
		c5.39,2.28,10.87,5.03,10.87,12.43c0,7.95-5.57,13.07-15.72,13.07C690.7,96.29,686.96,95.11,682.85,92.82z"/>
	<path d="M734.38,93.37l5.94-0.82l18.73-58.57h4.48l19.1,58.48l5.85,0.91v1.74h-23.48v-1.74l7.31-0.91l-5.57-18.27h-17.82
		l-5.66,18.37l7.67,0.82v1.74h-16.54V93.37z M766.08,71.9l-8.13-26.59l-8.31,26.59H766.08z"/>
	<path d="M792.31,93.37l5.76-0.82c0.18-4.75,0.18-11.7,0.18-16.72v-3.47c0-5.39,0-8.68-0.18-12.61l-6.12-1.55v-1.46l14.35-4.39
		l0.91,0.82v11.79c3.02-8.41,7.4-12.61,12.7-12.61c3.2,0,5.57,1.46,6.3,4.84c-0.27,3.56-2.74,5.39-5.57,5.39
		c-2.38,0-4.2-1-5.94-3.56l-0.82-1.1c-2.56,2.19-5.21,6.12-6.67,11.06v6.85c0,5.03,0.09,11.97,0.27,16.72l6.4,0.82v1.74h-21.56
		V93.37z"/>
	<path d="M833.88,86.06V75.65L834.07,56h-6.21v-1.74l6.67-1.19l5.76-13.43h3.02l-0.37,13.89h10.6V56h-10.6v29.7
		c0,4.57,2.01,6.21,5.03,6.21c2.38,0,4.2-1,5.85-2.83l1.19,0.91c-2.01,4.02-5.03,6.3-10.51,6.3
		C837.9,96.29,833.88,93.01,833.88,86.06z"/>
</g>
<g>
	<path d="M202.51,145.89l3.63-0.52l15.02-26.8h2.54l3.85,26.84l3.85,0.48l-0.35,1.73h-11.6l0.35-1.73l3.81-0.43l-1.14-8.37h-9.55
		l-4.42,8.24l3.81,0.56l-0.35,1.73h-9.81L202.51,145.89z M222.22,135.09l-1.66-12.27l-6.57,12.27H222.22z"/>
	<path d="M248.97,118.57h12.04l-0.35,1.78l-4.2,0.52l-2.54,13.31c-0.7,3.73-1.36,7.5-1.97,11.28h11.17l2.1-5.98h2.45l-1.62,8.15
		h-22.12l0.39-1.73l3.77-0.48l2.54-13.4c0.7-3.73,1.36-7.46,1.97-11.19l-3.98-0.48L248.97,118.57z"/>
	<path d="M281.77,145.67c0-0.82,0.04-1.52,0.18-2.3c-2.54,2.86-5.3,4.81-7.66,4.81c-2.1,0-4.16-1.52-4.16-5.12
		c0-7.54,7.88-16.61,13.53-16.61c1.01,0,1.8,0.43,2.5,1.17l2.01-1.6l0.79,0.39l-3.5,15.35c-0.26,1.08-0.39,2-0.39,2.47
		c0,0.61,0.48,0.95,1.05,0.95c1.1,0,2.76-1.26,4.29-3.12l1.05,0.82c-1.71,2.51-4.47,5.29-7.4,5.29
		C282.87,148.19,281.77,147.41,281.77,145.67z M276.17,145.2c1.53,0,3.37-1.04,6.26-4.16l2.36-10.88c-0.83-0.48-1.75-0.82-2.67-0.82
		c-1.4,0-3.24,0.91-4.82,2.51c-2.1,2.17-3.77,5.64-3.77,9.45C273.54,143.94,274.59,145.2,276.17,145.2z"/>
	<path d="M296.79,131.36c-0.22-1.69-0.61-1.91-1.23-1.91c-0.83,0-1.58,0.78-2.98,2.86l-1.01-0.69c1.53-3.38,3.42-5.16,5.39-5.16
		c1.84,0,2.58,0.82,2.93,2.91c0.61,3.6,0.79,9.28,0.79,14.09c3.24-4.64,6.22-10.1,8.98-16.48h1.75c0.26,5.9,0.48,11.79,0.66,16.87
		c2.93-3.64,4.95-6.59,7.14-10.62c0.09-0.17,0.18-0.3,0.26-0.48l-0.35-1.43c-0.13-0.52-0.22-1.39-0.22-1.78
		c0-2.17,1.27-3.08,2.63-3.08c0.7,0,1.18,0.26,1.44,0.56c0.18,0.26,0.26,0.61,0.26,1.3c0,0.91-0.26,2.08-2.23,5.81
		c-2.06,3.95-5.74,9.02-10.25,13.66l-1.27,0.13l-0.31-0.22c-0.26-4.6-0.48-9.19-0.7-13.75c-2.23,4.21-5.61,9.89-9.07,13.83
		l-1.31,0.13l-0.31-0.22C297.76,140.73,297.41,135.74,296.79,131.36z"/>
	<path d="M334.63,140.17h2.5l0.53,5.42c1.18,0.35,2.45,0.52,3.72,0.52c4.38,0,6.44-2.21,6.44-5.2c0-1.95-0.61-3.51-4.55-6.5
		c-4.47-3.38-5.61-5.85-5.61-8.54c0-4.6,3.98-7.94,9.55-7.94c2.36,0,4.82,0.52,7.27,1.95l-1.01,6.07h-2.58l-0.26-5.33
		c-1.18-0.43-2.01-0.52-2.89-0.52c-4.29,0-6.74,1.6-6.74,4.81c0,2.3,1.18,3.99,4.29,6.33c4.95,3.82,6.04,6.07,6.04,8.72
		c0,5.03-3.94,8.33-9.77,8.33c-2.63,0-5.91-0.74-7.75-1.95L334.63,140.17z"/>
	<path d="M356.61,145.98c0-0.65,0.04-1.39,0.39-3.17l2.98-13.75h-4.47l0.35-1.65l4.69-0.43l2.06-5.77h2.23l-1.23,5.81h5.56
		l-0.48,2.34l-5.56-0.17l-2.67,12.49c-0.26,1.17-0.39,2.08-0.39,2.52c0,0.65,0.53,1,1.05,1c1.18,0,2.5-1.04,4.29-3.12l1.05,0.82
		c-1.8,2.6-4.47,5.29-7.44,5.29C357.75,148.19,356.61,147.45,356.61,145.98z"/>
	<path d="M371.37,145.02c0-1.6,0.57-3.77,0.92-5.46l2.01-9.41l-4.34-0.22l0.18-1.3l7.62-2.17l0.57,0.43l-2.76,12.32
		c-0.39,1.78-0.66,3.17-0.66,4.12c0,1.26,0.61,1.86,1.66,1.86c1.84,0,3.63-1.13,6.92-3.73l1.23-5.81c0.57-2.78,1.09-5.55,1.58-8.33
		l2.85-0.87l0.57,0.43l-3.11,14.87c-0.22,1.08-0.39,2-0.39,2.47c0,0.61,0.48,0.95,1.01,0.95c1.18,0,2.5-1.04,4.29-3.12l1.09,0.82
		c-2.01,2.6-4.34,5.29-7.49,5.29c-1.18,0-2.32-0.74-2.32-2.25c0-0.52,0.04-1.17,0.44-2.78c-3.37,3.12-6.13,5.03-8.67,5.03
		C372.64,148.19,371.37,147.15,371.37,145.02z"/>
	<path d="M405.92,145.93c0-0.61,0-1.34,0.31-2.86c-2.63,3.04-5.69,5.12-8.1,5.12c-2.1,0-3.94-1.52-3.94-5.46
		c0-7.2,7.31-16.26,13.27-16.26c0.83,0,1.49,0.22,2.15,0.65l1.66-7.85l-4.42-0.3l0.17-1.26l7.49-2.17l0.53,0.35l-5.3,25.89
		c-0.22,1.08-0.35,2-0.35,2.47c0,0.61,0.48,0.95,1.01,0.95c1.14,0,2.8-1.26,4.29-3.12l1.05,0.82c-1.71,2.51-4.42,5.29-7.36,5.29
		C407.02,148.19,405.92,147.45,405.92,145.93z M400.32,145.2c1.58,0,3.42-1.13,6.39-4.42l2.1-10.41c-0.88-0.74-1.8-1.04-2.67-1.04
		c-1.88,0-3.77,1.04-5.26,2.69c-1.97,2.17-3.33,5.55-3.33,9.06C397.56,143.94,398.74,145.2,400.32,145.2z"/>
	<path d="M417.44,140.12c0-6.98,5.3-13.66,11.43-13.66c2.8,0,4.38,1.43,4.38,3.99c0,2.78-2.76,6.72-12.74,9.58
		c0.18,3.69,1.84,5.16,4.51,5.16c2.76,0,4.73-1.69,5.91-3.17l1.01,0.78c-1.84,2.95-4.69,5.38-7.93,5.38
		C420.2,148.19,417.44,145.67,417.44,140.12z M420.5,138.34c7.27-2.08,9.81-5.12,9.81-7.46c0-1.6-0.96-2.56-2.41-2.56
		C425.19,128.33,420.94,132.92,420.5,138.34z"/>
	<path d="M436.22,147.62l3.72-17.43l-4.34-0.26l0.18-1.26l7.44-2.21l0.57,0.43l-0.92,4.47c2.89-2.73,6.48-4.9,9.15-4.9
		c1.84,0,2.8,1,2.8,2.99c0,1.39-0.39,2.82-0.74,4.25l-1.97,8.07c-0.31,1.21-0.53,2.08-0.53,2.52c0,0.61,0.31,0.91,0.83,0.91
		c1.09,0,2.76-1.17,4.34-3.12l1.05,0.82c-1.71,2.56-4.55,5.29-7.58,5.29c-1.36,0-2.19-0.74-2.19-1.86c0-1,0.26-1.73,0.7-3.51
		l1.88-7.68c0.35-1.47,0.7-2.91,0.7-3.77c0-1.52-0.57-2-1.53-2c-1.58,0-4.07,1.26-7.27,3.86l-1.18,5.29
		c-0.66,3.04-1.18,6.03-1.75,9.11l-2.93,0.35L436.22,147.62z"/>
	<path d="M461.27,145.98c0-0.65,0.04-1.39,0.39-3.17l2.98-13.75h-4.47l0.35-1.65l4.69-0.43l2.06-5.77h2.23l-1.23,5.81h5.56
		l-0.48,2.34l-5.56-0.17l-2.67,12.49c-0.26,1.17-0.39,2.08-0.39,2.52c0,0.65,0.53,1,1.05,1c1.18,0,2.5-1.04,4.29-3.12l1.05,0.82
		c-1.8,2.6-4.47,5.29-7.44,5.29C462.41,148.19,461.27,147.45,461.27,145.98z"/>
	<path d="M481.07,145.89l3.63-0.52l15.02-26.8h2.54l3.85,26.84l3.85,0.48l-0.35,1.73h-11.6l0.35-1.73l3.81-0.43l-1.14-8.37h-9.55
		l-4.42,8.24l3.81,0.56l-0.35,1.73h-9.81L481.07,145.89z M500.77,135.09l-1.66-12.27l-6.57,12.27H500.77z"/>
	<path d="M517.55,130.19l-4.34-0.26l0.18-1.26l7.23-2.21l0.57,0.43l-0.96,5.81c1.88-3.25,4.29-6.24,6.61-6.24
		c1.23,0,2.32,0.35,2.93,1.3c-0.04,1.43-0.88,2.43-2.32,2.43c-0.74,0-1.71-0.48-2.58-1.17c-2.15,1.78-3.81,4.25-5.43,7.24
		l-0.48,2.25c-0.66,3.04-1.18,6.03-1.75,9.11l-2.93,0.35l-0.44-0.35L517.55,130.19z"/>
	<path d="M529.28,140.08c0-7.33,5.74-13.62,11.25-13.62c2.67,0,4.25,1.3,4.73,3.17c-0.18,1.08-1.05,1.52-1.84,1.52
		c-0.96,0-1.8-0.69-2.58-1.56l-1.31-1.47c-3.77,1.3-6.96,6.16-6.96,11.49c0,3.77,1.97,5.59,4.86,5.59c2.32,0,4.12-1.69,5.34-3.17
		l1.01,0.78c-1.75,3.04-4.95,5.38-7.97,5.38C532,148.19,529.28,145.5,529.28,140.08z"/>
	<path d="M546.58,147.62l4.25-20.73c0.53-2.56,1.01-5.12,1.45-7.68l-4.16-0.26l0.18-1.26l7.58-2.17l0.44,0.35l-3.15,15.39
		c2.8-2.69,6.39-4.81,9.02-4.81c1.84,0,2.85,1,2.85,2.99c0,1.39-0.39,2.82-0.74,4.25l-1.97,8.07c-0.31,1.21-0.57,2.08-0.57,2.52
		c0,0.61,0.35,0.91,0.88,0.91c1.05,0,2.71-1.17,4.29-3.12l1.05,0.82c-1.71,2.56-4.55,5.29-7.53,5.29c-1.4,0-2.23-0.74-2.23-1.86
		c0-1,0.26-1.73,0.7-3.51l1.88-7.68c0.35-1.47,0.7-2.91,0.7-3.77c0-1.52-0.57-2-1.53-2c-1.58,0-3.99,1.21-7.18,3.77l-1.14,5.38
		c-0.61,3.04-1.18,6.07-1.66,9.11l-2.93,0.35L546.58,147.62z"/>
	<path d="M572.07,142.81l2.67-12.62l-4.34-0.26l0.18-1.26l7.44-2.21l0.57,0.43l-3.11,14.87c-0.22,1.08-0.39,2-0.39,2.47
		c0,0.61,0.48,0.95,0.96,0.95c1.05,0,2.45-1.04,4.2-3.12l1.09,0.82c-1.97,2.6-4.25,5.29-7.36,5.29c-1.23,0-2.36-0.74-2.36-2.21
		C571.63,145.33,571.72,144.59,572.07,142.81z M576.23,118.14c0-1.43,1.14-2.65,2.41-2.65c1.36,0,2.28,0.91,2.28,2.3
		c0,1.43-1.18,2.69-2.45,2.69C577.15,120.48,576.23,119.57,576.23,118.14z"/>
	<path d="M587.26,131.49c-0.22-1.73-0.61-2.04-1.23-2.04c-0.79,0-1.45,0.61-2.98,2.86l-1.01-0.69c1.53-3.38,3.46-5.16,5.52-5.16
		c1.8,0,2.54,1.04,2.93,3.43c0.61,3.9,0.83,9.24,0.83,14.31c3.11-3.64,5.3-7.03,7.49-11.01c0.04-0.09,0.09-0.17,0.13-0.26
		l-0.31-1.69c-0.09-0.56-0.18-1.26-0.18-1.69c0-2.17,0.92-3.08,2.32-3.08c0.83,0,1.44,0.26,1.71,0.56c0.18,0.26,0.22,0.52,0.22,1.21
		c0,0.91-0.09,2.04-2.19,5.9c-2.06,3.86-6.09,9.15-10.55,13.66l-1.27,0.13l-0.31-0.22C588.23,140.9,587.88,136.09,587.26,131.49z"/>
	<path d="M603.9,140.12c0-6.98,5.3-13.66,11.43-13.66c2.8,0,4.38,1.43,4.38,3.99c0,2.78-2.76,6.72-12.74,9.58
		c0.18,3.69,1.84,5.16,4.51,5.16c2.76,0,4.73-1.69,5.91-3.17l1.01,0.78c-1.84,2.95-4.69,5.38-7.93,5.38
		C606.66,148.19,603.9,145.67,603.9,140.12z M606.97,138.34c7.27-2.08,9.81-5.12,9.81-7.46c0-1.6-0.96-2.56-2.41-2.56
		C611.65,128.33,607.41,132.92,606.97,138.34z"/>
	<path d="M633.2,133.27c0-2.91,2.45-4.94,4.77-4.94c2.28,0,3.98,1.56,3.98,3.82c0,3.04-2.45,4.99-4.77,4.99
		C634.86,137.13,633.2,135.61,633.2,133.27z"/>
	<path d="M655.45,146.11l6.13-0.61l4.64-22.77l-6.04,0.48l0.35-1.73l9.24-2.3l0.48,0.43l-1.44,6.2l-2.58,12.66
		c-0.48,2.34-0.92,4.68-1.4,6.98l6.52,0.65l-0.35,1.52h-15.85L655.45,146.11z"/>
	<path d="M693.32,134.18c-2.1,1.3-4.07,1.95-6.09,1.95c-4.47,0-7.31-3.04-7.31-7.29c0-5.64,4.47-9.8,9.77-9.8
		c5.04,0,7.8,3.73,7.8,9.45c0,9.37-6.88,16.7-18.52,19.73l-0.39-1.65C686.54,143.94,691.44,139.86,693.32,134.18z M688.73,134.09
		c1.58,0,3.07-0.48,4.99-1.43c0.31-1.3,0.44-2.69,0.44-4.16c0-4.81-1.62-7.72-4.95-7.72c-3.33,0-6,3.29-6,7.42
		C683.21,131.84,685.27,134.09,688.73,134.09z"/>
	<path d="M715.7,134.18c-2.1,1.3-4.07,1.95-6.09,1.95c-4.47,0-7.31-3.04-7.31-7.29c0-5.64,4.47-9.8,9.77-9.8
		c5.04,0,7.8,3.73,7.8,9.45c0,9.37-6.88,16.7-18.52,19.73l-0.39-1.65C708.91,143.94,713.82,139.86,715.7,134.18z M711.1,134.09
		c1.58,0,3.07-0.48,4.99-1.43c0.31-1.3,0.44-2.69,0.44-4.16c0-4.81-1.62-7.72-4.95-7.72c-3.33,0-6,3.29-6,7.42
		C705.59,131.84,707.64,134.09,711.1,134.09z"/>
	<path d="M738.08,134.18c-2.1,1.3-4.07,1.95-6.09,1.95c-4.47,0-7.31-3.04-7.31-7.29c0-5.64,4.47-9.8,9.77-9.8
		c5.04,0,7.8,3.73,7.8,9.45c0,9.37-6.88,16.7-18.52,19.73l-0.39-1.65C731.29,143.94,736.2,139.86,738.08,134.18z M733.48,134.09
		c1.58,0,3.07-0.48,4.99-1.43c0.31-1.3,0.44-2.69,0.44-4.16c0-4.81-1.62-7.72-4.95-7.72c-3.33,0-6,3.29-6,7.42
		C727.96,131.84,730.02,134.09,733.48,134.09z"/>
	<path d="M744.56,135.05h18.87v2.78h-18.87V135.05z"/>
	<path d="M767.07,144.85l6.44-6.03c7.66-7.16,9.72-9.67,9.72-12.97c0-3.34-1.84-5.07-5.08-5.07c-1.31,0-2.41,0.26-3.42,0.87
		l-0.31,2.64c-0.31,2.6-1.05,3.21-2.23,3.21c-0.92,0-1.62-0.74-1.75-1.61c1.05-4.86,3.85-6.89,8.58-6.89c5.3,0,7.66,2.91,7.66,6.68
		c0,4.9-4.29,7.72-11.43,14.05l-5.08,4.55h13.62l-0.7,3.34h-16.6L767.07,144.85z"/>
	<path d="M789.4,138.43c0-10.8,5.65-19.25,12.7-19.25c4.6,0,7.27,3.12,7.27,9.58c0,10.71-6,19.25-12.74,19.25
		C792.07,148.02,789.4,144.5,789.4,138.43z M805.87,128.72c0-5.81-1.88-7.68-4.2-7.68c-4.12,0-8.8,7.55-8.8,17.13
		c0,6.03,1.62,8.02,4.2,8.02C801.31,146.19,805.87,138.69,805.87,128.72z"/>
	<path d="M811.82,144.85l6.44-6.03c7.66-7.16,9.72-9.67,9.72-12.97c0-3.34-1.84-5.07-5.08-5.07c-1.31,0-2.41,0.26-3.42,0.87
		l-0.31,2.64c-0.31,2.6-1.05,3.21-2.23,3.21c-0.92,0-1.62-0.74-1.75-1.61c1.05-4.86,3.85-6.89,8.58-6.89c5.3,0,7.66,2.91,7.66,6.68
		c0,4.9-4.29,7.72-11.43,14.05l-5.08,4.55h13.62l-0.7,3.34h-16.6L811.82,144.85z"/>
	<path d="M834.51,140.69c0.39-0.78,0.92-1.13,1.8-1.08c1.27,0.04,1.8,0.95,1.8,2.6v3.3c1.27,0.65,2.63,0.95,4.03,0.95
		c3.68,0,6.53-2.3,6.53-6.85c0-3.47-1.8-5.38-5.69-5.38h-1.49l0.35-1.86h1.66c3.42,0,6.7-2.21,6.7-6.85c0-3.25-2.01-4.73-4.42-4.73
		c-1.36,0-2.54,0.22-3.68,0.74l-0.31,2.86c-0.18,1.52-0.74,2.56-2.06,2.56c-0.83,0-1.75-0.65-1.88-1.47
		c0.92-4.08,3.72-6.46,8.54-6.46c4.64,0,7.18,2.73,7.18,6.42c0,4.21-2.98,6.81-7.05,7.85c3.72,0.82,5.69,3.12,5.69,6.55
		c0,5.51-4.82,8.37-10.12,8.37C837.79,148.19,834.51,146.32,834.51,140.69z"/>
</g>
</svg>
