<?xml version="1.0" encoding="utf-8"?>
<!-- Generator: Adobe Illustrator 27.5.0, SVG Export Plug-In . SVG Version: 6.00 Build 0)  -->
<svg version="1.1" id="Layer_1" xmlns="http://www.w3.org/2000/svg" xmlns:xlink="http://www.w3.org/1999/xlink" x="0px" y="0px"
	 viewBox="0 0 878 181" style="enable-background:new 0 0 878 181;" xml:space="preserve">
<g>
	<path d="M0.15,0v180.61h180.61V0H0.15z M151.33,139.08c-10.23,14.34-24.54,21.4-41.92,22.11c-17.38,0.71-33.63-3.88-48.96-11.83
		c-11.29-5.85-21.16-13.53-28.9-23.71c-14.97-19.7-15.64-40.55-3.58-61.6c12.8-22.35,32.49-35.89,57.7-40.53
		c18.6-3.43,34.94,2.74,48.85,15.18c14.91,13.32,22.98,30.41,26.32,49.87c0.79,4.58,1.02,9.25,1.5,13.88
		C162.09,115.73,159.11,128.17,151.33,139.08z"/>
	<path d="M84.7,40.58C62.78,48.52,48.26,64.05,41.94,86.5c-5.45,19.36,1.73,36.13,18.97,46.56c10.37,6.27,21.77,8.64,33.8,8.47
		c28.61-0.4,49.52-21.25,49.51-49.43c-0.01-12.38-4.21-25.17-11.56-35.17C120.99,41.05,102.15,34.26,84.7,40.58z M116.61,116.35
		c-6.68,4.7-14.35,5.93-21.26,6.1c-8.99-0.23-16.58-1.74-23.23-6.47c-8.89-6.32-11.96-16.38-8.15-26.59
		c2.74-7.34,7.05-13.57,13.15-18.52c10.45-8.47,21.95-8.64,32.39-0.21c8.78,7.09,14.36,16.23,15.83,27.5
		C126.37,105.97,122.89,111.93,116.61,116.35z"/>
</g>
<g>
	<path d="M195.62,30.44h23.48v1.74L212.43,33c-0.27,7.22-0.37,17.18-0.37,25.49v4.02c0,8.68,0.09,19.1,0.37,26.31h17.54l5.76-15.53
		h1.74l-1.1,17.82h-40.75v-1.74l6.76-0.82c0.27-7.31,0.27-17.54,0.27-26.04v-4.02c0-8.31,0-18.27-0.27-25.49l-6.76-0.82V30.44z"/>
	<path d="M242.4,89.37l5.76-0.82c0.18-4.75,0.18-11.7,0.18-16.72v-3.47c0-5.39,0-8.68-0.18-12.61l-6.12-1.55v-1.46l14.71-4.39
		l0.91,0.82l-0.37,11.79v10.87c0,5.03,0.09,12.06,0.27,16.81l5.3,0.73v1.74H242.4V89.37z M247.15,34.55c0-3.29,2.47-5.48,5.57-5.48
		s5.57,2.19,5.57,5.48s-2.47,5.48-5.57,5.48S247.15,37.84,247.15,34.55z"/>
	<path d="M267.89,89.37l5.76-0.82c0.18-4.75,0.18-11.7,0.18-16.72V52h-6.3v-1.74l6.49-1.1v-0.18c0.55-10.96,3.38-17.36,7.95-21.84
		c3.2-3.01,7.31-4.39,11.6-4.39c3.75,0,7.77,1.64,8.68,4.93c-0.18,2.47-2.28,3.93-4.84,3.93c-2.56,0-4.39-1.1-6.76-4.02l-2.1-2.19
		c-0.64,0.46-1.37,1.1-2.01,2.1c-2.92,4.48-4.11,11.06-3.75,22.02h10.42V52h-10.42v19.83c0,4.93,0.09,11.88,0.27,16.63l7.77,0.91
		v1.74h-22.93V89.37z"/>
	<path d="M298.32,71.1c0-14.25,8.95-22.75,19.1-22.75c9.32,0,15.9,6.3,15.9,15.81c0,2.01-0.18,3.11-0.55,4.39h-25.13v0.73
		c0,11.06,5.66,17.54,13.34,17.54c4.93,0,8.5-2.19,11.24-5.57l1.28,0.91c-3.29,7.04-9.05,10.14-15.9,10.14
		C306.82,92.29,298.32,84.53,298.32,71.1z M307.73,66.44h11.97c4.2,0,5.57-1.37,5.57-5.39c0-6.85-3.11-10.51-7.77-10.51
		S308.37,54.74,307.73,66.44z"/>
	<path d="M358.99,70.46c0-13.8,8.77-22.11,19.92-22.11c11.51,0,19.92,7.95,19.92,21.84c0,13.8-8.95,22.11-19.92,22.11
		C367.31,92.29,358.99,84.25,358.99,70.46z M389.14,70.18c0-13.8-3.84-19.74-10.23-19.74s-10.23,6.12-10.23,20.01
		c0,13.89,3.84,19.74,10.23,19.74S389.14,84.07,389.14,70.18z"/>
	<path d="M405.13,89.37l5.76-0.82c0.18-4.75,0.18-11.7,0.18-16.72V52h-6.3v-1.74l6.49-1.1v-0.18c0.55-10.96,3.38-17.36,7.95-21.84
		c3.2-3.01,7.31-4.39,11.6-4.39c3.75,0,7.77,1.64,8.68,4.93c-0.18,2.47-2.28,3.93-4.84,3.93c-2.56,0-4.39-1.1-6.76-4.02l-2.1-2.19
		c-0.64,0.46-1.37,1.1-2.01,2.1c-2.92,4.48-4.11,11.06-3.75,22.02h10.42V52h-10.42v19.83c0,4.93,0.09,11.88,0.27,16.63l7.77,0.91
		v1.74h-22.93V89.37z"/>
	<path d="M453.47,30.44h23.48v1.74L470.28,33c-0.27,7.22-0.37,17.18-0.37,25.49v4.02c0,8.68,0.09,19.1,0.37,26.31h17.54l5.76-15.53
		h1.74l-1.1,17.82h-40.75v-1.74l6.76-0.82c0.27-7.31,0.27-17.54,0.27-26.04v-4.02c0-8.31,0-18.27-0.27-25.49l-6.76-0.82V30.44z"/>
	<path d="M523.64,85.81c-3.65,4.75-7.49,6.49-12.24,6.49c-6.12,0-10.78-3.65-10.78-10.32c0-5.67,3.11-10.14,14.53-13.8
		c2.01-0.73,4.93-1.55,8.41-2.38v-3.2c0-8.95-2.1-11.79-7.68-11.79c-1.28,0-2.38,0.18-3.56,0.55l-1,5.76
		c-0.46,3.93-2.56,5.57-5.03,5.57s-3.65-1.37-4.11-3.84c1.01-6.21,7.58-10.51,16.81-10.51c9.32,0,13.52,4.66,13.52,15.26v20.38
		c0,2.92,0.91,3.93,2.47,3.93c1.37,0,2.19-0.64,3.65-2.28l1.1,0.91c-1.37,3.29-3.93,5.57-8.04,5.57
		C526.93,92.11,524.28,89.83,523.64,85.81z M515.79,87c2.74,0,4.75-0.55,7.77-3.02V67.62c-2.83,0.91-4.93,1.65-6.12,2.19
		c-6.21,2.74-8.04,6.03-8.04,10.05C509.39,84.89,512.13,87,515.79,87z"/>
	<path d="M591.81,49.53h13.34v1.74l-4.48,0.64l-13.25,39.47h-3.84l-10.51-31.07l-10.6,31.07h-3.84l-13.71-39.47l-4.11-0.64v-1.74
		h20.01v1.64l-5.76,0.91l8.77,28.23l9.32-28.42l-6.03-0.73v-1.64h18.27v1.64l-6.03,0.91l9.41,28.23L597.93,52l-6.12-0.82V49.53z"/>
	<path d="M650.1,85.81c-3.65,4.75-7.49,6.49-12.24,6.49c-6.12,0-10.78-3.65-10.78-10.32c0-5.67,3.11-10.14,14.53-13.8
		c2.01-0.73,4.93-1.55,8.41-2.38v-3.2c0-8.95-2.1-11.79-7.68-11.79c-1.28,0-2.38,0.18-3.56,0.55l-1,5.76
		c-0.46,3.93-2.56,5.57-5.03,5.57s-3.65-1.37-4.11-3.84c1.01-6.21,7.58-10.51,16.81-10.51c9.32,0,13.52,4.66,13.52,15.26v20.38
		c0,2.92,0.91,3.93,2.47,3.93c1.37,0,2.19-0.64,3.65-2.28l1.1,0.91c-1.37,3.29-3.93,5.57-8.04,5.57
		C653.39,92.11,650.74,89.83,650.1,85.81z M642.25,87c2.74,0,4.75-0.55,7.77-3.02V67.62c-2.83,0.91-4.93,1.65-6.12,2.19
		c-6.21,2.74-8.04,6.03-8.04,10.05C635.85,84.89,638.59,87,642.25,87z"/>
	<path d="M670.85,88.82l0.55-11.33h1.46l4.11,11.79c2.01,0.73,4.02,1.1,6.85,1.1c5.57,0,8.68-3.2,8.68-7.58
		c0-4.66-3.93-6.58-8.41-8.5l-2.56-1.1c-5.21-2.19-10.42-5.03-10.42-12.24c0-7.13,4.93-12.61,14.71-12.61c4.57,0,8.04,1.1,11.6,3.2
		l-0.37,10.6h-1.55l-3.93-10.69c-1.64-0.82-3.47-1.1-5.76-1.1c-5.12,0-8.04,2.83-8.04,6.85c0,4.57,3.84,6.58,8.31,8.5l2.56,1.1
		c5.39,2.28,10.87,5.03,10.87,12.43c0,7.95-5.57,13.07-15.72,13.07C678.7,92.29,674.96,91.11,670.85,88.82z"/>
	<path d="M722.38,89.37l5.94-0.82l18.73-58.57h4.48l19.1,58.48l5.85,0.91v1.74h-23.48v-1.74l7.31-0.91l-5.57-18.27h-17.82
		l-5.66,18.37l7.67,0.82v1.74h-16.54V89.37z M754.09,67.9l-8.13-26.59l-8.31,26.59H754.09z"/>
	<path d="M780.31,89.37l5.76-0.82c0.18-4.75,0.18-11.7,0.18-16.72v-3.47c0-5.39,0-8.68-0.18-12.61l-6.12-1.55v-1.46l14.35-4.39
		l0.91,0.82v11.79c3.02-8.41,7.4-12.61,12.7-12.61c3.2,0,5.57,1.46,6.3,4.84c-0.27,3.56-2.74,5.39-5.57,5.39
		c-2.38,0-4.2-1-5.94-3.56l-0.82-1.1c-2.56,2.19-5.21,6.12-6.67,11.06v6.85c0,5.03,0.09,11.97,0.27,16.72l6.4,0.82v1.74h-21.56
		V89.37z"/>
	<path d="M821.89,82.06V71.65L822.07,52h-6.21v-1.74l6.67-1.19l5.76-13.43h3.02l-0.37,13.89h10.6V52h-10.6v29.7
		c0,4.57,2.01,6.21,5.03,6.21c2.38,0,4.2-1,5.85-2.83l1.19,0.91c-2.01,4.02-5.02,6.3-10.51,6.3
		C825.91,92.29,821.89,89.01,821.89,82.06z"/>
</g>
<g>
	<path d="M197.78,153.22l5.41-0.39l22.23-42.98h1.32l5.94,43.05l6.73,0.33l-0.26,1.31h-16.36l0.26-1.31l7.39-0.39l-1.91-14.44
		h-16.17l-7.39,14.44l5.87,0.39l-0.26,1.31h-13.06L197.78,153.22z M228.32,137.08l-3.1-23.97l-12.21,23.97H228.32z"/>
	<path d="M246.21,154.52l6.33-29.53l-8.18-0.13l0.2-0.92l9.11-0.98l0.86,0.65l-1.45,7.19c5.01-4.9,10.89-7.84,14.25-7.84
		c2.9,0,4.29,1.63,4.29,4.18c0,2.02-0.53,3.79-1.12,6.4l-3.43,14.5c-0.26,1.24-0.73,2.81-0.73,3.98s0.66,1.63,1.91,1.63
		c2.24,0,4.95-2.22,7.72-5.68l0.66,0.52c-2.77,3.92-5.67,6.86-9.3,6.86c-1.58,0-2.77-1.11-2.77-2.68c0-1.7,0.33-2.61,0.79-4.64
		l3.43-14.7c0.46-2.09,0.99-4.18,0.99-5.88c0-2.02-0.99-2.87-2.84-2.87c-3.43,0-7.52,1.96-14.12,7.71l-1.98,8.69
		c-1.06,4.51-1.91,9.01-2.84,13.52l-1.39,0.33L246.21,154.52z"/>
	<path d="M289.95,153.22l5.41-0.39l22.24-42.98h1.32l5.94,43.05l6.73,0.33l-0.26,1.31h-16.36l0.26-1.31l7.39-0.39l-1.91-14.44
		h-16.16l-7.39,14.44l5.87,0.39l-0.26,1.31h-13.06L289.95,153.22z M320.5,137.08l-3.1-23.97l-12.21,23.97H320.5z"/>
	<path d="M344.71,125l-8.18-0.13l0.2-0.92l8.97-0.98l0.86,0.65l-2.05,10.12c2.9-5.55,6.73-10.78,10.89-10.78
		c2.18,0,3.43,0.52,3.96,1.37c-0.13,1.04-0.66,1.76-1.72,1.76c-1.32,0-2.44-0.46-3.76-1.24l-0.53-0.33
		c-3.04,1.89-6.27,6.14-9.3,11.56L343,141c-0.99,4.51-1.91,9.01-2.84,13.52l-1.39,0.33l-0.4-0.33L344.71,125z"/>
	<path d="M359.76,144.14c0-10.97,8.38-21.16,16.82-21.16c3.03,0,5.61,2.16,6.14,3.79c0.07,0.59-0.59,1.11-1.12,1.11
		c-0.59,0-0.92-0.2-1.91-1.11l-2.9-2.74c-8.64,0.46-15.24,10.71-15.24,19.47c0,6.86,3.17,10.26,8.25,10.26
		c3.83,0,6.93-2.09,9.63-5.75l0.73,0.52c-2.84,4.31-6.33,6.86-10.95,6.86C364.31,155.37,359.76,152.04,359.76,144.14z"/>
	<path d="M386.02,154.52l6.93-33.77c0.92-4.38,1.72-8.69,2.51-13.07l-7.98-0.13l0.2-0.92l9.3-0.98l0.66,0.65l-5.08,24.56
		c5.01-4.9,10.95-7.9,14.32-7.9c2.9,0,4.29,1.63,4.29,4.18c0,2.02-0.53,3.79-1.12,6.4l-3.43,14.5c-0.26,1.24-0.73,2.81-0.73,3.98
		s0.66,1.63,1.91,1.63c2.24,0,4.95-2.22,7.72-5.68l0.66,0.52c-2.77,3.92-5.67,6.86-9.3,6.86c-1.58,0-2.77-1.11-2.77-2.68
		c0-1.7,0.33-2.61,0.79-4.64l3.43-14.7c0.46-2.09,0.99-4.18,0.99-5.88c0-2.02-0.99-2.87-2.84-2.87c-3.43,0-7.52,1.96-14.19,7.77
		L390.5,141c-0.92,4.51-1.85,9.01-2.71,13.52l-1.39,0.33L386.02,154.52z"/>
	<path d="M423.76,148.06l5.01-23.06l-8.18-0.13l0.2-0.92l9.24-0.98l0.86,0.65l-5.41,24.43c-0.26,1.24-0.73,2.81-0.73,3.98
		s0.66,1.63,1.91,1.63c2.24,0,4.95-2.22,7.72-5.68l0.66,0.52c-2.77,3.92-5.67,6.86-9.3,6.86c-1.58,0-2.77-1.11-2.77-2.68
		C422.97,151,423.3,150.08,423.76,148.06z M430.03,109.84c0-1.44,1.19-2.29,2.18-2.29c1.06,0,1.91,0.65,1.91,1.76
		c0,1.5-1.19,2.35-2.18,2.35C430.95,111.67,430.03,111.08,430.03,109.84z"/>
	<path d="M446,128.72c-0.53-3.27-1.25-4.05-2.57-4.05c-1.52,0-3.17,0.78-5.48,5.29l-0.86-0.39c2.24-4.9,4.29-6.6,6.93-6.6
		c2.18,0,3.36,1.37,3.89,5.68c0.86,7.12,0.99,14.04,1.06,23.84c5.54-6.53,9.63-12.61,12.27-18.49c0.53-1.18,0.99-2.22,1.45-3.92
		l-0.13-1.11c-0.13-0.98-0.4-2.74-0.4-3.66c0-1.5,0.92-2.35,1.72-2.35c0.46,0,0.79,0.13,0.99,0.33c0.26,0.52,0.33,0.98,0.33,2.03
		c0,1.63-0.26,4.51-2.64,9.21c-2.9,5.75-7.26,12.61-14.32,20.45l-0.46,0.07l-0.26-0.2C447.18,143.29,447.12,135.91,446,128.72z"/>
	<path d="M469.09,143.94c0-10.19,7.98-20.97,16.89-20.97c3.17,0,5.81,1.5,5.81,4.9c0,6.34-7.92,12.08-20.98,15.55
		c0,6.92,3.17,10.32,8.25,10.32c3.83,0,6.86-2.02,9.63-5.75l0.73,0.52c-2.84,4.31-6.33,6.86-11.02,6.86
		C473.64,155.37,469.09,152.3,469.09,143.94z M470.87,142.31c12.21-3.4,19.33-8.56,19.33-14.31c0-2.55-1.85-3.79-4.62-3.79
		C478.46,124.21,471.4,133.55,470.87,142.31z"/>
	<path d="M513.89,131.59c0-2.68,2.18-4.64,4.88-4.64c2.38,0,3.83,1.83,3.83,3.79c0,2.87-2.05,4.7-4.75,4.7
		C515.34,135.45,513.89,133.42,513.89,131.59z"/>
	<path d="M545.16,153.22l10.03-0.39l8.18-39.65l-10.23,2.29l0.26-1.31l11.48-3.2l0.73,0.78l-2.24,9.54l-3.96,19.33
		c-0.79,4.05-1.65,8.17-2.44,12.22l10.16,0.39l-0.26,1.31h-22.04L545.16,153.22z"/>
	<path d="M604.08,132.38c-3.63,2.55-7.06,3.98-10.89,3.98c-6.86,0-11.28-4.57-11.28-11.37c0-7.64,6.2-14.04,13.66-14.04
		c7.06,0,11.08,5.29,11.08,14.11c0,15.94-9.1,25.87-28.7,30.31l-0.33-1.11C593.2,150.47,601.71,143.48,604.08,132.38z
		 M593.66,135.06c3.76,0,7.26-1.57,10.75-4.18c0.26-1.76,0.4-3.66,0.4-5.62c0-8.3-3.3-13-9.37-13c-6.27,0-11.61,5.49-11.61,12.61
		C583.83,131.2,587.52,135.06,593.66,135.06z"/>
	<path d="M637.73,132.38c-3.63,2.55-7.06,3.98-10.89,3.98c-6.86,0-11.28-4.57-11.28-11.37c0-7.64,6.2-14.04,13.66-14.04
		c7.06,0,11.08,5.29,11.08,14.11c0,15.94-9.1,25.87-28.7,30.31l-0.33-1.11C626.85,150.47,635.36,143.48,637.73,132.38z
		 M627.31,135.06c3.76,0,7.26-1.57,10.75-4.18c0.26-1.76,0.4-3.66,0.4-5.62c0-8.3-3.3-13-9.37-13c-6.27,0-11.61,5.49-11.61,12.61
		C617.48,131.2,621.17,135.06,627.31,135.06z"/>
	<path d="M671.38,132.38c-3.63,2.55-7.06,3.98-10.89,3.98c-6.86,0-11.28-4.57-11.28-11.37c0-7.64,6.2-14.04,13.66-14.04
		c7.06,0,11.08,5.29,11.08,14.11c0,15.94-9.1,25.87-28.7,30.31l-0.33-1.11C660.5,150.47,669.01,143.48,671.38,132.38z
		 M660.96,135.06c3.76,0,7.26-1.57,10.75-4.18c0.26-1.76,0.4-3.66,0.4-5.62c0-8.3-3.3-13-9.37-13c-6.27,0-11.61,5.49-11.61,12.61
		C651.13,131.2,654.82,135.06,660.96,135.06z"/>
	<path d="M677.92,137.41h28.37v1.7h-28.37V137.41z"/>
	<path d="M711.63,153.09l8.25-7.38c16.3-14.57,19.86-18.49,19.86-25.08c0-4.83-3.17-8.36-9.7-8.36c-3.76,0-7.92,1.76-9.5,5.62
		l0.13,4.18c0.07,1.44-0.66,2.22-1.58,2.22c-0.59,0-1.19-0.33-1.45-0.98c0.59-8.49,6.4-12.35,12.93-12.35
		c6.86,0,11.02,3.85,11.02,9.47c0,7.19-4.22,11.5-20.65,26l-7.13,6.27h23.88l-0.4,1.83h-25.93L711.63,153.09z"/>
	<path d="M747.13,141.79c0-16.4,8.12-30.83,18.28-30.83c5.54,0,10.36,4.44,10.36,13.59c0,16.79-8.05,30.83-18.14,30.83
		C751.95,155.37,747.13,150.93,747.13,141.79z M773.92,124.87c0-8.88-4.09-12.61-8.71-12.61c-9.04,0-16.23,13.91-16.23,29.33
		c0,8.62,3.96,12.48,8.84,12.48C766.99,154.07,773.92,140.54,773.92,124.87z"/>
	<path d="M778.93,153.09l8.25-7.38c16.3-14.57,19.86-18.49,19.86-25.08c0-4.83-3.17-8.36-9.7-8.36c-3.76,0-7.92,1.76-9.5,5.62
		l0.13,4.18c0.07,1.44-0.66,2.22-1.58,2.22c-0.59,0-1.19-0.33-1.45-0.98c0.59-8.49,6.4-12.35,12.93-12.35
		c6.86,0,11.02,3.85,11.02,9.47c0,7.19-4.22,11.5-20.65,26l-7.13,6.27h23.88l-0.4,1.83h-25.93L778.93,153.09z"/>
	<path d="M814.5,144.33c0.2-0.65,0.73-0.98,1.25-0.98c0.86,0,1.25,0.59,1.19,1.37l-0.2,4.9c2.11,3.27,5.34,4.44,9.24,4.44
		c6.47,0,12.01-3.66,12.01-11.5c0-6.14-4.16-9.01-10.56-9.01h-2.64l0.26-1.31h2.57c5.87,0,12.87-4.18,12.87-11.43
		c0-4.96-2.44-8.56-8.78-8.56c-3.23,0-6.66,1.24-8.77,3.72l-0.73,4.51c-0.13,0.98-0.73,1.37-1.45,1.37c-0.66,0-1.25-0.52-1.19-1.63
		c1.78-6.66,6.27-9.28,12.4-9.28c7.26,0,10.36,4.31,10.36,9.8c0,5.62-5.15,10.97-11.55,12.08c5.94,0.72,9.04,4.57,9.04,9.8
		c0,8.95-7.26,12.74-14.12,12.74C819.25,155.37,814.1,151.98,814.5,144.33z"/>
</g>
</svg>
