<?xml version="1.0" encoding="utf-8"?>
<!-- Generator: Adobe Illustrator 27.5.0, SVG Export Plug-In . SVG Version: 6.00 Build 0)  -->
<svg version="1.1" id="Layer_1" xmlns="http://www.w3.org/2000/svg" xmlns:xlink="http://www.w3.org/1999/xlink" x="0px" y="0px"
	 viewBox="0 0 962 206" style="enable-background:new 0 0 962 206;" xml:space="preserve">
<g>
	<path d="M0.15-0.37v205.98h205.98V-0.37H0.15z M172.56,158.24c-11.66,16.35-27.99,24.41-47.81,25.22
		c-19.82,0.81-38.35-4.43-55.84-13.49c-12.87-6.67-24.13-15.43-32.95-27.04c-17.07-22.47-17.83-46.25-4.09-70.26
		c14.59-25.49,37.05-40.93,65.81-46.22c21.21-3.91,39.84,3.13,55.71,17.31c17,15.19,26.2,34.68,30.02,56.87
		c0.9,5.22,1.16,10.55,1.72,15.83C184.83,131.62,181.43,145.8,172.56,158.24z"/>
	<path d="M96.58,45.91c-25,9.06-41.56,26.77-48.77,52.37c-6.21,22.08,1.97,41.21,21.64,53.11c11.83,7.16,24.83,9.85,38.55,9.66
		c32.62-0.45,56.48-24.24,56.46-56.37c-0.01-14.12-4.8-28.71-13.18-40.11C137.96,46.45,116.48,38.7,96.58,45.91z M132.97,132.33
		c-7.62,5.37-16.37,6.76-24.24,6.96c-10.25-0.27-18.91-1.99-26.49-7.38c-10.14-7.21-13.64-18.68-9.29-30.32
		c3.13-8.37,8.04-15.47,15-21.12c11.91-9.66,25.03-9.86,36.94-0.24c10.01,8.08,16.38,18.51,18.06,31.37
		C144.1,120.49,140.13,127.29,132.97,132.33z"/>
</g>
<g>
	<path d="M272.01,106.3h-43.63v-2.82c1.29-0.08,4.27-0.4,5.24-0.73c1.69-0.73,2.26-2.26,2.26-4.03v-40c0-1.77-0.48-3.15-2.26-4.03
		c-1.29-0.65-3.95-1.37-5.24-1.45v-2.82h23.55v2.82c-1.29,0.08-4.03,0.56-5.4,0.97c-1.77,0.73-2.26,2.34-2.26,4.11v37.5
		c0,6.77,0.81,7.42,9.11,7.42c3.95,0,8.71-0.4,10.32-2.1c2.1-2.26,5.65-8.63,6.69-11.45h2.82L272.01,106.3z"/>
	<path d="M280.96,106.3v-2.58c1.45-0.16,2.42-0.16,3.55-0.48c1.53-0.48,2.18-1.77,2.18-3.55V75.74c0-1.69-0.89-3.15-2.18-4.11
		c-0.97-0.64-3.31-1.13-4.76-1.21v-2.58l13.71-0.81l0.56,0.56V99.2c0,1.77,0.73,3.06,2.18,3.63c1.21,0.48,2.1,0.73,3.55,0.89v2.58
		H280.96z M289.66,57.27c-2.66,0-4.92-2.42-4.92-5.24c0-2.9,2.26-5.4,4.92-5.4c2.98,0,5.16,2.34,5.16,5.08
		C294.83,54.69,292.57,57.27,289.66,57.27z"/>
	<path d="M334.42,54.2c-3.31,0-4.84-3.15-6.45-5.56c-3.47,0.16-5.48,4.84-5.48,15v4.03h10v3.71h-10v27.9c0,1.77,0.73,2.98,2.18,3.55
		c1.21,0.48,3.79,0.73,5.24,0.89v2.58h-20.48v-2.58c1.45-0.16,2.42-0.16,3.55-0.48c1.53-0.48,2.18-1.77,2.18-3.55V71.38h-7.66v-3.71
		h7.66v-2.5c0-11.93,6.85-19.84,16.05-19.84c4.68,0,7.1,2.1,7.1,4.68C338.29,51.95,337.32,54.2,334.42,54.2z"/>
	<path d="M358.93,107.35c-12.66,0-18.55-9.44-18.55-20.81c0-10.32,6.69-20.16,17.74-20.16c11.53,0,15.81,7.82,15.81,16.69v2.58
		h-25.72c0,9.92,3.79,17.34,12.98,17.34c5.65,0,8.15-2.74,10.97-7.5l2.74,1.69C371.83,103.15,366.11,107.35,358.93,107.35z
		 M358.04,69.36c-5.32,0-9.52,4.68-9.84,12.98h17.98C366.19,75.9,364.66,69.36,358.04,69.36z"/>
	<path d="M426.99,107.51c-9.92,0-18.63-7.9-18.63-20.48c0-12.18,7.66-20.64,19.19-20.64c11.53,0,18.71,8.63,18.71,20.08
		S439.41,107.51,426.99,107.51z M427.47,69.36c-8.55,0-10.97,9.19-10.97,17.02c0,9.76,3.23,18.14,10.97,18.14
		c7.34,0,10.65-8.23,10.65-17.98C438.12,77.99,435.45,69.36,427.47,69.36z"/>
	<path d="M481.82,54.2c-3.31,0-4.84-3.15-6.45-5.56c-3.47,0.16-5.48,4.84-5.48,15v4.03h10v3.71h-10v27.9c0,1.77,0.73,2.98,2.18,3.55
		c1.21,0.48,3.79,0.73,5.24,0.89v2.58h-20.48v-2.58c1.45-0.16,2.42-0.16,3.55-0.48c1.53-0.48,2.18-1.77,2.18-3.55V71.38h-7.66v-3.71
		h7.66v-2.5c0-11.93,6.85-19.84,16.05-19.84c4.68,0,7.1,2.1,7.1,4.68C485.69,51.95,484.72,54.2,481.82,54.2z"/>
	<path d="M556.73,106.3H513.1v-2.82c1.29-0.08,4.27-0.4,5.24-0.73c1.69-0.73,2.26-2.26,2.26-4.03v-40c0-1.77-0.48-3.15-2.26-4.03
		c-1.29-0.65-3.95-1.37-5.24-1.45v-2.82h23.55v2.82c-1.29,0.08-4.03,0.56-5.4,0.97c-1.77,0.73-2.26,2.34-2.26,4.11v37.5
		c0,6.77,0.81,7.42,9.11,7.42c3.95,0,8.71-0.4,10.32-2.1c2.1-2.26,5.65-8.63,6.69-11.45h2.82L556.73,106.3z"/>
	<path d="M596,107.11c-4.11,0-6.61-2.02-7.26-5.65h-0.24c-3.15,3.55-7.42,5.81-12.58,5.81c-5.89,0-10-3.87-10-9.68
		c0-6.45,3.95-9.19,8.15-10.81c4.68-1.85,10.97-3.47,14.52-5.32v-3.87c0-1.53-0.56-8.31-7.42-8.31c-2.66,0-4.84,0.97-5.56,1.85
		c0,1.29,0.73,3.14,0.73,5.16c0,1.85-1.77,3.63-4.68,3.63c-2.74,0-3.79-2.18-3.79-4.52c0-5,7.58-9.03,13.79-9.03
		c8.23,0,14.35,2.1,14.35,12.82c0,7.5-0.24,12.5-0.24,19.43c0,2.02,0.65,3.15,2.18,4.03c0.89,0.48,2.98,0.4,4.44,0.4v2.5
		C600.27,106.38,598.02,107.11,596,107.11z M573.82,96.62c0,4.35,2.58,6.29,6.05,6.29c4.35,0,6.61-2.42,8.55-4.52l0.24-13.63
		C580.27,87.27,573.82,89.85,573.82,96.62z"/>
	<path d="M662.61,75.01c-3.15,9.35-4.44,12.98-7.66,22.66c-1.13,3.31-1.69,5.08-2.74,8.87h-3.39l-10.4-28.55l-10.56,28.55h-3.23
		L613.9,74.28c-0.81-2.42-3.63-3.95-5.81-4.19v-2.58h17.26v2.74c-1.85,0.08-4.27,0.4-4.27,1.69c0,0.16,0.16,0.81,0.48,1.77
		l6.94,22.5l9.92-27.98h3.79l10.08,27.58c2.74-8.23,4.35-12.98,6.37-19.52c0.32-1.13,0.73-2.58,0.73-3.55
		c0-1.94-4.03-2.74-5.24-2.74v-2.5h14.76v2.5C666.72,70.25,663.74,71.78,662.61,75.01z"/>
	<path d="M730.02,107.11c-4.11,0-6.61-2.02-7.26-5.65h-0.24c-3.15,3.55-7.42,5.81-12.58,5.81c-5.89,0-10-3.87-10-9.68
		c0-6.45,3.95-9.19,8.15-10.81c4.68-1.85,10.97-3.47,14.52-5.32v-3.87c0-1.53-0.56-8.31-7.42-8.31c-2.66,0-4.84,0.97-5.56,1.85
		c0,1.29,0.73,3.14,0.73,5.16c0,1.85-1.77,3.63-4.68,3.63c-2.74,0-3.79-2.18-3.79-4.52c0-5,7.58-9.03,13.79-9.03
		c8.23,0,14.35,2.1,14.35,12.82c0,7.5-0.24,12.5-0.24,19.43c0,2.02,0.65,3.15,2.18,4.03c0.89,0.48,2.98,0.4,4.44,0.4v2.5
		C734.29,106.38,732.03,107.11,730.02,107.11z M707.84,96.62c0,4.35,2.58,6.29,6.05,6.29c4.35,0,6.61-2.42,8.55-4.52l0.24-13.63
		C714.29,87.27,707.84,89.85,707.84,96.62z"/>
	<path d="M759.61,107.35c-4.52,0-8.71-2.1-10.32-3.47l-0.81,2.5h-2.9l-0.4-13.47h2.66c0.97,4.19,5.16,11.37,12.34,11.37
		c5.08,0,7.9-2.42,7.9-6.61c0-4.44-3.55-6.13-10-8.06c-5.4-1.61-11.94-4.52-11.94-11.85c0-6.37,5.08-11.37,13.06-11.37
		c3.23,0,6.61,0.89,8.55,2.02l0.89-2.1h2.82l0.65,12.5h-2.74c-0.97-4.76-4.27-9.44-10.24-9.44c-4.27,0-6.94,2.5-6.94,5.56
		c0,4.68,3.23,5.81,9.84,7.98c7.18,2.34,12.1,5.16,12.1,12.18C774.12,102.67,767.67,107.35,759.61,107.35z"/>
	<path d="M838.87,106.3v-2.82c2.58-0.16,7.18-0.81,7.18-2.26c0-0.48-0.16-1.29-0.32-1.69l-4.68-12.58h-19.6
		c-1.13,2.98-2.26,6.05-2.98,8.63c-0.56,1.85-0.89,3.31-0.89,4.44c0,2.58,5.48,3.31,8.06,3.47v2.82H804.6v-2.82
		c1.37-0.08,3.71-0.56,5.08-1.45c1.69-1.13,2.9-2.42,4.11-5.4c5.73-14.11,12.26-31.37,18.39-47.01h3.15l18.63,48.22
		c0.73,1.94,1.69,3.15,3.39,4.36c1.29,0.73,3.47,1.21,4.84,1.29v2.82H838.87z M831.21,61.78l-8.31,21.69h16.77L831.21,61.78z"/>
	<path d="M893.71,77.59c-2.98,0-4.52-1.77-4.52-3.63c0-1.13,0.24-2.1,0.4-2.98c-4.11,0.08-7.58,3.95-8.55,5.73v22.58
		c0,1.77,0.73,2.98,2.18,3.55c1.37,0.56,3.71,0.73,5.24,0.89v2.58h-20.48v-2.58c1.45-0.16,2.42-0.16,3.55-0.48
		c1.53-0.48,2.18-1.77,2.18-3.55V75.74c0-1.61-0.89-3.39-2.18-4.35c-0.97-0.56-2.5-0.89-3.95-0.97v-2.58l12.9-0.81l0.56,0.56v5.4
		h0.16c3.47-4.44,7.66-6.45,10.89-6.45c3.31,0,5.65,2.26,5.65,5.97C897.74,75.09,896.45,77.59,893.71,77.59z"/>
	<path d="M919.43,107.11c-6.45,0-8.87-3.39-8.87-9.35V71.38h-7.02v-3.71h7.18v-12.1h7.18v12.1h11.13v3.71h-11.05v21.69
		c0,6.21,0.56,9.27,6.29,9.27c1.37,0,4.44-0.24,5.65-0.65v2.9C926.93,105.9,923.22,107.11,919.43,107.11z"/>
</g>
<g>
	<path d="M248.59,162.81h-10.03l0.27-1.32c2.31-0.26,3.55-0.44,3.55-1.76c0-0.22-0.04-1.05-0.13-2.02l-0.58-5.67h-9.81l-3.11,5.1
		c-0.71,1.27-1.11,2.11-1.11,2.68c0,1.23,2.35,1.63,3.55,1.67l-0.27,1.32h-10.34l0.27-1.32c0.71-0.04,1.64-0.35,2.44-0.83
		c0.98-0.57,1.78-1.19,2.84-2.94l15.85-25.8h0.4l2.93,26.32c0.18,1.41,0.44,1.93,1.15,2.37c0.75,0.48,1.6,0.75,2.4,0.88
		L248.59,162.81z M240.33,137.84l-7.59,12.57h8.83L240.33,137.84z"/>
	<path d="M280.01,132.35l-0.27,1.32c-0.71,0.04-2.09,0.31-2.71,0.57c-0.98,0.35-1.38,1.19-1.6,2.2l-4.84,20.96
		c-0.22,1.01-0.35,1.71-0.35,2.29c0,1.49,0.84,1.67,3.86,1.67c1.69,0,5.24-0.18,6.39-1.19c1.07-0.97,3.42-4.75,4.17-6.06h1.29
		l-2.66,8.7h-20.46l0.18-1.32c0.93-0.04,2.09-0.13,2.75-0.44c0.75-0.35,1.11-1.1,1.33-2.07l5.33-22.68c0.09-0.44,0.13-0.7,0.13-1.05
		c0-0.4-0.31-0.79-0.98-1.05c-0.62-0.26-1.38-0.44-2.04-0.53l0.27-1.32H280.01z"/>
	<path d="M302.42,159.73c-1.46,1.63-3.33,3.65-6.13,3.65c-3.73,0-5.9-3.25-5.9-8c0-7.34,5.46-14.15,11.41-14.15
		c2.35,0,3.64,0.75,4.57,1.19l2.66-0.83l0.18,0.26l-3.33,14.19c-0.35,1.58-0.67,2.77-0.67,3.56c0,1.05,0.71,1.45,1.69,1.45
		c0.8,0,1.86-0.13,2.4-0.35l-0.22,1.14c-0.98,0.62-2.97,1.32-4.35,1.32c-1.69,0-2.26-1.01-2.26-2.37c0-0.4,0.04-0.75,0.09-1.05
		H302.42z M302.95,157.84l2.75-11.65c0-2.29-1.69-3.69-3.86-3.69c-4.26,0-8.61,5.93-8.61,13.18c0,3.52,1.29,5.71,3.82,5.71
		C299.35,161.4,301.4,159.51,302.95,157.84z"/>
	<path d="M326.83,159.51h-0.13c-2.4,2.24-4.17,3.78-6.84,3.78c-2.31,0-4.13-1.58-4.13-4.22c0-0.88,0.13-1.8,0.49-3.34l1.69-7.16
		c0.27-1.19,0.58-2.46,0.58-3.47s-0.35-1.54-1.46-1.54c-0.62,0-1.82,0.31-2.26,0.44l0.31-1.14c1.46-0.79,3.11-1.36,4.17-1.36
		c1.33,0,2,0.7,2,2.15c0,0.66-0.22,2.07-0.44,2.99l-1.86,8.22c-0.27,1.14-0.58,2.72-0.58,3.56c0,1.49,0.98,2.86,2.71,2.86
		c1.91,0,3.95-1.41,5.68-3.47l3.82-16l2.22-0.22l0.27,0.31l-3.37,13.8c-0.27,1.14-0.35,1.8-0.35,2.59c0,1.41,0.75,2.99,3.28,2.99
		c6.35,0,8.88-9.71,8.88-12.92c0-2.99-1.64-3.34-1.64-5.36c0-0.92,0.67-1.76,1.82-1.76c1.46,0,1.91,1.54,1.91,3.3
		c0,9.18-5.02,18.9-11.94,18.9C329.36,163.42,327.49,162.32,326.83,159.51z"/>
	<path d="M360.86,161.05l-1.02,1.76h-1.42l1.95-10.11h1.51c0.13,5.14,1.24,9.1,6.75,9.1c4.66,0,6.84-3.52,6.84-7.38
		c0-2.24-0.89-4.04-2.93-5.05c-2-1.01-2.84-1.1-5.28-2.42c-2.13-1.14-3.82-2.94-3.82-6.33c0-5.41,4.84-8.83,9.14-8.83
		c2.75,0,4.79,0.83,6.39,2.11l0.93-1.54h1.46l-2.13,9.98h-1.46c0.04-4.88-0.27-9.01-5.73-9.01c-3.06,0-5.73,2.5-5.73,6.33
		c0,2.29,0.71,3.47,2,4.39c1.73,1.1,3.55,1.63,5.59,2.68c2.04,1.05,4.44,2.86,4.44,6.81c0,5.84-5.24,9.76-9.99,9.76
		C364.95,163.29,362.55,162.45,360.86,161.05z"/>
	<path d="M389.58,161c1.07,0,2.04-0.22,2.57-0.44l-0.22,1.32c-1.07,0.66-2.35,1.27-4.13,1.27c-2.4,0-3.24-1.8-3.24-3.25
		c0-0.88,0.13-1.8,0.49-3.3l3.06-13.05h-3.33l0.4-1.8h3.37l1.51-6.15h2.35l-1.42,6.15h5.24l-0.4,1.8h-5.28l-2.8,12.04
		c-0.31,1.27-0.53,2.55-0.53,3.43C387.23,160.43,387.89,161,389.58,161z"/>
	<path d="M416.65,161.84c-1.38,0.75-2.84,1.27-4.35,1.27c-1.86,0-2.44-1.49-2.22-3.08h-0.13c-2.09,1.89-3.91,3.25-6.48,3.25
		c-2.18,0-3.82-1.58-3.82-4.22c0-0.53,0.09-1.63,0.49-3.34l1.69-7.16c0.27-1.19,0.58-2.46,0.58-3.47s-0.35-1.54-1.46-1.54
		c-0.67,0-1.86,0.31-2.31,0.44l0.31-1.14c1.51-0.79,3.11-1.36,4.22-1.36c1.33,0,2,0.7,2,2.15c0,0.66-0.22,2.07-0.44,2.99l-1.86,8.22
		c-0.27,1.14-0.58,2.72-0.58,3.56c0,1.49,0.84,2.86,2.71,2.86c1.55,0,3.95-1.41,5.68-3.47l3.82-16l2.22-0.22l0.27,0.31l-3.42,14.11
		c-0.31,1.36-0.67,2.9-0.67,3.56c0,1.19,0.67,1.49,2.09,1.49c0.36,0,1.33-0.09,1.91-0.31L416.65,161.84z"/>
	<path d="M437.82,156.04c-0.35,1.58-0.67,2.77-0.67,3.56c0,1.05,0.71,1.45,1.69,1.45c0.8,0,1.86-0.13,2.4-0.35l-0.22,1.14
		c-0.98,0.62-2.97,1.32-4.35,1.32c-1.69,0-2.26-1.01-2.26-2.37c0-0.4,0.04-0.75,0.09-1.05h-0.18c-1.42,1.41-3.28,3.65-6.08,3.65
		c-3.73,0-5.9-3.25-5.9-8c0-7.34,5.5-14.15,11.45-14.15c2.22,0,3.55,0.62,4.88,1.23l1.73-7.43c0.22-0.92,0.31-1.63,0.31-2.15
		c0-1.23-0.8-1.45-3.33-1.67l0.31-1.19l6.13-0.44l0.22,0.26L437.82,156.04z M434.89,157.84l2.75-11.65c0-2.2-1.2-3.69-3.86-3.69
		c-4.26,0-8.61,5.93-8.61,13.18c0,3.52,1.29,5.71,3.82,5.71C431.3,161.4,433.34,159.51,434.89,157.84z"/>
	<path d="M457.17,151.95c-2.4,1.05-5.46,1.71-8.3,2.15c-0.09,5.45,2.04,7.29,4.71,7.29c2.53,0,4.62-1.76,6.3-4.31l1.07,0.66
		c-2.04,3.3-5.24,5.62-8.52,5.62c-4.35,0-6.26-3.3-6.26-7.87c0-7.08,4.71-14.28,11.27-14.28c3.11,0,4.57,1.76,4.57,4.22
		C462.01,149.49,459.13,151.12,457.17,151.95z M449.05,152.74c2.57-0.44,4.88-0.97,6.97-2.07c2-1.05,3.51-2.64,3.51-5.32
		c0-2.2-1.42-2.72-2.31-2.72C453.4,142.63,449.8,146.99,449.05,152.74z"/>
	<path d="M485.44,161.84c-0.98,0.62-2.97,1.32-4.35,1.32c-1.69,0-2.26-1.01-2.26-2.37c0-0.57,0.13-1.49,0.4-2.5l2.26-8.57
		c0.31-1.23,0.62-2.5,0.62-3.74c0-1.27-0.71-2.77-2.71-2.77c-1.73,0-4.17,1.41-6.04,3.74l-3.68,15.86h-2.44l3.28-14.24
		c0.13-0.7,0.53-2.29,0.53-3.38c0-1.23-0.4-1.63-1.51-1.63c-0.62,0-1.78,0.22-2.13,0.35l0.22-1.14c1.91-0.97,3.42-1.27,4.31-1.27
		c1.38,0,1.82,0.83,1.82,2.42c0,0.26-0.04,0.75-0.04,0.88h0.13c1.78-1.93,4.31-3.56,6.97-3.56c2.4,0,3.86,1.76,3.86,4.17
		c0,0.83-0.18,1.98-0.53,3.38l-1.91,7.34c-0.4,1.58-0.67,2.68-0.67,3.47c0,1.05,0.71,1.45,1.69,1.45c0.8,0,1.86-0.13,2.4-0.35
		L485.44,161.84z"/>
	<path d="M496.71,161c1.07,0,2.04-0.22,2.57-0.44l-0.22,1.32c-1.07,0.66-2.35,1.27-4.13,1.27c-2.4,0-3.24-1.8-3.24-3.25
		c0-0.88,0.13-1.8,0.49-3.3l3.06-13.05h-3.33l0.4-1.8h3.37l1.51-6.15h2.35l-1.42,6.15h5.24l-0.4,1.8h-5.28l-2.8,12.04
		c-0.31,1.27-0.53,2.55-0.53,3.43C494.36,160.43,495.03,161,496.71,161z"/>
	<path d="M539.85,162.81h-10.03l0.27-1.32c2.31-0.26,3.55-0.44,3.55-1.76c0-0.22-0.04-1.05-0.13-2.02l-0.58-5.67h-9.81l-3.11,5.1
		c-0.71,1.27-1.11,2.11-1.11,2.68c0,1.23,2.35,1.63,3.55,1.67l-0.27,1.32h-10.34l0.27-1.32c0.71-0.04,1.64-0.35,2.44-0.83
		c0.98-0.57,1.78-1.19,2.84-2.94l15.85-25.8h0.4l2.93,26.32c0.18,1.41,0.44,1.93,1.15,2.37c0.75,0.48,1.6,0.75,2.4,0.88
		L539.85,162.81z M531.6,137.84l-7.59,12.57h8.83L531.6,137.84z"/>
	<path d="M547.57,162.81h-2.44l3.28-14.24c0.18-0.7,0.53-2.29,0.53-3.38c0-1.23-0.4-1.63-1.51-1.63c-0.67,0-1.82,0.22-2.18,0.35
		l0.22-1.14c1.91-0.97,3.46-1.27,4.35-1.27c1.42,0,1.82,1.19,1.73,3.08c0,0.26-0.04,0.57-0.04,0.62h0.09
		c2.31-2.37,4.26-3.96,6.08-3.96c1.6,0,2.57,0.75,2.57,2.99c0,1.76-0.89,3.12-2.13,3.12s-1.73-0.7-1.73-1.49s0.53-2.11,0.89-2.86
		c-1.46,0-3.55,1.01-6.04,4.04L547.57,162.81z"/>
	<path d="M577.71,148.88c-1.2,0-1.73-0.7-1.73-1.54c0-0.88,0.62-2.42,1.11-3.56c-0.31-0.57-1.42-1.14-2.75-1.14
		c-3.64,0-7.28,4.97-7.28,12.35c0,3.25,1.51,6.42,4.79,6.42c2.26,0,4.31-1.54,6.17-4.35l1.06,0.7c-1.51,2.46-4.48,5.62-8.26,5.62
		c-4.35,0-6.57-3.25-6.57-8.04c0-6.9,3.77-14.11,10.12-14.11c3.6,0,5.55,2.15,5.55,4.44C579.93,147.38,579.22,148.88,577.71,148.88z
		"/>
	<path d="M593.86,129.85l-3.64,14.94h0.09c1.95-2.07,4.84-3.56,7.1-3.56c2.04,0,3.73,1.63,3.73,4.17c0,0.83-0.18,1.98-0.53,3.38
		l-1.91,7.34c-0.4,1.58-0.67,2.68-0.67,3.47c0,1.05,0.71,1.45,1.69,1.45c0.84,0,1.91-0.13,2.44-0.35l-0.22,1.14
		c-0.98,0.62-3.02,1.32-4.39,1.32c-1.69,0-2.26-1.01-2.26-2.37c0-0.57,0.13-1.49,0.4-2.5l2.26-8.57c0.31-1.23,0.62-2.5,0.62-3.74
		c0-1.27-0.84-2.77-2.71-2.77c-1.73,0-4.17,1.41-6.04,3.74l-3.68,15.86h-2.44l6.44-27.73c0.22-0.92,0.31-1.67,0.31-2.2
		c0-1.14-0.49-1.36-2.97-1.67l0.27-1.19l5.86-0.44L593.86,129.85z"/>
	<path d="M611.93,156.08c-0.4,1.58-0.62,2.72-0.62,3.52c0,1.05,0.71,1.45,1.69,1.45c0.84,0,1.91-0.13,2.44-0.35l-0.22,1.14
		c-0.98,0.62-3.02,1.32-4.39,1.32c-1.69,0-2.26-1.01-2.26-2.37c0-0.57,0.18-1.58,0.4-2.5l2.4-9.98c0.4-1.58,0.62-2.72,0.62-3.52
		c0-1.05-0.67-1.45-1.6-1.45c-0.8,0-1.86,0.22-2.35,0.35l0.22-1.14c0.98-0.62,2.97-1.32,4.35-1.32c1.69,0,2.13,1.01,2.13,2.37
		c0,0.57-0.18,1.58-0.4,2.5L611.93,156.08z M614.1,133.36c0-1.36,0.8-2.5,2.04-2.5c1.2,0,1.69,0.79,1.69,1.89
		c0,1.36-0.84,2.5-2.09,2.5C614.54,135.25,614.1,134.46,614.1,133.36z"/>
	<path d="M636.65,141.23c1.46,0,1.91,1.54,1.91,3.3c0,9.18-5.19,18.9-11.81,18.9c-2.57,0-5.06-1.54-5.06-4.92
		c0-0.97,0.27-2.24,0.53-3.25l1.78-6.42c0.4-1.58,0.67-2.68,0.67-3.74c0-1.01-0.44-1.54-1.42-1.54c-0.84,0-2.04,0.35-2.49,0.48
		l0.27-1.14c1.86-0.97,3.51-1.41,4.48-1.41c1.38,0,1.95,0.83,1.95,2.24c0,0.75-0.09,1.41-0.27,2.24c-0.13,0.66-2.22,8.35-2.53,9.71
		c-0.27,1.14-0.35,1.8-0.35,2.59c0,1.41,0.84,2.99,3.55,2.99c5.9,0,8.61-9.71,8.61-12.92c0-2.99-1.64-3.34-1.64-5.36
		C634.83,142.06,635.49,141.23,636.65,141.23z"/>
	<path d="M654.35,151.95c-2.4,1.05-5.46,1.71-8.3,2.15c-0.09,5.45,2.04,7.29,4.71,7.29c2.53,0,4.62-1.76,6.3-4.31l1.07,0.66
		c-2.04,3.3-5.24,5.62-8.52,5.62c-4.35,0-6.26-3.3-6.26-7.87c0-7.08,4.71-14.28,11.27-14.28c3.11,0,4.57,1.76,4.57,4.22
		C659.19,149.49,656.31,151.12,654.35,151.95z M646.23,152.74c2.57-0.44,4.88-0.97,6.97-2.07c2-1.05,3.51-2.64,3.51-5.32
		c0-2.2-1.42-2.72-2.31-2.72C650.58,142.63,646.99,146.99,646.23,152.74z"/>
	<path d="M682.27,155.12c-2.8,0-5.15-2.24-5.15-5.05s2.35-5.05,5.15-5.05c2.89,0,5.15,2.24,5.15,5.05S685.15,155.12,682.27,155.12z"
		/>
	<path d="M705.92,162.81l0.4-1.32c1.29-0.09,2.71-0.26,3.51-0.44c0.84-0.18,1.6-1.01,1.86-2.15l5.59-23.38h-4.97l0.4-1.58H714
		c2.84,0,4.66-0.88,5.99-2.15h0.98c-0.53,1.89-1.2,4.57-1.69,6.55l-4.75,20.13c-0.09,0.35-0.13,0.75-0.13,1.01
		c0,0.57,0.31,1.1,0.89,1.41c0.84,0.4,2.53,0.57,3.55,0.62l-0.35,1.32H705.92z"/>
	<path d="M730.69,163.6v-1.89l1.82-0.26c6.21-1.8,10.92-5.62,13.23-12.26c-2.62,2.2-5.06,2.81-7.32,2.81
		c-3.55,0-6.17-3.12-6.17-7.65c0-6.11,4.53-12.35,10.39-12.35c4.31,0,7.32,3.34,7.32,9.14C749.95,152.26,741.61,162.37,730.69,163.6
		z M742.18,133.45c-4.75,0-7.1,6.37-7.1,10.59c0,3.6,1.86,5.84,4.88,5.84c2.22,0,4.39-0.83,6.26-2.64c0.31-0.97,0.8-3.12,0.8-6.42
		C747.02,136.17,745.07,133.45,742.18,133.45z"/>
	<path d="M755.54,163.6v-1.89l1.82-0.26c6.21-1.8,10.92-5.62,13.23-12.26c-2.62,2.2-5.06,2.81-7.32,2.81
		c-3.55,0-6.17-3.12-6.17-7.65c0-6.11,4.53-12.35,10.39-12.35c4.31,0,7.32,3.34,7.32,9.14C774.8,152.26,766.46,162.37,755.54,163.6z
		 M767.04,133.45c-4.75,0-7.1,6.37-7.1,10.59c0,3.6,1.86,5.84,4.88,5.84c2.22,0,4.39-0.83,6.26-2.64c0.31-0.97,0.8-3.12,0.8-6.42
		C771.87,136.17,769.92,133.45,767.04,133.45z"/>
	<path d="M780.39,163.6v-1.89l1.82-0.26c6.21-1.8,10.92-5.62,13.23-12.26c-2.62,2.2-5.06,2.81-7.32,2.81
		c-3.55,0-6.17-3.12-6.17-7.65c0-6.11,4.53-12.35,10.39-12.35c4.31,0,7.32,3.34,7.32,9.14C799.66,152.26,791.31,162.37,780.39,163.6
		z M791.89,133.45c-4.75,0-7.1,6.37-7.1,10.59c0,3.6,1.86,5.84,4.88,5.84c2.22,0,4.39-0.83,6.26-2.64c0.31-0.97,0.8-3.12,0.8-6.42
		C796.73,136.17,794.77,133.45,791.89,133.45z"/>
	<path d="M804.94,152l0.49-2.15h21.04l-0.53,2.15H804.94z"/>
	<path d="M848.21,162.81h-17.22l0.53-2.37c2.22-3.82,5.1-6.77,9.5-10.11c4.17-3.21,8.21-6.37,8.21-12c0-2.99-1.46-4.92-4.13-4.92
		c-2.35,0-4.13,1.23-4.84,2.37c0.04,0.62,0.04,1.1,0.04,1.58c0,1.98-0.75,3.34-2.44,3.34c-1.07,0-1.69-0.57-1.69-1.63
		c0-3.78,4.88-7.29,9.19-7.29c3.99,0,6.88,2.37,6.88,6.59c0,2.59-0.62,4.44-2.04,6.37c-1.46,2.02-3.86,3.96-7.5,6.55
		c-4.66,3.34-7.15,6.02-8.79,8.83h14.91L848.21,162.81z"/>
	<path d="M864.54,163.51c-4.53,0-7.01-3.69-7.01-9.62c0-1.89,0.27-4.09,0.75-6.37c1.78-8.61,6.26-15.73,12.83-15.73
		c4.62,0,6.61,3.82,6.61,9.45c0,1.98-0.27,4.22-0.75,6.46C874.79,158.24,870.27,163.51,864.54,163.51z M874.7,140.48
		c0-4.26-1.02-7.16-3.68-7.16c-4.31,0-7.72,5.98-9.54,14.33c-0.58,2.59-0.93,5.05-0.93,7.16c0,4.48,1.51,7.16,4.13,7.16
		c4.08,0,7.19-5.54,9.1-14.33C874.35,145.01,874.7,142.59,874.7,140.48z"/>
	<path d="M897.92,162.81h-17.22l0.53-2.37c2.22-3.82,5.1-6.77,9.5-10.11c4.17-3.21,8.21-6.37,8.21-12c0-2.99-1.46-4.92-4.13-4.92
		c-2.35,0-4.13,1.23-4.84,2.37c0.04,0.62,0.04,1.1,0.04,1.58c0,1.98-0.75,3.34-2.44,3.34c-1.07,0-1.69-0.57-1.69-1.63
		c0-3.78,4.88-7.29,9.19-7.29c3.99,0,6.88,2.37,6.88,6.59c0,2.59-0.62,4.44-2.04,6.37c-1.46,2.02-3.86,3.96-7.5,6.55
		c-4.66,3.34-7.15,6.02-8.79,8.83h14.91L897.92,162.81z"/>
	<path d="M926.1,137.8c0,4.09-2.4,7.03-6.97,8.48l-0.09,0.22c2.31,0.35,5.59,1.8,5.59,6.02c0,6.42-4.75,10.85-10.92,10.85
		c-3.77,0-7.24-2.11-7.24-5.05c0-1.85,1.02-3.34,2.62-3.34c1.24,0,1.64,0.92,1.64,1.41c0,1.27-0.75,2.29-1.6,3.21
		c0.49,1.19,2.35,2.29,5.15,2.29c4.26,0,7.59-4.22,7.59-9.58c0-2.81-1.29-4.53-4.88-4.53h-1.91l0.49-2.07h1.95
		c2.97,0,5.64-3.43,5.64-7.78c0-2.86-0.89-4.53-3.42-4.53c-1.82,0-3.28,0.57-4.53,1.93c0.04,0.31,0.18,1.54,0.18,2.15
		c0,1.98-0.8,3.12-2.49,3.12c-1.11,0-1.82-0.62-1.82-1.93c0-2.72,3.2-6.77,8.83-6.77C923.52,131.91,926.1,134.02,926.1,137.8z"/>
</g>
</svg>
