<?xml version="1.0" encoding="utf-8"?>
<!-- Generator: Adobe Illustrator 27.5.0, SVG Export Plug-In . SVG Version: 6.00 Build 0)  -->
<svg version="1.1" id="Layer_1" xmlns="http://www.w3.org/2000/svg" xmlns:xlink="http://www.w3.org/1999/xlink" x="0px" y="0px"
	 viewBox="0 0 988 205.15" style="enable-background:new 0 0 988 205.15;" xml:space="preserve" fill="#1a1a1a">
<g>
	<path d="M0.17-0.85v205.98h205.98V-0.85H0.17z M172.58,157.76c-11.66,16.35-27.99,24.41-47.81,25.22s-38.35-4.43-55.84-13.49
		c-12.87-6.67-24.13-15.43-32.95-27.04C18.9,119.98,18.14,96.2,31.89,72.19C46.48,46.7,68.94,31.26,97.7,25.97
		c21.21-3.91,39.84,3.13,55.71,17.31c17,15.19,26.2,34.68,30.02,56.87c0.9,5.22,1.16,10.55,1.72,15.83
		C184.85,131.14,181.45,145.32,172.58,157.76z"/>
	<path d="M96.59,45.43c-25,9.06-41.56,26.77-48.77,52.37c-6.21,22.08,1.98,41.2,21.64,53.1c11.83,7.16,24.83,9.85,38.55,9.66
		c32.62-0.45,56.48-24.24,56.46-56.37c-0.01-14.12-4.8-28.71-13.18-40.11C137.98,45.97,116.5,38.22,96.59,45.43z M132.99,131.84
		c-7.62,5.37-16.37,6.76-24.24,6.96c-10.25-0.27-18.91-1.99-26.49-7.38c-10.14-7.21-13.64-18.68-9.29-30.32
		c3.13-8.37,8.04-15.47,15-21.12c11.91-9.66,25.03-9.86,36.94-0.24c10.01,8.08,16.38,18.51,18.06,31.37
		C144.12,120.01,140.14,126.81,132.99,131.84z"/>
</g>
<g>
	<path d="M278.18,71.57c1.96,1.33,3.58,3.07,4.88,5.22c1.3,2.15,1.94,4.76,1.94,7.82c0,3.13-0.68,5.85-2.04,8.15
		c-1.36,2.31-3.13,4.21-5.31,5.69c-2.12,1.45-4.52,2.56-7.19,3.32c-2.67,0.76-5.43,1.14-8.27,1.14h-31.86v-3.36
		c0.76-0.07,1.87-0.2,3.32-0.41c1.45-0.21,2.49-0.45,3.13-0.74c0.98-0.44,1.67-1.03,2.09-1.78c0.41-0.75,0.62-1.7,0.62-2.87V45.4
		c0-1.08-0.19-2.02-0.55-2.85s-1.09-1.48-2.15-1.99c-0.94-0.47-2.01-0.84-3.18-1.09c-1.16-0.25-2.15-0.41-2.94-0.47v-3.36h31.06
		c2.41,0,4.7,0.24,6.9,0.71c2.2,0.47,4.3,1.31,6.29,2.52c1.87,1.11,3.4,2.6,4.6,4.51c1.2,1.9,1.8,4.21,1.8,6.92
		c0,2.37-0.43,4.48-1.29,6.33c-0.86,1.85-2.05,3.44-3.6,4.77c-1.45,1.26-3.12,2.33-5,3.2c-1.88,0.87-3.91,1.54-6.1,2.01v0.43
		c1.92,0.22,4.09,0.7,6.47,1.45C274.19,69.21,276.31,70.24,278.18,71.57z M266.71,61.42c1.16-1.36,1.98-2.85,2.44-4.46
		c0.46-1.62,0.68-3.53,0.68-5.75c0-3.7-1.01-6.61-3.03-8.71s-5.21-3.16-9.56-3.16c-1.01,0-2.27,0.02-3.81,0.07
		c-1.53,0.04-2.81,0.09-3.86,0.12v25.89h6.01c2.58,0,4.8-0.33,6.65-1C264.08,63.75,265.58,62.75,266.71,61.42z M273.3,82.91
		c0-3.98-1.34-7.25-4.01-9.81s-6.49-3.85-11.45-3.85c-2.02,0-3.74,0.02-5.12,0.07c-1.4,0.04-2.44,0.09-3.13,0.12v23.71
		c0,1.99,0.8,3.49,2.42,4.51c1.62,1.01,3.86,1.52,6.74,1.52c4.71,0,8.32-1.37,10.81-4.12C272.05,92.3,273.3,88.25,273.3,82.91z"/>
	<path d="M336.7,91.91c-1.96,3.72-4.58,6.7-7.87,8.91c-3.29,2.21-7.07,3.32-11.33,3.32c-3.76,0-7.05-0.66-9.89-1.99
		c-2.83-1.33-5.16-3.13-7-5.41c-1.83-2.27-3.2-4.93-4.1-7.97c-0.9-3.03-1.35-6.24-1.35-9.63c0-3.03,0.48-6.01,1.45-8.93
		c0.97-2.92,2.37-5.56,4.24-7.9c1.8-2.24,4.03-4.05,6.71-5.43c2.67-1.37,5.67-2.07,8.99-2.07c3.42,0,6.34,0.54,8.77,1.62
		c2.44,1.08,4.41,2.55,5.92,4.41c1.45,1.77,2.54,3.86,3.25,6.26c0.71,2.41,1.07,5.01,1.07,7.82v3.13h-30.96
		c0,3.08,0.3,5.86,0.88,8.36s1.51,4.7,2.77,6.6c1.23,1.83,2.85,3.29,4.83,4.35c1.99,1.07,4.36,1.59,7.11,1.59
		c2.81,0,5.24-0.66,7.27-1.98c2.04-1.32,4.01-3.69,5.9-7.13L336.7,91.91z M326.22,74.09c0-1.77-0.15-3.66-0.45-5.67
		c-0.3-2.01-0.78-3.7-1.45-5.05c-0.73-1.45-1.73-2.63-2.99-3.55c-1.26-0.91-2.89-1.37-4.88-1.37c-3.32,0-6.08,1.37-8.27,4.13
		c-2.2,2.76-3.4,6.59-3.58,11.52C304.6,74.09,326.22,74.09,326.22,74.09z"/>
	<path d="M388.83,102.07c-1.48,0.54-2.79,0.97-3.91,1.31c-1.12,0.33-2.4,0.49-3.81,0.49c-2.46,0-4.44-0.58-5.9-1.74
		c-1.47-1.15-2.41-2.83-2.82-5.05h-0.29c-2.05,2.27-4.26,4.01-6.61,5.22c-2.35,1.2-5.2,1.8-8.52,1.8c-3.51,0-6.39-1.08-8.66-3.22
		c-2.26-2.15-3.4-4.97-3.4-8.44c0-1.8,0.25-3.42,0.76-4.83s1.26-2.7,2.27-3.85c0.79-0.94,1.83-1.79,3.13-2.54s2.52-1.33,3.65-1.78
		c1.42-0.54,4.31-1.54,8.66-2.99c4.35-1.45,7.27-2.59,8.79-3.42v-4.69c0-0.41-0.09-1.2-0.26-2.37c-0.18-1.16-0.55-2.27-1.11-3.32
		c-0.64-1.16-1.53-2.19-2.68-3.05c-1.15-0.87-2.79-1.31-4.91-1.31c-1.45,0-2.8,0.24-4.05,0.74c-1.25,0.49-2.13,1-2.64,1.54
		c0,0.64,0.15,1.56,0.45,2.8c0.3,1.24,0.45,2.37,0.45,3.42c0,1.11-0.49,2.12-1.49,3.03s-2.38,1.37-4.15,1.37
		c-1.58,0-2.75-0.56-3.48-1.68c-0.75-1.12-1.11-2.37-1.11-3.77c0-1.45,0.52-2.85,1.54-4.18c1.02-1.33,2.36-2.52,4.01-3.56
		c1.42-0.89,3.14-1.64,5.16-2.25c2.02-0.62,4-0.92,5.92-0.92c2.66,0,4.97,0.19,6.94,0.55c1.98,0.36,3.77,1.14,5.38,2.35
		c1.62,1.16,2.83,2.76,3.67,4.77c0.84,2.01,1.25,4.59,1.25,7.76c0,4.52-0.04,8.53-0.14,12.02c-0.1,3.49-0.14,7.31-0.14,11.45
		c0,1.23,0.21,2.21,0.64,2.94c0.43,0.73,1.08,1.34,1.97,1.85c0.47,0.29,1.22,0.44,2.25,0.47c1.02,0.03,2.08,0.04,3.15,0.04v3.03
		H388.83z M372.28,77.02c-2.69,0.79-5.04,1.57-7.07,2.33s-3.9,1.71-5.65,2.85c-1.58,1.08-2.83,2.35-3.75,3.82
		c-0.91,1.47-1.37,3.22-1.37,5.25c0,2.63,0.69,4.56,2.07,5.8s3.12,1.86,5.24,1.86c2.24,0,4.22-0.55,5.92-1.64
		c1.7-1.09,3.14-2.38,4.32-3.87L372.28,77.02z"/>
	<path d="M431.7,62.19c0,1.62-0.4,3.04-1.19,4.3c-0.79,1.25-2.01,1.87-3.65,1.87c-1.77,0-3.12-0.46-4.05-1.37
		c-0.93-0.91-1.4-1.92-1.4-3.03c0-0.69,0.05-1.33,0.16-1.9c0.11-0.57,0.21-1.14,0.31-1.7c-1.48,0-3.22,0.6-5.22,1.8
		c-1.99,1.2-3.68,2.91-5.08,5.12v27.22c0,1.11,0.21,2.01,0.64,2.7c0.43,0.69,1.1,1.22,2.01,1.56c0.79,0.32,1.81,0.55,3.05,0.71
		c1.25,0.15,2.33,0.27,3.25,0.33v3.13h-24.66v-3.13c0.73-0.07,1.47-0.12,2.25-0.19s1.45-0.19,2.01-0.37
		c0.88-0.29,1.54-0.78,1.97-1.49c0.43-0.71,0.64-1.64,0.64-2.77V66.11c0-0.98-0.23-1.94-0.69-2.89c-0.46-0.94-1.1-1.7-1.92-2.27
		c-0.6-0.37-1.31-0.66-2.13-0.82c-0.82-0.18-1.7-0.3-2.66-0.35v-3.13l15.55-1.04l0.66,0.66v6.59h0.24c1.96-2.56,4.14-4.51,6.55-5.83
		c2.41-1.33,4.6-1.99,6.59-1.99s3.61,0.65,4.86,1.94C431.08,58.27,431.7,60,431.7,62.19z"/>
	<path d="M460.78,102.92h-22.57v-3.13c0.73-0.07,1.47-0.12,2.25-0.19c0.77-0.07,1.45-0.19,2.01-0.37c0.89-0.29,1.54-0.78,1.97-1.49
		c0.43-0.71,0.64-1.64,0.64-2.77V66.11c0-1.01-0.23-1.93-0.69-2.77c-0.46-0.84-1.1-1.54-1.92-2.11c-0.6-0.37-1.47-0.7-2.6-0.97
		c-1.14-0.26-2.18-0.44-3.13-0.49v-3.13l16.5-1.04l0.66,0.66v38.13c0,1.11,0.21,2.02,0.64,2.75c0.43,0.73,1.09,1.26,2,1.62
		c0.69,0.29,1.36,0.52,2.02,0.69c0.66,0.18,1.4,0.3,2.21,0.35v3.13H460.78z M454.86,37.15c0,1.8-0.59,3.37-1.78,4.71
		c-1.19,1.34-2.65,2.01-4.38,2.01c-1.62,0-3.01-0.64-4.2-1.92c-1.19-1.29-1.78-2.75-1.78-4.38c0-1.74,0.59-3.25,1.78-4.55
		c1.19-1.3,2.58-1.94,4.2-1.94c1.8,0,3.27,0.6,4.44,1.82C454.27,34.13,454.86,35.53,454.86,37.15z"/>
	<path d="M520.63,102.92h-22.85v-3.13c0.73-0.07,1.53-0.12,2.4-0.19c0.87-0.07,1.59-0.19,2.15-0.38c0.89-0.29,1.54-0.78,1.97-1.49
		c0.43-0.71,0.64-1.64,0.64-2.77V70.91c0-3.32-0.78-5.88-2.35-7.68c-1.57-1.8-3.48-2.7-5.72-2.7c-1.68,0-3.22,0.26-4.61,0.78
		c-1.4,0.52-2.63,1.16-3.7,1.92c-1.04,0.73-1.88,1.51-2.49,2.35c-0.62,0.84-1.07,1.51-1.35,2.01v26.89c0,1.08,0.22,1.96,0.66,2.66
		c0.44,0.69,1.11,1.23,1.99,1.62c0.66,0.32,1.38,0.55,2.15,0.71c0.77,0.15,1.57,0.27,2.4,0.33v3.13h-22.9V99.8
		c0.73-0.07,1.47-0.12,2.25-0.19c0.78-0.07,1.45-0.19,2.01-0.37c0.88-0.29,1.54-0.78,1.97-1.49c0.43-0.71,0.64-1.64,0.64-2.77V66.11
		c0-1.08-0.23-2.07-0.69-2.96c-0.46-0.9-1.1-1.64-1.92-2.2c-0.6-0.37-1.31-0.66-2.13-0.82c-0.82-0.18-1.7-0.3-2.66-0.35v-3.13
		L484,55.61l0.66,0.66v6.59h0.24c0.76-0.76,1.7-1.67,2.85-2.72c1.14-1.05,2.21-1.92,3.22-2.58c1.16-0.76,2.56-1.4,4.18-1.9
		c1.62-0.51,3.43-0.76,5.45-0.76c4.48,0,7.81,1.4,9.98,4.2c2.16,2.8,3.25,6.52,3.25,11.16v24.33c0,1.11,0.19,2,0.57,2.68
		c0.38,0.68,1.02,1.21,1.94,1.59c0.76,0.32,1.42,0.54,1.97,0.66c0.55,0.13,1.32,0.22,2.3,0.29v3.12H520.63z"/>
	<path d="M568.87,98.09c1.26,1.2,2.26,2.56,2.99,4.08s1.09,3.4,1.09,5.65c0,2.24-0.49,4.35-1.47,6.33
		c-0.98,1.98-2.46,3.69-4.46,5.14c-2.12,1.48-4.65,2.64-7.58,3.46c-2.94,0.82-6.57,1.23-10.91,1.23c-7.08,0-12.37-1.03-15.89-3.11
		c-3.51-2.07-5.26-5.1-5.26-9.08c0-3.22,1.26-5.77,3.79-7.64c2.53-1.87,5.76-2.88,9.67-3.03v-0.66c-0.94-0.29-1.93-0.64-2.94-1.07
		c-1.01-0.43-1.88-0.92-2.6-1.49c-0.82-0.66-1.48-1.45-1.99-2.35c-0.51-0.9-0.76-2.01-0.76-3.34c0-1.67,0.59-3.22,1.78-4.63
		c1.19-1.41,2.98-2.62,5.38-3.63v-0.71c-3.03-1.42-5.4-3.25-7.07-5.47c-1.67-2.22-2.52-4.81-2.52-7.76c0-4.43,1.65-8.07,4.96-10.91
		c3.31-2.85,7.53-4.26,12.68-4.26c1.42,0,2.83,0.14,4.24,0.43s2.83,0.65,4.3,1.09h16.32v4.55h-11v0.29c1.16,1.36,2.04,2.86,2.6,4.51
		c0.57,1.65,0.86,3.25,0.86,4.83c0,4.11-1.67,7.59-5,10.43c-3.34,2.85-7.22,4.26-11.64,4.26h-5.74c-0.73,0.25-1.48,0.71-2.27,1.37
		s-1.19,1.56-1.19,2.7c0,1.18,0.33,2.07,1,2.68c0.66,0.62,1.47,1.03,2.42,1.25c0.91,0.25,1.99,0.41,3.2,0.47
		c1.22,0.07,2.47,0.11,3.77,0.14c1.4,0.03,3.3,0.13,5.71,0.29c2.42,0.15,4.13,0.25,5.14,0.29c1.45,0.07,2.91,0.41,4.38,1.04
		C566.33,96.11,567.66,96.98,568.87,98.09z M565.16,109.56c0-1.77-0.41-3.22-1.23-4.36s-2.07-1.91-3.75-2.32
		c-0.89-0.13-2.7-0.26-5.45-0.43c-2.75-0.15-5.94-0.24-9.58-0.24c-3.42,0.66-5.85,1.78-7.27,3.34c-1.44,1.56-2.15,3.58-2.15,6.04
		c0,1.11,0.24,2.16,0.71,3.18s1.3,1.94,2.46,2.8c1.11,0.82,2.59,1.49,4.46,2.01c1.87,0.52,4.14,0.78,6.82,0.78
		c4.65,0,8.31-0.89,10.98-2.68C563.82,115.9,565.16,113.2,565.16,109.56z M556.05,70.34c0-3.7-0.75-6.65-2.25-8.85
		c-1.51-2.2-3.61-3.3-6.33-3.3c-1.48,0-2.76,0.31-3.81,0.92c-1.05,0.62-1.92,1.49-2.58,2.64c-0.64,1.04-1.09,2.3-1.35,3.77
		c-0.26,1.47-0.41,2.98-0.41,4.53c0,3.51,0.77,6.37,2.3,8.58c1.54,2.21,3.52,3.32,5.96,3.32c2.71,0,4.81-1.1,6.28-3.3
		C555.32,76.46,556.05,73.69,556.05,70.34z"/>
	<path d="M699.28,39c-0.79,0.03-1.7,0.21-2.75,0.55c-1.04,0.33-2.01,0.77-2.89,1.31c-1.11,0.69-2,1.49-2.68,2.4
		c-0.68,0.9-1.27,2.15-1.78,3.77c-2.24,7.31-4.86,15.83-7.82,25.58c-2.97,9.76-6.18,20.14-9.63,31.17h-4.36l-16.99-51.82
		l-17.66,51.82h-4.19c-3.13-11.06-6.37-22.55-9.72-34.45c-3.35-11.9-5.59-19.88-6.74-23.92c-0.29-0.98-0.7-1.85-1.25-2.6
		s-1.31-1.45-2.25-2.09c-0.79-0.54-1.71-0.94-2.77-1.21c-1.05-0.26-2.01-0.44-2.87-0.49v-3.36h27.43v3.36
		c-2.41,0.13-4.45,0.36-6.14,0.71c-1.69,0.35-2.54,0.93-2.54,1.76c0,0.32,0.04,0.74,0.14,1.25s0.18,0.94,0.24,1.25
		c0.73,2.78,2.01,7.38,3.86,13.8s4.58,16.02,8.22,28.83l16.79-50.02h4.64l16.94,51.09c2.29-7.86,4.25-14.71,5.9-20.59
		s3.01-10.9,4.09-15.08c0.76-2.94,1.23-4.97,1.43-6.05c0.19-1.09,0.29-2.01,0.29-2.77c0-1.08-0.74-1.98-2.21-2.7
		c-1.47-0.73-3.85-1.22-7.13-1.47v-3.36h24.4L699.28,39L699.28,39z"/>
	<path d="M726.37,102.92H703.8v-3.13c0.73-0.07,1.47-0.12,2.25-0.19c0.77-0.07,1.45-0.19,2.01-0.37c0.89-0.29,1.54-0.78,1.97-1.49
		c0.43-0.71,0.64-1.64,0.64-2.77V66.11c0-1.01-0.23-1.93-0.69-2.77c-0.46-0.84-1.1-1.54-1.92-2.11c-0.6-0.37-1.47-0.7-2.6-0.97
		c-1.14-0.26-2.18-0.44-3.13-0.49v-3.13l16.5-1.04l0.66,0.66v38.13c0,1.11,0.21,2.02,0.64,2.75c0.43,0.73,1.09,1.26,2,1.62
		c0.69,0.29,1.36,0.52,2.02,0.69c0.66,0.18,1.4,0.3,2.21,0.35v3.13H726.37z M720.43,37.15c0,1.8-0.59,3.37-1.78,4.71
		c-1.19,1.34-2.65,2.01-4.38,2.01c-1.62,0-3.01-0.64-4.2-1.92s-1.78-2.75-1.78-4.38c0-1.74,0.59-3.25,1.78-4.55
		c1.19-1.3,2.58-1.94,4.2-1.94c1.8,0,3.27,0.6,4.44,1.82C719.86,34.13,720.43,35.53,720.43,37.15z"/>
	<path d="M763.45,100.88c-2.05,0.86-4,1.57-5.83,2.15c-1.83,0.58-4.08,0.88-6.74,0.88c-3.92,0-6.68-0.99-8.27-2.97
		c-1.59-1.98-2.4-4.77-2.4-8.37V60.9h-8.44v-4.55h8.63V41.8h8.63v14.56h13.42v4.55h-13.33v26.13c0,1.96,0.07,3.59,0.21,4.91
		c0.14,1.31,0.48,2.46,1.02,3.44c0.51,0.91,1.26,1.62,2.27,2.09c1.01,0.47,2.37,0.71,4.08,0.71c0.79,0,1.96-0.07,3.48-0.21
		c1.54-0.14,2.62-0.32,3.25-0.55v3.45H763.45z"/>
	<path d="M822.17,102.92h-22.85v-3.13c0.73-0.07,1.53-0.12,2.4-0.19c0.87-0.07,1.59-0.19,2.15-0.38c0.89-0.29,1.54-0.78,1.97-1.49
		c0.43-0.71,0.64-1.64,0.64-2.77V70.91c0-3.32-0.78-5.88-2.35-7.68c-1.57-1.8-3.48-2.7-5.72-2.7c-1.68,0-3.22,0.26-4.61,0.78
		c-1.4,0.52-2.63,1.16-3.7,1.92c-1.04,0.73-1.88,1.51-2.49,2.35c-0.62,0.84-1.07,1.51-1.35,2.01v26.89c0,1.08,0.22,1.96,0.66,2.66
		c0.44,0.69,1.11,1.23,1.99,1.62c0.66,0.32,1.38,0.55,2.15,0.71c0.77,0.15,1.57,0.27,2.4,0.33v3.13h-22.9V99.8
		c0.73-0.07,1.47-0.12,2.25-0.19s1.45-0.19,2.01-0.37c0.88-0.29,1.54-0.78,1.97-1.49c0.43-0.71,0.64-1.64,0.64-2.77V66.11
		c0-1.08-0.23-2.07-0.69-2.96c-0.46-0.9-1.1-1.64-1.92-2.2c-0.6-0.37-1.31-0.66-2.13-0.82c-0.82-0.18-1.7-0.3-2.66-0.35v-3.13
		l15.55-1.04l0.66,0.66v6.59h0.24c0.76-0.76,1.7-1.67,2.85-2.72c1.14-1.05,2.21-1.92,3.22-2.58c1.16-0.76,2.56-1.4,4.18-1.9
		s3.43-0.76,5.45-0.76c4.48,0,7.81,1.4,9.98,4.2c2.16,2.8,3.25,6.52,3.25,11.16v24.33c0,1.11,0.19,2,0.57,2.68
		c0.38,0.68,1.02,1.21,1.94,1.59c0.76,0.32,1.42,0.54,1.97,0.66c0.55,0.13,1.32,0.22,2.3,0.29v3.12H822.17z"/>
	<path d="M871.87,91.91c-1.96,3.72-4.58,6.7-7.87,8.91c-3.29,2.21-7.07,3.32-11.33,3.32c-3.76,0-7.05-0.66-9.89-1.99
		c-2.83-1.33-5.16-3.13-7-5.41s-3.2-4.93-4.1-7.97c-0.9-3.03-1.35-6.24-1.35-9.63c0-3.03,0.48-6.01,1.45-8.93
		c0.97-2.92,2.37-5.56,4.24-7.9c1.8-2.24,4.03-4.05,6.71-5.43c2.67-1.37,5.67-2.07,8.99-2.07c3.42,0,6.34,0.54,8.77,1.62
		c2.44,1.08,4.41,2.55,5.92,4.41c1.45,1.77,2.54,3.86,3.25,6.26c0.71,2.41,1.07,5.01,1.07,7.82v3.13h-30.96
		c0,3.08,0.3,5.86,0.88,8.36c0.58,2.51,1.51,4.7,2.77,6.6c1.23,1.83,2.85,3.29,4.83,4.35c1.99,1.07,4.36,1.59,7.11,1.59
		c2.81,0,5.24-0.66,7.27-1.98c2.04-1.32,4.01-3.69,5.9-7.13L871.87,91.91z M861.38,74.09c0-1.77-0.15-3.66-0.45-5.67
		c-0.3-2.01-0.78-3.7-1.45-5.05c-0.73-1.45-1.73-2.63-2.99-3.55c-1.26-0.91-2.89-1.37-4.88-1.37c-3.32,0-6.08,1.37-8.27,4.13
		c-2.2,2.76-3.4,6.59-3.58,11.52C839.76,74.09,861.38,74.09,861.38,74.09z"/>
	<path d="M910.57,80.01c1.3,1.14,2.3,2.45,2.99,3.93c0.69,1.48,1.04,3.31,1.04,5.45c0,4.33-1.62,7.87-4.86,10.63
		c-3.24,2.75-7.44,4.12-12.59,4.12c-2.71,0-5.22-0.49-7.52-1.47c-2.3-0.98-3.93-1.88-4.91-2.7l-0.94,3.09h-3.56l-0.47-16.26h3.27
		c0.25,1.24,0.79,2.68,1.62,4.33c0.82,1.65,1.81,3.14,2.99,4.47c1.23,1.4,2.71,2.57,4.43,3.53c1.73,0.96,3.66,1.43,5.81,1.43
		c3.03,0,5.37-0.69,7.02-2.08c1.65-1.38,2.46-3.36,2.46-5.94c0-1.33-0.26-2.47-0.78-3.44c-0.52-0.97-1.29-1.81-2.3-2.54
		c-1.04-0.73-2.32-1.38-3.85-1.97c-1.52-0.58-3.21-1.16-5.08-1.73c-1.48-0.44-3.14-1.05-4.96-1.82c-1.81-0.77-3.37-1.68-4.67-2.72
		c-1.4-1.11-2.53-2.46-3.42-4.08c-0.89-1.62-1.33-3.51-1.33-5.69c0-3.82,1.42-7.07,4.26-9.72s6.66-3.98,11.43-3.98
		c1.83,0,3.7,0.24,5.61,0.71c1.91,0.47,3.47,1.04,4.67,1.7l1.09-2.46h3.42l0.71,15.03h-3.27c-0.66-3.36-2.1-6.1-4.3-8.21
		s-4.88-3.16-8.03-3.16c-2.59,0-4.63,0.65-6.12,1.96c-1.48,1.31-2.23,2.88-2.23,4.72c0,1.42,0.24,2.6,0.74,3.56
		c0.49,0.94,1.22,1.76,2.21,2.42c0.94,0.64,2.14,1.23,3.58,1.78c1.44,0.55,3.22,1.18,5.33,1.87c2.09,0.66,4.05,1.44,5.9,2.32
		C907.84,77.96,909.37,78.95,910.57,80.01z"/>
	<path d="M954.97,80.01c1.3,1.14,2.3,2.45,2.99,3.93c0.69,1.48,1.04,3.31,1.04,5.45c0,4.33-1.62,7.87-4.86,10.63
		c-3.24,2.75-7.44,4.12-12.59,4.12c-2.71,0-5.22-0.49-7.52-1.47s-3.93-1.88-4.91-2.7l-0.94,3.09h-3.56l-0.47-16.26h3.27
		c0.25,1.24,0.79,2.68,1.62,4.33c0.82,1.65,1.81,3.14,2.99,4.47c1.23,1.4,2.71,2.57,4.43,3.53c1.73,0.96,3.66,1.43,5.81,1.43
		c3.03,0,5.37-0.69,7.02-2.08c1.65-1.38,2.46-3.36,2.46-5.94c0-1.33-0.26-2.47-0.78-3.44s-1.29-1.81-2.3-2.54
		c-1.04-0.73-2.32-1.38-3.85-1.97c-1.52-0.58-3.21-1.16-5.08-1.73c-1.48-0.44-3.14-1.05-4.96-1.82c-1.81-0.77-3.37-1.68-4.67-2.72
		c-1.4-1.11-2.53-2.46-3.42-4.08c-0.89-1.62-1.33-3.51-1.33-5.69c0-3.82,1.42-7.07,4.26-9.72s6.66-3.98,11.43-3.98
		c1.83,0,3.7,0.24,5.61,0.71c1.91,0.47,3.47,1.04,4.67,1.7l1.09-2.46h3.42l0.71,15.03h-3.27c-0.66-3.36-2.1-6.1-4.3-8.21
		s-4.88-3.16-8.03-3.16c-2.59,0-4.63,0.65-6.12,1.96c-1.48,1.31-2.23,2.88-2.23,4.72c0,1.42,0.24,2.6,0.74,3.56
		c0.49,0.94,1.22,1.76,2.21,2.42c0.94,0.64,2.14,1.23,3.58,1.78s3.22,1.18,5.33,1.87c2.09,0.66,4.05,1.44,5.9,2.32
		C952.23,77.96,953.76,78.95,954.97,80.01z"/>
</g>
<g>
	<path d="M240.72,170.66c-1.64,0-3.07-0.2-4.3-0.6c-1.23-0.41-2.22-0.87-2.98-1.41l-1.13,1.45h-1.59l1.96-9.68h1.62
		c0.07,1.15,0.22,2.24,0.47,3.25c0.24,1.01,0.65,1.92,1.21,2.72c0.56,0.84,1.27,1.48,2.16,1.94c0.89,0.46,1.99,0.68,3.31,0.68
		c1.98,0,3.56-0.55,4.76-1.65c1.2-1.1,1.79-2.59,1.79-4.49c0-1.02-0.25-1.93-0.76-2.72c-0.51-0.79-1.26-1.42-2.26-1.86
		c-0.96-0.42-1.9-0.78-2.83-1.11c-0.93-0.33-1.86-0.7-2.76-1.14c-1.2-0.57-2.15-1.4-2.88-2.46c-0.73-1.07-1.1-2.27-1.1-3.61
		c0-1.27,0.29-2.45,0.85-3.53s1.31-2.01,2.24-2.79c0.9-0.76,2-1.36,3.27-1.81c1.29-0.45,2.55-0.68,3.81-0.68
		c1.19,0,2.3,0.14,3.36,0.42c1.05,0.27,2.11,0.8,3.18,1.57l1.1-1.35h1.59l-2.01,9.38h-1.62c-0.04-1.02-0.14-2.08-0.31-3.16
		c-0.16-1.09-0.45-1.99-0.85-2.7c-0.44-0.78-1.04-1.4-1.83-1.85c-0.78-0.45-1.82-0.67-3.12-0.67c-1.56,0-2.88,0.54-3.93,1.63
		c-1.07,1.08-1.59,2.36-1.59,3.86c0,0.98,0.2,1.81,0.58,2.51c0.4,0.68,1,1.24,1.82,1.66c0.88,0.45,1.79,0.84,2.76,1.16
		c0.96,0.33,1.82,0.67,2.57,1.02c1.53,0.71,2.71,1.58,3.57,2.59s1.29,2.24,1.29,3.7c0,1.41-0.31,2.72-0.91,3.94
		c-0.62,1.22-1.43,2.24-2.45,3.07c-1.08,0.88-2.29,1.55-3.61,2.01C243.8,170.43,242.34,170.66,240.72,170.66z"/>
	<path d="M273.26,154.11c0,1.41-0.44,2.62-1.33,3.63c-0.88,1.01-2.16,1.81-3.86,2.42c-1.23,0.45-2.48,0.82-3.75,1.1
		c-1.26,0.27-2.66,0.52-4.19,0.7c0,2.1,0.38,3.7,1.16,4.81c0.78,1.11,1.91,1.66,3.42,1.66c1.33,0,2.51-0.33,3.52-1
		c1.01-0.66,2.01-1.65,3-2.97l1.13,0.84c-1.07,1.62-2.4,2.91-3.99,3.89c-1.59,0.97-3.25,1.45-4.96,1.45c-2.35,0-4.14-0.66-5.38-1.98
		c-1.24-1.32-1.86-3.19-1.86-5.6c0-1.67,0.26-3.27,0.79-4.79c0.53-1.53,1.3-2.91,2.3-4.18c0.98-1.23,2.19-2.23,3.61-2.99
		s3-1.14,4.74-1.14c1.91,0,3.33,0.38,4.25,1.16C272.8,151.91,273.26,152.91,273.26,154.11z M269.6,153.62
		c0-0.52-0.08-0.92-0.22-1.22s-0.33-0.52-0.56-0.67c-0.24-0.15-0.49-0.26-0.76-0.3c-0.26-0.03-0.54-0.05-0.81-0.05
		c-1.59,0-3.07,0.88-4.42,2.63c-1.35,1.75-2.2,3.93-2.56,6.54c0.93-0.13,1.98-0.32,3.14-0.57s2.14-0.57,2.91-0.97
		c1.1-0.57,1.92-1.31,2.46-2.2C269.33,155.92,269.6,154.86,269.6,153.62z"/>
	<path d="M293.52,154.11c0,1.41-0.44,2.62-1.33,3.63c-0.88,1.01-2.16,1.81-3.86,2.42c-1.23,0.45-2.48,0.82-3.75,1.1
		c-1.26,0.27-2.66,0.52-4.19,0.7c0,2.1,0.38,3.7,1.16,4.81c0.78,1.11,1.91,1.66,3.42,1.66c1.33,0,2.51-0.33,3.52-1
		c1.01-0.66,2.01-1.65,3-2.97l1.13,0.84c-1.07,1.62-2.4,2.91-3.99,3.89c-1.59,0.97-3.25,1.45-4.96,1.45c-2.35,0-4.14-0.66-5.38-1.98
		s-1.86-3.19-1.86-5.6c0-1.67,0.26-3.27,0.79-4.79c0.53-1.53,1.3-2.91,2.3-4.18c0.98-1.23,2.19-2.23,3.61-2.99
		c1.43-0.76,3-1.14,4.74-1.14c1.91,0,3.33,0.38,4.25,1.16C293.06,151.91,293.52,152.91,293.52,154.11z M289.86,153.62
		c0-0.52-0.08-0.92-0.22-1.22s-0.33-0.52-0.56-0.67c-0.24-0.15-0.49-0.26-0.76-0.3c-0.26-0.03-0.54-0.05-0.81-0.05
		c-1.59,0-3.07,0.88-4.42,2.63c-1.35,1.75-2.2,3.93-2.56,6.54c0.93-0.13,1.98-0.32,3.14-0.57s2.14-0.57,2.91-0.97
		c1.1-0.57,1.92-1.31,2.46-2.2C289.59,155.92,289.86,154.86,289.86,153.62z"/>
	<path d="M306.31,167.92l-0.3,1.27c-1.22,0.49-2.2,0.84-2.93,1.02c-0.74,0.19-1.35,0.29-1.87,0.29c-1.07,0-1.86-0.27-2.4-0.82
		c-0.54-0.55-0.8-1.23-0.8-2.04c0-0.31,0.02-0.63,0.08-0.96c0.05-0.33,0.14-0.75,0.26-1.25l2.11-8.47c0.11-0.46,0.21-0.97,0.31-1.49
		c0.1-0.53,0.15-0.99,0.15-1.35c0-0.75-0.12-1.24-0.36-1.48c-0.24-0.24-0.75-0.37-1.51-0.37c-0.3,0-0.68,0.04-1.16,0.14
		c-0.48,0.09-0.85,0.18-1.1,0.24l0.3-1.27c1.03-0.46,1.97-0.81,2.79-1.03c0.82-0.23,1.47-0.34,1.96-0.34c1.09,0,1.88,0.26,2.37,0.78
		c0.49,0.52,0.74,1.22,0.74,2.1c0,0.24-0.02,0.56-0.08,0.98c-0.05,0.42-0.13,0.82-0.24,1.23l-2.12,8.47
		c-0.13,0.52-0.25,1.03-0.35,1.53s-0.14,0.91-0.14,1.23c0,0.76,0.16,1.27,0.51,1.56c0.34,0.27,0.88,0.42,1.64,0.42
		c0.25,0,0.62-0.03,1.08-0.1C305.7,168.11,306.07,168,306.31,167.92z M307.73,142.43c0,0.76-0.24,1.42-0.74,1.98
		c-0.49,0.56-1.1,0.85-1.83,0.85c-0.68,0-1.26-0.27-1.76-0.8c-0.49-0.54-0.74-1.15-0.74-1.85c0-0.73,0.24-1.37,0.74-1.91
		c0.49-0.55,1.08-0.81,1.76-0.81c0.76,0,1.37,0.25,1.86,0.77C307.49,141.16,307.73,141.76,307.73,142.43z"/>
	<path d="M331.37,167.77l-0.3,1.27c-1.2,0.47-2.13,0.82-2.8,1.04c-0.67,0.22-1.34,0.33-2.02,0.33c-1.07,0-1.87-0.27-2.4-0.82
		c-0.53-0.55-0.8-1.23-0.8-2.04c0-0.3,0.02-0.62,0.08-0.97c0.05-0.35,0.14-0.77,0.26-1.24l1.97-7.44c0.14-0.57,0.26-1.09,0.35-1.56
		s0.13-0.84,0.13-1.12c0-0.89-0.21-1.59-0.64-2.11c-0.42-0.52-1.04-0.78-1.88-0.78c-0.8,0-1.7,0.26-2.7,0.8
		c-1,0.54-1.94,1.31-2.82,2.32l-3.41,14.64h-3.72l2.99-12.92c0.07-0.32,0.16-0.78,0.29-1.38c0.12-0.6,0.19-1.1,0.19-1.46
		c0-0.75-0.13-1.24-0.38-1.49c-0.25-0.25-0.76-0.37-1.52-0.37c-0.3,0-0.67,0.05-1.12,0.15c-0.45,0.1-0.8,0.19-1.07,0.25l0.3-1.27
		c1.04-0.46,1.97-0.81,2.76-1.03c0.8-0.23,1.48-0.34,2.07-0.34c1.05,0,1.81,0.29,2.26,0.86c0.45,0.57,0.69,1.36,0.73,2.37h0.12
		c1.45-1.16,2.71-2.03,3.77-2.6c1.05-0.56,2.26-0.85,3.62-0.85c1.27,0,2.26,0.37,2.98,1.11c0.71,0.74,1.08,1.7,1.08,2.9
		c0,0.24-0.03,0.66-0.11,1.27c-0.08,0.62-0.19,1.22-0.35,1.81l-1.67,6.41c-0.12,0.43-0.23,0.91-0.35,1.46
		c-0.11,0.55-0.16,0.98-0.16,1.29c0,0.76,0.16,1.27,0.49,1.55c0.33,0.27,0.88,0.41,1.64,0.41c0.25,0,0.62-0.04,1.09-0.13
		C330.77,167.96,331.12,167.87,331.37,167.77z"/>
	<path d="M347.7,167.39l-0.14-0.04c-0.26,0.21-0.64,0.52-1.12,0.9s-0.99,0.73-1.53,1.02c-0.62,0.36-1.23,0.65-1.86,0.88
		c-0.63,0.23-1.32,0.34-2.08,0.34c-1.92,0-3.41-0.68-4.45-2.04s-1.56-3.24-1.56-5.64c0-1.65,0.3-3.25,0.9-4.8
		c0.6-1.55,1.43-2.93,2.48-4.14c1.01-1.16,2.22-2.11,3.63-2.82c1.41-0.71,2.88-1.07,4.42-1.07c0.96,0,1.86,0.12,2.71,0.37
		c0.85,0.24,1.54,0.54,2.05,0.87l3.65-0.93l0.24,0.3l-3.34,15.71c-0.51,2.38-1.15,4.38-1.94,6.03c-0.79,1.64-1.7,2.94-2.74,3.9
		c-1.07,0.99-2.23,1.68-3.52,2.1c-1.29,0.42-2.74,0.63-4.35,0.63c-1.1,0-2-0.09-2.7-0.26c-0.69-0.18-1.24-0.4-1.65-0.68
		c-0.41-0.29-0.67-0.59-0.8-0.94c-0.13-0.35-0.21-0.68-0.21-1.01c0-0.59,0.18-1.1,0.54-1.51c0.36-0.41,0.85-0.6,1.47-0.6
		c0.49,0,0.91,0.14,1.25,0.43c0.34,0.29,0.63,0.59,0.84,0.92c0.23,0.34,0.44,0.76,0.66,1.23c0.21,0.48,0.37,0.84,0.48,1.08h0.59
		c0.73,0,1.52-0.16,2.35-0.49s1.6-0.87,2.29-1.62c0.7-0.77,1.36-1.8,1.97-3.1C346.86,171.09,347.34,169.42,347.7,167.39z
		 M350.35,154.65c0-0.37-0.05-0.76-0.16-1.14c-0.11-0.4-0.32-0.76-0.63-1.09c-0.3-0.32-0.66-0.57-1.11-0.76
		c-0.45-0.19-1.03-0.27-1.73-0.27c-1.02,0-1.99,0.31-2.89,0.92c-0.91,0.62-1.73,1.46-2.46,2.54c-0.68,1.01-1.23,2.23-1.65,3.67
		c-0.43,1.44-0.64,2.88-0.64,4.33c0,0.78,0.05,1.51,0.16,2.16c0.11,0.66,0.31,1.23,0.58,1.73s0.65,0.88,1.11,1.14
		c0.46,0.26,1.05,0.41,1.78,0.41c0.93,0,1.86-0.27,2.77-0.8c0.91-0.54,1.79-1.23,2.62-2.07L350.35,154.65z"/>
	<path d="M392.94,161.67l-2.53,8.41H368.3l0.3-1.32c0.33-0.02,0.8-0.08,1.42-0.14c0.62-0.07,1.05-0.15,1.33-0.26
		c0.48-0.19,0.84-0.45,1.09-0.8c0.24-0.35,0.42-0.76,0.51-1.23l4.72-20.44c0.02-0.12,0.05-0.24,0.07-0.36
		c0.02-0.13,0.03-0.25,0.03-0.37c0-0.26-0.05-0.51-0.16-0.73c-0.11-0.22-0.32-0.41-0.6-0.57c-0.26-0.16-0.66-0.31-1.16-0.46
		s-0.94-0.24-1.31-0.27l0.3-1.32h11.93l-0.3,1.32c-0.31,0.01-0.75,0.07-1.33,0.16c-0.58,0.1-1.09,0.22-1.53,0.35
		c-0.52,0.18-0.9,0.45-1.13,0.84c-0.24,0.38-0.42,0.79-0.52,1.21l-4.42,19.18c-0.11,0.46-0.19,0.88-0.25,1.23
		c-0.05,0.35-0.09,0.64-0.09,0.87c0,0.74,0.3,1.19,0.89,1.37c0.59,0.19,1.67,0.27,3.24,0.27c0.88,0,1.88-0.08,3-0.23
		c1.12-0.15,1.9-0.43,2.34-0.82c0.68-0.59,1.53-1.53,2.56-2.78c1.03-1.25,1.8-2.3,2.31-3.12h1.41V161.67z"/>
	<path d="M408.31,167.45h-0.14c-0.3,0.24-0.64,0.54-1.04,0.91c-0.41,0.36-0.88,0.71-1.42,1.04c-0.52,0.33-1.08,0.63-1.69,0.87
		c-0.62,0.24-1.27,0.37-1.99,0.37c-1.92,0-3.43-0.69-4.53-2.08s-1.64-3.27-1.64-5.66c0-1.65,0.31-3.25,0.91-4.8
		c0.62-1.56,1.45-2.96,2.53-4.19c1.02-1.19,2.23-2.13,3.64-2.86s2.86-1.09,4.34-1.09c0.94,0,1.85,0.13,2.69,0.37
		c0.86,0.25,1.53,0.54,2.02,0.86l3.66-0.93l0.24,0.3l-3.03,12.87c-0.11,0.42-0.22,0.91-0.33,1.51s-0.16,1.02-0.16,1.31
		c0,0.76,0.16,1.27,0.48,1.54c0.32,0.26,0.86,0.4,1.62,0.4c0.25,0,0.62-0.04,1.08-0.12c0.46-0.08,0.82-0.16,1.08-0.26l-0.3,1.27
		c-1.2,0.48-2.09,0.82-2.67,1.03c-0.58,0.21-1.3,0.32-2.13,0.32c-0.96,0-1.71-0.27-2.27-0.84
		C408.68,169.04,408.37,168.31,408.31,167.45z M411.18,154.85c0-0.44-0.04-0.86-0.14-1.25c-0.09-0.4-0.29-0.77-0.58-1.12
		c-0.26-0.33-0.63-0.59-1.1-0.8s-1.05-0.3-1.76-0.3c-0.97,0-1.91,0.32-2.83,0.96c-0.91,0.64-1.74,1.49-2.47,2.57
		c-0.69,1.01-1.25,2.23-1.69,3.67c-0.44,1.44-0.66,2.89-0.66,4.36c0,0.81,0.04,1.53,0.14,2.15c0.09,0.63,0.27,1.2,0.54,1.71
		c0.25,0.51,0.62,0.9,1.1,1.18c0.47,0.27,1.08,0.42,1.81,0.42c0.75,0,1.52-0.21,2.34-0.63c0.81-0.42,1.74-1.15,2.76-2.21
		L411.18,154.85z"/>
	<path d="M451.14,153.65c0,2.09-0.3,4.15-0.9,6.2c-0.6,2.04-1.42,3.85-2.45,5.41c-1.15,1.73-2.46,3.07-3.92,4.01
		c-1.46,0.94-3.04,1.42-4.76,1.42c-1.25,0-2.4-0.34-3.46-1.03c-1.05-0.69-1.76-1.64-2.12-2.85c-0.48,0.46-0.92,0.9-1.33,1.3
		c-0.41,0.4-0.93,0.81-1.58,1.23c-0.65,0.43-1.24,0.75-1.78,0.98c-0.54,0.23-1.23,0.34-2.07,0.34c-1.01,0-1.85-0.15-2.51-0.47
		c-0.66-0.31-1.19-0.73-1.58-1.23c-0.37-0.48-0.64-1.02-0.8-1.63c-0.16-0.6-0.24-1.24-0.24-1.9c0-0.25,0.03-0.57,0.09-0.96
		c0.05-0.38,0.12-0.71,0.19-1l1.69-6.3c0.16-0.59,0.27-1.14,0.35-1.64c0.08-0.49,0.11-0.9,0.11-1.22c0-0.75-0.12-1.24-0.37-1.48
		c-0.25-0.24-0.75-0.37-1.51-0.37c-0.3,0-0.66,0.05-1.12,0.16c-0.45,0.11-0.8,0.2-1.05,0.27l0.3-1.29c1.03-0.47,1.94-0.82,2.74-1.07
		c0.79-0.24,1.42-0.36,1.9-0.36c1.05,0,1.83,0.25,2.33,0.75c0.49,0.49,0.75,1.21,0.75,2.12c0,0.24-0.02,0.56-0.08,0.98
		c-0.05,0.42-0.13,0.82-0.24,1.23l-1.83,7.36c-0.12,0.49-0.22,1-0.3,1.52c-0.08,0.52-0.12,0.9-0.12,1.15c0,1,0.2,1.75,0.59,2.26
		c0.4,0.52,1.07,0.77,2.01,0.77c0.84,0,1.71-0.23,2.64-0.69s1.76-1.13,2.52-2.01l3.53-15.13l3.47-0.24l0.24,0.3l-2.81,12.14
		c-0.09,0.4-0.19,0.89-0.29,1.46c-0.1,0.58-0.15,0.94-0.15,1.09c0,0.74,0.12,1.31,0.35,1.74c0.23,0.43,0.53,0.74,0.89,0.93
		c0.34,0.2,0.7,0.32,1.08,0.37c0.37,0.04,0.74,0.07,1.08,0.07c0.9,0,1.82-0.29,2.78-0.86c0.94-0.57,1.78-1.32,2.48-2.23
		c0.78-1.02,1.4-2.15,1.86-3.4c0.45-1.24,0.68-2.58,0.68-4.02c0-0.8-0.11-1.42-0.33-1.85c-0.22-0.43-0.46-0.81-0.73-1.13
		c-0.26-0.33-0.51-0.68-0.73-1.04c-0.22-0.36-0.33-0.88-0.33-1.55c0-0.76,0.25-1.34,0.76-1.74c0.51-0.4,1.03-0.59,1.59-0.59
		c0.78,0,1.4,0.32,1.85,0.94C450.93,151.51,451.14,152.46,451.14,153.65z"/>
	<path d="M493.26,141.82l-1.77,7.67h-1.37c-0.01-0.46-0.08-1.05-0.19-1.77c-0.11-0.71-0.27-1.36-0.48-1.93
		c-0.22-0.62-0.52-1.13-0.88-1.57c-0.36-0.44-0.8-0.69-1.3-0.78c-0.4-0.05-0.9-0.09-1.52-0.12s-1.19-0.04-1.71-0.04h-1.25
		l-5.27,22.81c-0.02,0.1-0.04,0.22-0.05,0.34c-0.01,0.13-0.02,0.25-0.02,0.37c0,0.32,0.05,0.58,0.18,0.79
		c0.12,0.21,0.34,0.38,0.68,0.55c0.26,0.11,0.75,0.23,1.44,0.38c0.69,0.15,1.26,0.23,1.7,0.25l-0.32,1.32h-13.37l0.32-1.32
		c0.4-0.02,0.98-0.08,1.74-0.16c0.76-0.08,1.31-0.18,1.65-0.3c0.53-0.2,0.93-0.47,1.2-0.81c0.26-0.34,0.45-0.76,0.56-1.23
		l5.32-22.99h-1.05c-0.4,0-0.9,0.01-1.49,0.03c-0.59,0.02-1.21,0.07-1.83,0.13c-0.44,0.05-0.96,0.32-1.54,0.79
		c-0.58,0.47-1.16,1.02-1.76,1.66c-0.56,0.63-1.07,1.25-1.52,1.9c-0.45,0.65-0.8,1.21-1.05,1.7h-1.4l1.77-7.67h24.61V141.82z"/>
	<path d="M512.3,167.77l-0.3,1.27c-1.2,0.47-2.13,0.82-2.79,1.04c-0.66,0.22-1.34,0.33-2.01,0.33c-1.07,0-1.86-0.27-2.4-0.82
		c-0.53-0.55-0.8-1.23-0.8-2.04c0-0.3,0.02-0.62,0.08-0.97c0.05-0.35,0.14-0.77,0.26-1.24l1.96-7.44c0.14-0.57,0.26-1.09,0.35-1.56
		s0.13-0.84,0.13-1.12c0-0.89-0.21-1.59-0.64-2.11c-0.43-0.52-1.04-0.78-1.88-0.78c-0.85,0-1.76,0.27-2.74,0.82
		c-0.98,0.55-1.91,1.31-2.79,2.3l-3.38,14.64h-3.72l5.93-25.66c0.07-0.31,0.12-0.56,0.16-0.78c0.04-0.21,0.07-0.44,0.07-0.68
		c0-0.48-0.08-0.85-0.24-1.11c-0.16-0.26-0.38-0.45-0.68-0.58c-0.25-0.12-0.6-0.2-1.04-0.24c-0.44-0.04-0.88-0.09-1.32-0.14
		l0.27-1.22l7.42-0.44l0.2,0.3l-3.19,13.77h0.08c1.36-1.1,2.58-1.93,3.65-2.51c1.07-0.56,2.29-0.85,3.65-0.85
		c1.27,0,2.26,0.37,2.98,1.11c0.71,0.74,1.08,1.7,1.08,2.9c0,0.24-0.03,0.66-0.11,1.27c-0.08,0.62-0.19,1.22-0.35,1.81l-1.67,6.41
		c-0.11,0.43-0.22,0.91-0.34,1.46s-0.18,0.98-0.18,1.29c0,0.76,0.16,1.27,0.49,1.55c0.33,0.27,0.88,0.41,1.64,0.41
		c0.25,0,0.62-0.04,1.09-0.13C511.68,167.96,512.05,167.87,512.3,167.77z"/>
	<path d="M533.51,153.21c0,0.37-0.05,0.78-0.16,1.23c-0.11,0.45-0.26,0.81-0.46,1.11c-0.24,0.36-0.51,0.64-0.79,0.82
		c-0.29,0.19-0.69,0.29-1.23,0.29c-0.71,0-1.25-0.18-1.62-0.54c-0.36-0.36-0.54-0.76-0.54-1.2c0-0.42,0.1-0.87,0.3-1.38
		c0.2-0.51,0.41-1.02,0.62-1.53c-0.16,0-0.42,0.04-0.79,0.13c-0.36,0.09-0.8,0.25-1.32,0.51c-0.52,0.25-1.1,0.64-1.76,1.14
		c-0.66,0.51-1.35,1.18-2.1,2.01l-3.21,14.27h-3.69l2.9-12.92c0.07-0.32,0.16-0.8,0.29-1.44c0.12-0.64,0.19-1.11,0.19-1.42
		c0-0.75-0.12-1.24-0.37-1.49c-0.25-0.25-0.76-0.37-1.52-0.37c-0.3,0-0.66,0.05-1.11,0.15s-0.8,0.19-1.05,0.25l0.3-1.27
		c1.03-0.46,1.96-0.81,2.75-1.03c0.8-0.23,1.48-0.34,2.05-0.34c1.07,0,1.82,0.29,2.27,0.87s0.68,1.45,0.68,2.6h0.12
		c1.58-1.37,2.78-2.33,3.59-2.87c0.81-0.55,1.67-0.81,2.56-0.81c0.43,0,0.84,0.05,1.23,0.16c0.4,0.11,0.74,0.29,1.01,0.54
		c0.3,0.27,0.51,0.6,0.65,0.97C533.43,151.99,533.51,152.52,533.51,153.21z"/>
	<path d="M554.92,157.81c0,1.57-0.26,3.13-0.8,4.7c-0.54,1.57-1.3,2.94-2.31,4.13c-1.02,1.22-2.25,2.2-3.69,2.94
		c-1.44,0.74-3.11,1.11-5.01,1.11c-2.21,0-3.99-0.71-5.37-2.13c-1.37-1.42-2.07-3.34-2.07-5.75c0-1.77,0.3-3.42,0.88-4.94
		c0.58-1.53,1.36-2.87,2.35-4.03c1-1.15,2.23-2.09,3.69-2.8c1.46-0.71,3.05-1.07,4.77-1.07c2.36,0,4.21,0.73,5.55,2.16
		C554.25,153.58,554.92,155.47,554.92,157.81z M550.86,157.05c0-1.89-0.34-3.31-1.01-4.25s-1.64-1.42-2.9-1.42
		c-1.1,0-2.14,0.34-3.12,1.02c-0.98,0.68-1.81,1.78-2.52,3.31c-0.55,1.15-0.94,2.44-1.2,3.86c-0.25,1.42-0.37,2.72-0.37,3.92
		c0,1.9,0.33,3.34,0.99,4.32s1.65,1.46,2.98,1.46c1.19,0,2.23-0.37,3.14-1.12c0.91-0.75,1.66-1.69,2.23-2.83
		c0.57-1.12,1.01-2.4,1.32-3.83C550.7,160.04,550.86,158.56,550.86,157.05z"/>
	<path d="M571.36,167.3h-0.12c-0.62,0.49-1.2,0.94-1.76,1.35c-0.56,0.42-1.11,0.76-1.65,1.03c-0.64,0.32-1.22,0.55-1.74,0.68
		c-0.52,0.14-1.2,0.21-2.03,0.21c-1.27,0-2.26-0.36-2.97-1.11c-0.7-0.74-1.05-1.7-1.05-2.9c0-0.32,0.02-0.69,0.08-1.13
		c0.05-0.44,0.18-1.09,0.37-1.96l1.55-6.32c0.13-0.58,0.24-1.1,0.33-1.55c0.09-0.45,0.13-0.88,0.13-1.3c0-0.75-0.12-1.24-0.36-1.48
		c-0.24-0.24-0.75-0.37-1.51-0.37c-0.3,0-0.66,0.05-1.11,0.16c-0.45,0.11-0.8,0.2-1.05,0.27l0.3-1.29c1.03-0.47,1.94-0.82,2.74-1.07
		c0.79-0.24,1.43-0.36,1.9-0.36c1.07,0,1.85,0.25,2.34,0.75c0.49,0.49,0.75,1.21,0.75,2.12c0,0.24-0.02,0.56-0.08,0.98
		s-0.13,0.82-0.24,1.23l-1.76,7.37c-0.13,0.56-0.24,1.08-0.33,1.56c-0.09,0.48-0.13,0.86-0.13,1.11c0,0.89,0.2,1.59,0.58,2.11
		c0.38,0.52,1,0.78,1.83,0.78c0.85,0,1.73-0.22,2.62-0.67c0.89-0.44,1.79-1.12,2.69-2.02l3.47-15l3.47-0.24l0.24,0.3l-2.97,12.82
		c-0.13,0.55-0.25,1.09-0.36,1.65c-0.11,0.55-0.16,0.93-0.16,1.16c0,0.76,0.16,1.27,0.48,1.54c0.33,0.27,0.87,0.41,1.63,0.41
		c0.25,0,0.6-0.04,1.08-0.12c0.46-0.08,0.82-0.16,1.08-0.26l-0.3,1.27c-1.1,0.45-2.02,0.79-2.76,1.01
		c-0.74,0.23-1.42,0.34-2.04,0.34c-1.08,0-1.88-0.31-2.4-0.93C571.62,168.82,571.36,168.14,571.36,167.3z"/>
	<path d="M595.88,167.39l-0.14-0.04c-0.26,0.21-0.64,0.52-1.12,0.9s-0.99,0.73-1.53,1.02c-0.62,0.36-1.23,0.65-1.86,0.88
		c-0.63,0.23-1.32,0.34-2.08,0.34c-1.92,0-3.41-0.68-4.45-2.04c-1.04-1.36-1.56-3.24-1.56-5.64c0-1.65,0.3-3.25,0.9-4.8
		c0.6-1.55,1.43-2.93,2.48-4.14c1.01-1.16,2.22-2.11,3.63-2.82c1.41-0.71,2.88-1.07,4.42-1.07c0.96,0,1.86,0.12,2.71,0.37
		c0.85,0.24,1.54,0.54,2.05,0.87l3.65-0.93l0.24,0.3l-3.34,15.71c-0.51,2.38-1.15,4.38-1.94,6.03c-0.79,1.64-1.7,2.94-2.74,3.9
		c-1.07,0.99-2.23,1.68-3.52,2.1s-2.74,0.63-4.35,0.63c-1.1,0-2-0.09-2.7-0.26c-0.69-0.18-1.24-0.4-1.65-0.68
		c-0.41-0.29-0.67-0.59-0.8-0.94s-0.21-0.68-0.21-1.01c0-0.59,0.18-1.1,0.54-1.51c0.36-0.41,0.85-0.6,1.47-0.6
		c0.49,0,0.91,0.14,1.25,0.43c0.34,0.29,0.63,0.59,0.84,0.92c0.23,0.34,0.44,0.76,0.66,1.23c0.21,0.48,0.37,0.84,0.48,1.08h0.59
		c0.73,0,1.52-0.16,2.35-0.49s1.6-0.87,2.29-1.62c0.7-0.77,1.36-1.8,1.97-3.1C595.04,171.09,595.52,169.42,595.88,167.39z
		 M598.53,154.65c0-0.37-0.05-0.76-0.16-1.14c-0.11-0.4-0.32-0.76-0.63-1.09c-0.3-0.32-0.66-0.57-1.11-0.76
		c-0.45-0.19-1.03-0.27-1.73-0.27c-1.02,0-1.99,0.31-2.89,0.92c-0.91,0.62-1.73,1.46-2.46,2.54c-0.68,1.01-1.23,2.23-1.65,3.67
		c-0.43,1.44-0.64,2.88-0.64,4.33c0,0.78,0.05,1.51,0.16,2.16c0.11,0.66,0.31,1.23,0.58,1.73c0.27,0.49,0.65,0.88,1.11,1.14
		c0.46,0.26,1.05,0.41,1.78,0.41c0.93,0,1.86-0.27,2.77-0.8c0.91-0.54,1.79-1.23,2.62-2.07L598.53,154.65z"/>
	<path d="M627.91,167.77l-0.3,1.27c-1.2,0.47-2.13,0.82-2.79,1.04s-1.34,0.33-2.01,0.33c-1.07,0-1.86-0.27-2.4-0.82
		c-0.53-0.55-0.8-1.23-0.8-2.04c0-0.3,0.02-0.62,0.08-0.97s0.14-0.77,0.26-1.24l1.96-7.44c0.14-0.57,0.26-1.09,0.35-1.56
		c0.09-0.47,0.13-0.84,0.13-1.12c0-0.89-0.21-1.59-0.64-2.11c-0.43-0.52-1.04-0.78-1.88-0.78c-0.85,0-1.76,0.27-2.74,0.82
		c-0.98,0.55-1.91,1.31-2.79,2.3l-3.38,14.64h-3.72l5.93-25.66c0.07-0.31,0.12-0.56,0.16-0.78c0.04-0.21,0.07-0.44,0.07-0.68
		c0-0.48-0.08-0.85-0.24-1.11c-0.16-0.26-0.38-0.45-0.68-0.58c-0.25-0.12-0.6-0.2-1.04-0.24c-0.44-0.04-0.88-0.09-1.32-0.14
		l0.27-1.22l7.42-0.44l0.2,0.3l-3.19,13.77h0.08c1.36-1.1,2.58-1.93,3.65-2.51c1.07-0.56,2.29-0.85,3.65-0.85
		c1.27,0,2.26,0.37,2.98,1.11c0.71,0.74,1.08,1.7,1.08,2.9c0,0.24-0.03,0.66-0.11,1.27c-0.08,0.62-0.19,1.22-0.35,1.81l-1.67,6.41
		c-0.11,0.43-0.22,0.91-0.34,1.46s-0.18,0.98-0.18,1.29c0,0.76,0.16,1.27,0.49,1.55c0.33,0.27,0.88,0.41,1.64,0.41
		c0.25,0,0.62-0.04,1.09-0.13C627.31,167.96,627.66,167.87,627.91,167.77z"/>
	<path d="M655.35,170.08l0.3-1.32c0.41-0.04,0.89-0.1,1.44-0.16c0.55-0.07,0.98-0.15,1.29-0.25c0.41-0.13,0.73-0.27,0.92-0.42
		c0.2-0.14,0.31-0.37,0.31-0.68c0-0.11-0.08-0.76-0.24-1.94c-0.15-1.19-0.38-2.87-0.67-5.03h-9.93c-0.44,0.69-0.9,1.48-1.4,2.4
		c-0.49,0.91-0.87,1.6-1.13,2.08c-0.24,0.43-0.47,0.9-0.68,1.42c-0.22,0.53-0.33,0.87-0.33,1.04c0,0.44,0.35,0.79,1.05,1.05
		c0.7,0.26,1.58,0.43,2.65,0.49l-0.3,1.32h-10.86l0.3-1.32c0.34-0.02,0.79-0.1,1.34-0.23c0.55-0.12,1.01-0.3,1.38-0.51
		c0.46-0.26,0.91-0.59,1.34-0.99c0.43-0.4,0.89-0.98,1.38-1.76c2.3-3.64,4.81-7.69,7.56-12.15c2.75-4.46,5.15-8.36,7.24-11.71h1.59
		l3.77,24.48c0.08,0.49,0.21,0.9,0.4,1.24s0.46,0.66,0.84,0.94c0.26,0.19,0.63,0.34,1.08,0.47c0.45,0.13,0.85,0.2,1.2,0.21
		l-0.3,1.32h-11.54V170.08z M658.41,158.61l-1.78-11.03l-6.77,11.03H658.41z"/>
	<path d="M688.37,153.21c0,0.37-0.05,0.78-0.16,1.23s-0.26,0.81-0.46,1.11c-0.24,0.36-0.51,0.64-0.79,0.82
		c-0.29,0.19-0.69,0.29-1.23,0.29c-0.71,0-1.25-0.18-1.62-0.54c-0.36-0.36-0.54-0.76-0.54-1.2c0-0.42,0.1-0.87,0.3-1.38
		c0.2-0.51,0.41-1.02,0.62-1.53c-0.16,0-0.42,0.04-0.79,0.13c-0.36,0.09-0.8,0.25-1.32,0.51c-0.52,0.25-1.1,0.64-1.76,1.14
		c-0.66,0.51-1.35,1.18-2.1,2.01l-3.21,14.27h-3.71l2.9-12.92c0.07-0.32,0.16-0.8,0.29-1.44s0.19-1.11,0.19-1.42
		c0-0.75-0.12-1.24-0.37-1.49c-0.25-0.25-0.76-0.37-1.52-0.37c-0.3,0-0.66,0.05-1.11,0.15s-0.8,0.19-1.05,0.25l0.3-1.27
		c1.03-0.46,1.96-0.81,2.75-1.03c0.8-0.23,1.48-0.34,2.05-0.34c1.07,0,1.82,0.29,2.27,0.87s0.68,1.45,0.68,2.6h0.12
		c1.58-1.37,2.78-2.33,3.59-2.87c0.81-0.55,1.67-0.81,2.56-0.81c0.43,0,0.84,0.05,1.23,0.16c0.4,0.11,0.74,0.29,1.01,0.54
		c0.3,0.27,0.51,0.6,0.65,0.97C688.3,151.99,688.37,152.52,688.37,153.21z"/>
	<path d="M695.25,170.51c-1.26,0-2.19-0.25-2.77-0.77c-0.58-0.52-0.88-1.24-0.88-2.2c0-0.31,0.02-0.59,0.05-0.87
		c0.04-0.27,0.09-0.58,0.16-0.92l3.11-13.31h-3.56l0.42-1.81h3.64l1.38-5.83h3.58l-1.35,5.83h5.55l-0.42,1.81h-5.49l-2.57,10.98
		c-0.12,0.51-0.22,0.99-0.3,1.46c-0.08,0.47-0.12,0.87-0.12,1.21c0,0.73,0.19,1.26,0.55,1.6s1.02,0.51,1.98,0.51
		c0.34,0,0.84-0.04,1.45-0.13c0.63-0.09,1.11-0.2,1.45-0.33l-0.34,1.45c-0.93,0.36-1.8,0.67-2.63,0.92
		C697.32,170.38,696.36,170.51,695.25,170.51z"/>
	<path d="M728.72,158.15c0,1.45-0.52,2.68-1.55,3.71c-1.03,1.03-2.26,1.55-3.71,1.55c-1.45,0-2.68-0.52-3.71-1.55
		c-1.03-1.03-1.54-2.26-1.54-3.71s0.52-2.68,1.54-3.71c1.02-1.03,2.26-1.55,3.71-1.55c1.45,0,2.68,0.52,3.71,1.55
		C728.2,155.47,728.72,156.71,728.72,158.15z"/>
	<path d="M757.42,148.07c-0.29,1-0.58,2.13-0.92,3.42c-0.33,1.29-0.56,2.19-0.68,2.71l-2.76,11.91c-0.02,0.11-0.04,0.22-0.05,0.34
		s-0.02,0.23-0.02,0.34c0,0.34,0.08,0.64,0.24,0.87c0.16,0.23,0.35,0.41,0.58,0.51c0.26,0.13,0.77,0.26,1.52,0.37
		c0.75,0.12,1.34,0.19,1.79,0.22l-0.32,1.32h-13.42l0.32-1.32c0.41-0.02,1.04-0.09,1.9-0.16c0.86-0.09,1.46-0.18,1.8-0.27
		c0.36-0.11,0.71-0.34,1.05-0.7c0.34-0.36,0.57-0.79,0.68-1.29l3.27-14.19h-4.97l0.36-1.57h1.1c1.38,0,2.68-0.23,3.89-0.7
		c1.21-0.47,2.21-1.08,2.99-1.8H757.42z"/>
	<path d="M783.77,156.83c0,2.62-0.48,5.1-1.46,7.46c-0.98,2.36-2.33,4.46-4.05,6.29c-1.7,1.8-3.76,3.33-6.19,4.56
		c-2.43,1.23-5.02,2-7.8,2.31v-1.93l1.87-0.18c3.12-0.88,5.69-2.24,7.7-4.11c2.01-1.87,3.53-4.23,4.55-7.1
		c-1.37,1.01-2.66,1.69-3.89,2.05c-1.22,0.36-2.47,0.55-3.75,0.55c-1.89,0-3.46-0.67-4.74-2.02c-1.27-1.35-1.91-3.08-1.91-5.19
		c0-1.47,0.3-2.89,0.88-4.26c0.58-1.36,1.4-2.59,2.43-3.68c1-1.03,2.21-1.88,3.64-2.54c1.43-0.66,2.92-0.99,4.49-0.99
		c2.46,0,4.44,0.78,5.96,2.35C783.01,151.98,783.77,154.13,783.77,156.83z M779.65,156.04c0-2-0.42-3.58-1.23-4.75
		c-0.82-1.16-1.89-1.74-3.21-1.74c-1.16,0-2.19,0.33-3.04,1c-0.87,0.66-1.58,1.49-2.18,2.48c-0.57,0.97-0.99,2.02-1.24,3.16
		c-0.26,1.14-0.38,2.15-0.38,3.02c0,1.58,0.42,2.86,1.24,3.83c0.84,0.98,1.93,1.47,3.3,1.47c1.02,0,2.03-0.19,3.04-0.57
		c1.01-0.37,1.97-0.99,2.87-1.82c0.14-0.46,0.32-1.2,0.53-2.19C779.55,158.96,779.65,157.65,779.65,156.04z"/>
	<path d="M807.87,156.83c0,2.62-0.48,5.1-1.46,7.46c-0.98,2.36-2.33,4.46-4.05,6.29c-1.7,1.8-3.76,3.33-6.19,4.56
		c-2.43,1.23-5.02,2-7.8,2.31v-1.93l1.87-0.18c3.12-0.88,5.69-2.24,7.7-4.11c2.01-1.87,3.53-4.23,4.55-7.1
		c-1.37,1.01-2.66,1.69-3.89,2.05c-1.22,0.36-2.47,0.55-3.75,0.55c-1.89,0-3.46-0.67-4.74-2.02c-1.27-1.35-1.91-3.08-1.91-5.19
		c0-1.47,0.3-2.89,0.88-4.26c0.58-1.36,1.4-2.59,2.43-3.68c1-1.03,2.21-1.88,3.64-2.54c1.43-0.66,2.92-0.99,4.49-0.99
		c2.46,0,4.44,0.78,5.96,2.35C807.12,151.98,807.87,154.13,807.87,156.83z M803.75,156.04c0-2-0.42-3.58-1.23-4.75
		c-0.82-1.16-1.89-1.74-3.21-1.74c-1.16,0-2.19,0.33-3.04,1c-0.87,0.66-1.58,1.49-2.18,2.48c-0.57,0.97-0.99,2.02-1.24,3.16
		c-0.26,1.14-0.38,2.15-0.38,3.02c0,1.58,0.42,2.86,1.24,3.83c0.84,0.98,1.93,1.47,3.3,1.47c1.02,0,2.03-0.19,3.04-0.57
		c1.01-0.37,1.97-0.99,2.87-1.82c0.14-0.46,0.32-1.2,0.53-2.19C803.65,158.96,803.75,157.65,803.75,156.04z"/>
	<path d="M831.98,156.83c0,2.62-0.48,5.1-1.46,7.46c-0.98,2.36-2.33,4.46-4.05,6.29c-1.7,1.8-3.76,3.33-6.19,4.56
		c-2.43,1.23-5.02,2-7.8,2.31v-1.93l1.87-0.18c3.12-0.88,5.69-2.24,7.7-4.11c2.01-1.87,3.53-4.23,4.55-7.1
		c-1.37,1.01-2.66,1.69-3.89,2.05c-1.22,0.36-2.47,0.55-3.75,0.55c-1.89,0-3.46-0.67-4.74-2.02c-1.27-1.35-1.91-3.08-1.91-5.19
		c0-1.47,0.3-2.89,0.88-4.26c0.58-1.36,1.4-2.59,2.43-3.68c1-1.03,2.21-1.88,3.64-2.54c1.43-0.66,2.92-0.99,4.49-0.99
		c2.46,0,4.44,0.78,5.96,2.35C831.22,151.98,831.98,154.13,831.98,156.83z M827.86,156.04c0-2-0.42-3.58-1.23-4.75
		c-0.82-1.16-1.89-1.74-3.21-1.74c-1.16,0-2.19,0.33-3.04,1c-0.87,0.66-1.58,1.49-2.18,2.48c-0.57,0.97-0.99,2.02-1.24,3.16
		c-0.26,1.14-0.38,2.15-0.38,3.02c0,1.58,0.42,2.86,1.24,3.83c0.84,0.98,1.93,1.47,3.3,1.47c1.02,0,2.03-0.19,3.04-0.57
		c1.01-0.37,1.97-0.99,2.87-1.82c0.14-0.46,0.32-1.2,0.53-2.19C827.76,158.96,827.86,157.65,827.86,156.04z"/>
	<path d="M858.83,157.73l-0.58,2.4h-22.17l0.58-2.4H858.83z"/>
	<path d="M882.71,154.31c0,1.46-0.36,2.69-1.08,3.69c-0.71,1-1.69,1.86-2.93,2.56c-0.93,0.53-2.01,1-3.24,1.41
		c-1.23,0.41-2.58,0.82-4.05,1.26c-1.26,0.37-2.48,0.84-3.66,1.38c-1.18,0.55-2.14,1.22-2.9,2h15.88l-0.81,3.46h-18.67l0.66-2.71
		c0.4-0.53,0.88-1.04,1.44-1.55c0.56-0.51,1.22-1,1.97-1.47c0.66-0.42,1.41-0.81,2.22-1.22s1.7-0.78,2.66-1.15
		c1.23-0.47,2.32-0.94,3.24-1.41c0.92-0.46,1.7-0.92,2.34-1.41c0.97-0.71,1.66-1.49,2.07-2.34c0.41-0.85,0.6-1.83,0.6-2.96
		c0-1.32-0.36-2.35-1.08-3.12c-0.71-0.76-1.65-1.14-2.79-1.14c-1.1,0-2.04,0.2-2.81,0.58s-1.31,0.8-1.62,1.23
		c0,0.16,0.01,0.38,0.03,0.68c0.02,0.3,0.03,0.65,0.03,1.05c0,1.2-0.23,2.09-0.69,2.68c-0.46,0.59-1.21,0.89-2.23,0.89
		c-0.74,0-1.24-0.16-1.53-0.51s-0.43-0.76-0.43-1.24c0-0.78,0.24-1.58,0.73-2.38s1.18-1.55,2.07-2.24c0.87-0.68,1.9-1.23,3.11-1.65
		s2.52-0.63,3.92-0.63c2.25,0,4.08,0.56,5.47,1.67C882.01,150.86,882.71,152.38,882.71,154.31z"/>
	<path d="M909.08,156.2c0,1.9-0.34,3.74-1.02,5.49c-0.68,1.77-1.62,3.3-2.8,4.6c-1.25,1.37-2.67,2.45-4.26,3.24
		s-3.42,1.19-5.46,1.19c-2.66,0-4.74-0.76-6.23-2.29c-1.51-1.53-2.25-3.44-2.25-5.74c0-2.01,0.35-3.89,1.04-5.65
		c0.69-1.76,1.66-3.32,2.9-4.67c1.21-1.33,2.65-2.37,4.31-3.14c1.67-0.77,3.43-1.15,5.29-1.15c2.72,0,4.81,0.79,6.29,2.36
		C908.35,152.01,909.08,153.93,909.08,156.2z M904.84,155.3c0-1.89-0.41-3.31-1.21-4.29c-0.8-0.97-1.91-1.45-3.32-1.45
		c-1.46,0-2.78,0.45-3.94,1.34c-1.16,0.9-2.15,2.15-2.94,3.76c-0.69,1.4-1.22,2.9-1.58,4.51s-0.55,3.07-0.55,4.38
		c0,1.78,0.38,3.18,1.15,4.18s1.9,1.51,3.41,1.51c1.38,0,2.65-0.41,3.8-1.23c1.15-0.81,2.18-2.1,3.04-3.86
		c0.75-1.47,1.29-3,1.63-4.58C904.68,157.98,904.84,156.56,904.84,155.3z"/>
	<path d="M932.57,154.31c0,1.46-0.36,2.69-1.08,3.69c-0.71,1-1.69,1.86-2.93,2.56c-0.93,0.53-2.01,1-3.24,1.41
		c-1.23,0.41-2.58,0.82-4.05,1.26c-1.26,0.37-2.48,0.84-3.66,1.38c-1.18,0.55-2.14,1.22-2.9,2h15.88l-0.81,3.46H911.1l0.66-2.71
		c0.4-0.53,0.88-1.04,1.44-1.55c0.56-0.51,1.22-1,1.97-1.47c0.66-0.42,1.41-0.81,2.22-1.22s1.7-0.78,2.66-1.15
		c1.23-0.47,2.32-0.94,3.24-1.41c0.92-0.46,1.7-0.92,2.34-1.41c0.97-0.71,1.66-1.49,2.07-2.34s0.6-1.83,0.6-2.96
		c0-1.32-0.36-2.35-1.08-3.12c-0.71-0.76-1.65-1.14-2.79-1.14c-1.1,0-2.04,0.2-2.81,0.58s-1.31,0.8-1.62,1.23
		c0,0.16,0.01,0.38,0.03,0.68c0.02,0.3,0.03,0.65,0.03,1.05c0,1.2-0.23,2.09-0.69,2.68c-0.46,0.59-1.21,0.89-2.23,0.89
		c-0.74,0-1.24-0.16-1.53-0.51s-0.43-0.76-0.43-1.24c0-0.78,0.24-1.58,0.73-2.38s1.18-1.55,2.07-2.24c0.87-0.68,1.9-1.23,3.11-1.65
		s2.52-0.63,3.92-0.63c2.25,0,4.08,0.56,5.47,1.67C931.88,150.86,932.57,152.38,932.57,154.31z"/>
	<path d="M954.81,150.03c0.49,0.53,0.84,1.11,1.04,1.76c0.21,0.64,0.31,1.26,0.31,1.87c0,0.66-0.14,1.41-0.42,2.22
		c-0.27,0.81-0.68,1.55-1.2,2.19c-0.57,0.7-1.33,1.35-2.27,1.94c-0.94,0.59-2.1,1.07-3.46,1.43l-0.12,0.32
		c0.64,0.05,1.31,0.2,2.02,0.43c0.71,0.23,1.34,0.55,1.9,0.94c0.58,0.43,1.07,0.97,1.44,1.65c0.37,0.68,0.56,1.47,0.56,2.4
		c0,1.52-0.35,2.9-1.04,4.18c-0.69,1.26-1.62,2.33-2.74,3.2c-1.19,0.9-2.52,1.6-4.01,2.09s-3.09,0.74-4.79,0.74
		c-2.14,0-3.9-0.47-5.3-1.43c-1.4-0.94-2.09-2.12-2.09-3.52c0-0.87,0.24-1.63,0.74-2.29c0.49-0.66,1.14-1,1.97-1
		c0.73,0,1.26,0.18,1.62,0.53c0.34,0.35,0.52,0.75,0.52,1.19c0,0.57-0.15,1.15-0.46,1.76c-0.31,0.6-0.55,1.11-0.74,1.51
		c0.07,0.09,0.2,0.24,0.4,0.44s0.48,0.4,0.84,0.58c0.36,0.19,0.8,0.35,1.34,0.48c0.54,0.14,1.15,0.21,1.86,0.21
		c0.88,0,1.78-0.2,2.71-0.6c0.93-0.41,1.76-0.97,2.46-1.7c0.75-0.78,1.34-1.71,1.79-2.8c0.45-1.09,0.68-2.38,0.68-3.89
		c0-1.22-0.41-2.15-1.21-2.8c-0.8-0.65-1.98-0.97-3.54-0.97h-2.67l0.52-2.21h1.77c2.04,0,3.67-0.73,4.86-2.16
		c1.2-1.44,1.79-3.23,1.79-5.37c0-1.21-0.31-2.13-0.91-2.76c-0.62-0.63-1.52-0.94-2.72-0.94c-0.93,0-1.77,0.18-2.53,0.53
		c-0.76,0.35-1.33,0.75-1.74,1.19c0,0.14,0.01,0.37,0.02,0.68c0.01,0.31,0.02,0.65,0.02,1.01c0,1.27-0.26,2.21-0.8,2.81
		s-1.33,0.9-2.4,0.9c-0.65,0-1.11-0.16-1.36-0.51c-0.26-0.34-0.38-0.76-0.38-1.26c0-0.77,0.23-1.54,0.68-2.29
		c0.45-0.76,1.14-1.51,2.08-2.23c0.82-0.65,1.89-1.21,3.19-1.66c1.3-0.46,2.69-0.68,4.19-0.68c1.35,0,2.49,0.19,3.42,0.55
		C953.55,148.98,954.28,149.46,954.81,150.03z"/>
</g>
</svg>
