<?xml version="1.0" encoding="utf-8"?>
<!-- Generator: Adobe Illustrator 27.5.0, SVG Export Plug-In . SVG Version: 6.00 Build 0)  -->
<svg version="1.1" id="Layer_1" xmlns="http://www.w3.org/2000/svg" xmlns:xlink="http://www.w3.org/1999/xlink" x="0px" y="0px"
	 viewBox="0 0 206.05 205.15" style="enable-background:new 0 0 206.05 205.15;" xml:space="preserve" fill="#1a1a1a">
<g>
	<path d="M0.17-0.85v205.98h205.98V-0.85H0.17z M172.58,157.76c-11.66,16.35-27.99,24.41-47.81,25.22
		c-19.82,0.81-38.35-4.43-55.84-13.49c-12.87-6.67-24.13-15.43-32.95-27.04C18.9,119.98,18.14,96.2,31.89,72.19
		C46.48,46.7,68.94,31.26,97.7,25.97c21.21-3.91,39.84,3.13,55.71,17.31c17,15.19,26.2,34.68,30.02,56.87
		c0.9,5.22,1.16,10.55,1.72,15.83C184.85,131.14,181.45,145.32,172.58,157.76z"/>
	<path d="M96.59,45.43c-25,9.06-41.56,26.77-48.77,52.37C41.61,119.88,49.8,139,69.46,150.9c11.83,7.16,24.83,9.85,38.55,9.66
		c32.62-0.45,56.48-24.24,56.46-56.37c-0.01-14.12-4.8-28.71-13.18-40.11C137.98,45.97,116.5,38.22,96.59,45.43z M132.99,131.84
		c-7.62,5.37-16.37,6.76-24.24,6.96c-10.25-0.27-18.91-1.99-26.49-7.38c-10.14-7.21-13.64-18.68-9.29-30.32
		c3.13-8.37,8.04-15.47,15-21.12c11.91-9.66,25.03-9.86,36.94-0.24c10.01,8.08,16.38,18.51,18.06,31.37
		C144.12,120.01,140.14,126.81,132.99,131.84z"/>
</g>
</svg>
